<mxfile host="app.diagrams.net" agent="Mozilla/5.0 (Macintosh; Intel Mac OS X 10.15; rv:132.0) Gecko/20100101 Firefox/132.0" version="26.0.3" pages="4">
  <diagram name="Page-1" id="esGYSwOKaBuINLO9YMJJ">
    <mxGraphModel dx="2074" dy="1154" grid="1" gridSize="10" guides="1" tooltips="1" connect="1" arrows="1" fold="1" page="1" pageScale="1" pageWidth="1169" pageHeight="827" math="0" shadow="0">
      <root>
        <mxCell id="0" />
        <mxCell id="1" parent="0" />
        <mxCell id="vva_UWyK1RMj1TiwhWrg-1" value="" style="rounded=0;whiteSpace=wrap;html=1;strokeColor=none;" vertex="1" parent="1">
          <mxGeometry x="30" y="70" width="1120" height="650" as="geometry" />
        </mxCell>
        <mxCell id="o0Kp-HK46LKLEaYXKzOm-45" value="" style="rounded=1;whiteSpace=wrap;html=1;strokeWidth=2;dashed=1;strokeColor=light-dark(#0000B8,#A8A8FF);" parent="1" vertex="1">
          <mxGeometry x="603" y="140" width="320" height="560" as="geometry" />
        </mxCell>
        <mxCell id="o0Kp-HK46LKLEaYXKzOm-1" value="" style="sketch=0;outlineConnect=0;fontColor=#232F3E;gradientColor=none;fillColor=#232F3D;strokeColor=none;dashed=0;verticalLabelPosition=bottom;verticalAlign=top;align=center;html=1;fontSize=12;fontStyle=0;aspect=fixed;pointerEvents=1;shape=mxgraph.aws4.document;" parent="1" vertex="1">
          <mxGeometry x="330" y="163.88" width="57" height="78" as="geometry" />
        </mxCell>
        <mxCell id="o0Kp-HK46LKLEaYXKzOm-5" value="" style="shape=actor;whiteSpace=wrap;html=1;" parent="1" vertex="1">
          <mxGeometry x="745" y="290" width="40" height="60" as="geometry" />
        </mxCell>
        <mxCell id="o0Kp-HK46LKLEaYXKzOm-6" value="&lt;div&gt;&lt;b&gt;Operations&lt;/b&gt;&lt;/div&gt;&lt;div&gt;&lt;b&gt;(Maker)&lt;br&gt;&lt;/b&gt;&lt;/div&gt;" style="text;html=1;align=center;verticalAlign=middle;whiteSpace=wrap;rounded=0;" parent="1" vertex="1">
          <mxGeometry x="735" y="370" width="60" height="30" as="geometry" />
        </mxCell>
        <mxCell id="o0Kp-HK46LKLEaYXKzOm-8" value="" style="verticalLabelPosition=bottom;html=1;verticalAlign=top;align=center;strokeColor=none;fillColor=#00BEF2;shape=mxgraph.azure.computer;pointerEvents=1;" parent="1" vertex="1">
          <mxGeometry x="645" y="159" width="105" height="101" as="geometry" />
        </mxCell>
        <mxCell id="o0Kp-HK46LKLEaYXKzOm-9" value="&lt;div&gt;Extract&lt;/div&gt;&lt;div&gt;Entity&lt;br&gt;&lt;/div&gt;" style="endArrow=classic;startArrow=classic;html=1;rounded=0;entryX=0.5;entryY=1;entryDx=0;entryDy=0;entryPerimeter=0;exitX=0.1;exitY=0.5;exitDx=0;exitDy=0;exitPerimeter=0;" parent="1" source="o0Kp-HK46LKLEaYXKzOm-5" target="o0Kp-HK46LKLEaYXKzOm-8" edge="1">
          <mxGeometry width="50" height="50" relative="1" as="geometry">
            <mxPoint x="745" y="316" as="sourcePoint" />
            <mxPoint x="700" y="310" as="targetPoint" />
            <Array as="points" />
          </mxGeometry>
        </mxCell>
        <mxCell id="o0Kp-HK46LKLEaYXKzOm-10" value="" style="sketch=0;outlineConnect=0;fontColor=#232F3E;gradientColor=none;fillColor=#232F3D;strokeColor=none;dashed=0;verticalLabelPosition=bottom;verticalAlign=top;align=center;html=1;fontSize=12;fontStyle=0;aspect=fixed;pointerEvents=1;shape=mxgraph.aws4.document;" parent="1" vertex="1">
          <mxGeometry x="676" y="172.5" width="36.18" height="49.5" as="geometry" />
        </mxCell>
        <mxCell id="o0Kp-HK46LKLEaYXKzOm-12" value="" style="verticalLabelPosition=bottom;html=1;verticalAlign=top;align=center;strokeColor=none;fillColor=#00BEF2;shape=mxgraph.azure.computer;pointerEvents=1;" parent="1" vertex="1">
          <mxGeometry x="780" y="159" width="105" height="101" as="geometry" />
        </mxCell>
        <mxCell id="o0Kp-HK46LKLEaYXKzOm-14" value="" style="endArrow=classic;startArrow=classic;html=1;rounded=0;entryX=0.5;entryY=1;entryDx=0;entryDy=0;entryPerimeter=0;exitX=0.9;exitY=0.5;exitDx=0;exitDy=0;exitPerimeter=0;" parent="1" source="o0Kp-HK46LKLEaYXKzOm-5" target="o0Kp-HK46LKLEaYXKzOm-12" edge="1">
          <mxGeometry width="50" height="50" relative="1" as="geometry">
            <mxPoint x="800" y="320" as="sourcePoint" />
            <mxPoint x="708" y="270" as="targetPoint" />
          </mxGeometry>
        </mxCell>
        <mxCell id="o0Kp-HK46LKLEaYXKzOm-15" value="&lt;div&gt;Check&lt;/div&gt;&lt;div&gt;Entity&lt;br&gt;&lt;/div&gt;" style="edgeLabel;html=1;align=center;verticalAlign=middle;resizable=0;points=[];" parent="o0Kp-HK46LKLEaYXKzOm-14" vertex="1" connectable="0">
          <mxGeometry x="0.001" y="-3" relative="1" as="geometry">
            <mxPoint as="offset" />
          </mxGeometry>
        </mxCell>
        <mxCell id="o0Kp-HK46LKLEaYXKzOm-16" value="OFAC" style="shape=image;verticalLabelPosition=bottom;labelBackgroundColor=default;verticalAlign=top;aspect=fixed;imageAspect=0;image=data:image/png,iVBORw0KGgoAAAANSUhEUgAAAOEAAADhCAMAAAAJbSJIAAABO1BMVEUAWpz////n1Gg2mNQAWJsATZYAVpoAVJkAT5cAUZgAUJcAU5kAS5UASpXp1Wbp1Wfs1mMAUp4tltd7t+Dy9/oilNmBr68AXZ4AUJ/v12AAVJ7g0WTv9fmcyvDR3urp8Pbh6vKiu9TKyYLE1OStw9k/d6y8zuCDpMas0/Ti6vJulb3X4u2w0+xlrdyQrctXhrQmaqVmkLrf0W1ThLN7n8M2cqkhZ6NCm87TzXfMynuMsqrQ5/Wnv9ZIfbCOrMsAQpGkq3yXtqWuvpVipcCuxKd1j4m3wo2FmIXVym19rbPPy3tKnssAkN6/xYeTtaZModiws3gjfbs1bZWdp35af48vapZipMFxqbmovJiRn4Jgg41FdZJ9lIa+1MuFuMy21OGcxNJ5tdR5tuj521QAOI28uHaKwevD3fVcgY5uRHOdAAAgAElEQVR4nM19C3vaxra2xoxGd5CxiEJCEIRbjGwuBuQkBpx7nbipu9M2SZuefU73Pk3O//8F31ozEkhCXJw4+/nmeVo7IMO8s+5r1qyRyH9wOJWK53mVivOf/FLpu3+D57fr8+5s4lJFMcRQFBZMRt15ve173/37vydCr10fTlzDVDVDYYxKFIYkiR+UMcXQVdNwJ91643vi/E4InUZvFKiypjCJgwJYDCmo4eBURJTiHUWT1WDUa3wn3v0eCBudliFrDAEArQxVVpkUtEbd8bzX69Xrvd680+23AokBNEMRdAWYxmxe/Q6zuWmEh/WRKvNZc2zyYNhr+rVs8jggor3uREWcYjFko9+8aY69UYS13sDSkXZUAQnrz9s1fLXiN+qcaK5hiWFIqGg69XaVw/EavaFkqQbDP9StSe9GQd4cQq8+ANYEWsAkg24TwcHUuwNgRa5qQsGTFmKpaEBjNRj22of4bHs8sVQFl0eTJ9PKjc3rphC2+4bOaSCz/tTjqmYmaaomxGz9oFQxVJVO5m3AVGkOXZmDVI1+44ZmdiMIvV7AJ6aYbhcn1uhMmIxMt/OghqoNxm2Q12pnYCpoTeSgdyOEvAGEftfQAB5TKcLzpn0mJymHFgFsX/wlUKOynlwCoKaqtXrA3X7HVdF86kq39v8BwsbMQvIZ8qwNbFZvmbqSpI2sG26r25tWBwuIVJ7Vq9XpSE5zMGWaNZgDrMZQ1QGjYfa/2YB8I8LGxGRIPm0OstdsWdpyzgzEi856S8dsFNGMuVVSmU5rpOriSzQQejR617AG9Qpx6q4MLyrW7BsxfhNCwIfSZ02aID9DU11Ok5ps2PaZ0UOV45HGuaV5PSOEEDikban6eZc4Lkqc74R6NFoeoOQIOKIxQvZg34jxGxD6M47PHMEEmgM5wZwT4LQ2lZQxMeTzNqmaktFtauJNuUYOVfzFahLfhIetHl+uTktdfgZT3Z5Dal3ZAIxy/xvk8asRVro4H0Xu+6Qyl0I1Qim4JfjTbU3IXJeUoS9L+pQ4Ftc3/BmlS0iHk5PNCBkC3TVA6HJF2o0pH6oZoGi8sYYY1fFXe61fi7DOAB+TRz7MQdGiSSmtnj+XuctmVqtAqGDGJGNOCMpnyIMqKNxA+KwusCs8JFeJbymqPCX9hHqF5YL183ApqSZN/6MIqwMVNWKrit9vRNpeUn3+pouvKB2C00U9NCQkpkcVj1QUgVABPgQ2lRxS13AFSARQiTQWM0fA030UB7nl/+cQdi20Vm6bOGPTCPnTHABh2PkErfQQpSvgHIhvtQjpx6QUYOniDeYQz+LMCu9D1NhUQ4DjqRSpLcXqe6Q6kQGt1fkPIWwwAxcXhKenhvgUq9UgbSSHzJmpDcGC5YUTBqxkbCx5zyEgnBGXwq+gcMnAMluerIdPqA7qLjPEyCwQwiZ+qeZ+hVa9PsIusAw1+xXSdvWQ2SwQF79NWqha+2QIBrAyktVmJaJvhfS0BUKttqAhEBfkUEZHz2k4zRAgQPa6oEjbLSukvKHVYZH4946/O0IuZAYwaI3bCvx6fVgDyyhbc24OXNIBKwCqyOyTiaCC7HGFEg4d3hWvGx3UpSiN01bdi5ga1qAZaLoFBqLal4XESuoAtNEANLY+uK40XhPhHPwMKneRQSPJ6njECxCty2cjV6umPAQ2qw3IXPAmEKkqLxCyAfABNymWT2qqsBm66oYKlkOk/NUmvN8NVTAzuw6Zq2g46t8RoTODr1BoWywn8qektdu+UJVylet6sA0aVVzOeSEutQkKZWkH9DnxAARDQz8RxgRcm8DXpdhA1tUsroWVkOIufq8GC9z/bgirEmg8eeSQjmBQqo5hgjIokiZAsaZVU5AI2E0IjOPyx87r4JROlrMHaJXxBAJAZwYfaDW4yaBaHCCbAJ/rktX2TaXbFx46NYcojSDr7nVcnGsgrIONYGadHA7EamtBrY3LK4ML6eoWQJrgTDShQ7XAF0aCgpolTq3hLp1yuYUOjFdn8OczwNJUpdQw4TMlNLBdhc6cuilEwqAN0gA1zfDtm0fYtcTqIVD+dWPicFry9e6A7qs1VKAy6FCTL7k1Fwpm0B1guiIRHqomvMQVEyqORuJNSRgY5AvaB5iwqN4stC9gEp2Wyn/eNEJnBoRDCehHQZ0Mc+uokcw4PUk2fC3oKODCDERwq86EqtmYyVCVybzhuakX60QoYgyEwWoSZxoqVX3ikTGssbqzMO6I0AtgrvKc+MHCdKPWF94Y6r25hS+xoSczDcKEMYfIDGn7QG89TUIA1TDDf4CckqEyZlR4cgprA1eD/E929MV3Q+hTBkEbfHQswjVQl/h8cmqVONy6Gx0HZIx4zVl6zpjGD1PemPRW2DLzJklS6mkMNmah8jXANDVNientOs/kga6bg1VWQGJ2SzruhLAKn81AYjpWbBpAOfDQ6iggrC/8MmbVHDaeDyw9PnvMGmosmA3HmPGuY9K7M5wNqKGqmpKRrjIU8NqqZoQdGIg/ZNRqE6GR5CGpDEDf0J2M/y4I20AoJaiACPLvjNS6QrrgJrZQzZkY1BrWCKJ5SYlnJDTZCrq9Ri0rawb6td4dWLKuJEhozIdNsnBwTODRGWd2q4qOkqAxcCjoBabt4qbugBA9aq1FnAn/Ii2ohxJheVP46woCxqh23AXnbGAusr5Ms9xhnS9zrTqdd2cDyQxz3iYLWsNOvcHNWq3ZDaxY+opizsALuUWDDyZTZE8dtGej0RDLy6RDMpSBYXdIqm5H2IRJ6yPiiawRt+QdnrJQG/55FymMaJFITXeRqWGqNqojAB/IpGG+TWGJBCNlig7MGwx7VYengqXIBYW4etImPW4+qUvI4cxxRrAmsBYm2AmFrwUzqmQsCzX+rQjbAFAdcl2DExN7YLU++KdGz+Gmd6gzbQDmwo1SGUxmQzTJ1XmL4gbbelsBQDVZmfAMRmPMk2tifYJpgFYGAcxU1iRT5NEW+EpKvcuFkaptcJJFxuDbELYtDrCqhdFsV+0SBNkYqAoGDxAYkEm/43VoqF2opmKezGn23Sg63jJwz0mZQXBBGkMWpolR2JWeOxeqTO47FXT28Y2BMxbCKDdJDxl1myxuQYi+M2CqCvKAw6RIZpOMUU/XNYzilRH86s2iVAZT3bkH8EaaqmTCWYtSN1s8SzpYcLpSx4/m5gh4hNS49FPVA7eY/4klIBpbnNTNCH1NUFAWH+53UebUin+O+T9n6NQ16dwHKxmiYfKgjZlTVd3AmetR6la/LZLo4gV1AgaK62/0nyZCDyBX9pYQwVLSzXZxI0IPhE/rhxSkmGeag+/GWqR37nLftyErHdIPTZdI3dYDS/kKeCHZZIpZ0mGIETOpmClX5yGPQrCBiWIQS6HNm7gCmGH+SoROAOpkxgmJkuGTcb+GMaDaAxNlzoA7KqbScaPZAD5nrulfDU8MTe7WlhjVVl9RVXDtfb6M1hQFR58JBQ4UbRJQPMrkaxFC9AbR3iHnOArquaUqQneYfoXBeo8diMtDfPIEwr2xuosjumWAmzoEjCNBJqYEXscLHWDMfvnAIcaENASjgLLta8hnX4Wwq6ML7AjDBO5DY+Gz0QF3FTW3HogXDGlKnI6xm+7cPhQdvIdGINSbMvNCHlUxZOIso3ejzI/uo1eFbHx9hOAhUaVGBryIgOvkxiLZoo9J93wCyy0Aq+AG1CVtZaZfPaihoegZwrprdR6mgU4nnueDajHA659ExrfiBJTL53URVi3OAyP+JQAQI/UlFeGdRiUkoD6oiiT4TQ6qu01wZ4QSl1uVvszTMwE99AKzrnj9SB7A2TlU+HbPNRE6IrgecyvLquDoon9RjSCqyCYiewKhPMT/19nS3hGjNauAMIhA02w30V2cKGj+nIbhLq0t6EJYecwKXA8haBnweuscEQV9agk3PzT9rO8MhSYwIKhq7xTpRhPf/VEFlrgSRkzcDs4UnjOpnic+BGQEzKIxvB7CuYpqtBoG30af6zJ0QqsirggCvogUQjW+S7HzYMF1VkNteWTOwxU0DPVzCdPFvpx6DDetlHA/YVeESCrVcxbpMb3DMy6cihpFkglSqtNwp2nXcfuHu+/uXON5pjRJg1skCgSFgAm91WQVhPBFIPJZ475lInTgeSDYTAm/BQLgMD/PqTjpiTcU4NC6eR0Lcfulnb/7af8afyFZXeJNNA6xR8YmY1bM4VXcAfflXEynsGzDn4mwa2B6ZM7Tooo07C7JpGLBBRnyL9FaDl/VnQe9/Wd5b6+Q/+P2dSDqrUr4NfKYTAet+ngBUe1XhGcOYU5dFfZyJ4RtC3Ww0Js6BtlkvMi4I6OO+L9ABL1BnEPZ/p2N9GT7TwAgjPLvt7eo3kS1EaPVMEOEUk8arcUOzpTUyJRrAXOKHGdmRVJZCBVuAHmSUws1VCuauzEKAZod4scnQm9/evMLXY+R3v7twt4Tw37z2yZOBVq/ux3PZcnN0NdW+9WWufhS2tLOwfEXuzweOJIsy2RkIOxyL4hzIvi0TQlML9+F5uvpVvoIEIWiHRfBO+4TO2/v/eDuZ5KH3mG/2/m9aOTzP+yvU1D0jvt32X4SxBYLYwzhaytq/OMpd2bcMPHeNnHTZweEVRP9Tr6hCy5R45zi3km4s2AMKGdMKtcX2X0OfP/lXU4g++4v726vuKdsn/55Yu/Fh33x6+pzHN8d/lGwWHdia2COSUPLeFyRGqFNg4AHTcaqPl1FCNpJ9oWhANWJ3GF0SFfWsNC1G/rhaJyWVpDuv3u0mL+df/Tyt/07BuPV3BRMy77x7pcTu7CXHHn70a/GnRTBYSleRrxsX/wR4weAWF1ZESqPMAM2546XWnMUnn7fhhB0kjYWW5hcN1VdRQXXwsMBSo2vK8h1bwnwjvtLjAFx7vmHv7x8F0gM5DR49/LJhb2kX6EQe+7i99/u7PO1yFqKgv33u/0FKLlLGinfl/LN0mld5GwhMJ/KmL3ZgtDDogixZUtHFawNdEbqIobmGW70V5cA2e2XKQbkk7fL9snFxcUJ/IyTr3BxEv+XbV88efkpwBMKwac/n1yUk6TO20/chX8ArnAjnnMX+3dkaJk1j687SM6E8X2cjQiBSLAMAbejk4lu4Sr5/rA7Ho87nbkwS/Mli9Lb7x6V0/iW9Eqz5l7+1ZvkawASFiGfL8NK5FceR3G8HYkjmMN2CBEpa3WJKCtQhmGwqDngPutpo5hCCD4fpmHCMhHAaWLMUlUgujcUkYwFC9mM1vIO+6WcX5nWhmE/fXut5+EvTv6IrKfcweQa5y5XNzAi7KG2A8UvigLB+e4qmIzbhHAG7prvxDcsDeQFZyTTML8EwUo1NBOgQVcZdMt8b3285l8AlR99Cq1jFM4Zc79bwSQmN1wz0sedWXy/6nCSbkAIUTwsxDBhqoQ894xmh8vzgHjagkFXNOS2UX7++LoIuTgK64h2axSFAKQtnGXqggEb8IIdOkFFKfsbEA4oNTw/Ic9hiAQMLHYIa2HEcYf+kr8mwyHC0w9rxXbDAHE0xL5QjRelUKkS5oUlbvep7gSheQsoG61H2DDR9o1WstVGcMhTizxE5IvI9v+4LoPiKJzkLr8G4cI6QijvowwpIxKPSlXX4T4JvA0/LX8twgmVmFO10gDhAwei9g4sJOpTuv/b3+VrMmgBNWX+TfF0D/8wQ21u+/vyI3RWIRhv8vq5em+5387z/5yIIFEDpvTXIQQSanPCXffoGAgTRQZWW+z1Tri+vmP8bl+HQQtoHi9eXeT38m9LuYsCuKX382gdrocxXwbrSOVe6DJHnKYpvMRYOK4QKcJPq7YGIVa7OrxCQKv7jXZv3O1PXM0yZasr/txEB166DoNycCdvX/zXWYX89dC2PxZL9/P2yT8fHPz1+NVDtITXIaad/8GgoEjCZA8SUTN6fCtsMiQ8GBZEHGYjBA0DUsgrBOLuneM3qoKwMg/C6JPdTKAAd//jf/33GSj2L58f3CveL98qFl+V3x4QzzkrlYqnH57eP8k29WtG+RHD0FXszPRUTekgvupMZmGxJxARfsqHmQiHCpUrYYUABr7e0v/hhAXYdSwNZu8eboMI6Mp3Hz776X/+G/ildnRwVSzmirlc8e2HYvHpx3+RB6UcH8ViKXd569nDvV2JWfjEMP0wRtug1uZzdLwr1XMFt/lFOYg6hXDK6GQh9DSqdBeKFJy8mRZMwMTW2xW+s0U1zxOm3pAu0hCX00Nw+YtXP/3z6As4F2cPjgFGLj5Oi1f3Eq8AzNPnT9+egGhuW7nyr+imglVEiyUYzR8FZGwxfRDubYA6retYpruKcK6BhNYW7jt8zEDRnJ6pnde5FOKOU1TR+ikxFQgmFpDtu2+ffvjr3plDKl8+HxdT6NYOQFm8fP0RJHPxyba94k/YP9wWNl4wlVkl3tACX47UZ2MnrBNEm2hRdZqB0KXgkcaqlWWvYmIlpaR0cI9A7MaE4/aTmK7Jv/qfg9KJmFn51b8eCMbMlXYEl4CZe/8w/OTy69fPHiYh2n+HKSzwrlGfAhEpShZxlsqUR1FjI5Z3WyCE99U2icXRQO6qww9GcI/UqpJYTP9bPo7w7Kh4CYFdIV9+dYWMuTPpMlCe8gi4UH4K0pry8O4uMqUQMKHdN6tdhiIXYFDYiMJl2a+ZsaTUAiHqUORgDo7X2oHf4CxSMWBFx7HNpf2/lxALJ/fOisXTVyd7D18XnS+l4voR0WrD+8Xcq3K5nH98RRwwLAkSvlzEijA1zHXSQUBlB3hLDYaThXyBJmoxpZtGCHrGmIeFyHrQn2HtBXgwXZVy0FT2avHdXeNlbHntx1d8aqfFz+QMVMktMR6L8RMfT/m4PMgt388Yp3wBLh/furxHaleXCRIWHsZyU6ZQNhRdFJx1WEgsSmJkNBjMSSEE6qk1sZXMY4naBBjdbJKW20b1YowTRyaAhWPfDt6mGIQ8AKvwE1i47FH+QBDhv9e+/5OgcvH4wdFxsfQqgdD+IxbyQIhT5+bPcGL1tzTg5+PUJgiU2kwhhKgCJFSJAOL2Gv7uE4cnEq1Kaj/kTlwL2G+FfTtGo5c7WWvZyv9EhMW9dQ8UTiL5RfuZjEIKJ4n6DrnJPRsuhcvX3QqH3YJIeBFhhAhh/qBgNaEzvfkcyy4Mrm0cfFEZLyxFJIhP4jJSflaKplZ6u96lK//FEa53GOxX0efkiu+TxsL+JZFEhplNVUlskC2k05RETYrlwYtmJYFwbgC9ebZDbTqmZpzXBfHNQ65NZaea2kK782cCSPltDr2WYunyzQafNUS4IZHBPwdH6UPKGtqfkplH4EJOy3a4967IdNwgQlcaPSBsZBKliEmBqtxnp2SOp5qYOObCmmHpYTpoZJ9SGd6915evc69fbXRLygcc4bMNi2CfPIZ1Kp0+W4nOEptq3OwjGhoAk1FFdseiwO1QF1LaUSLfWiCsWbgm6NeBW17rBKYhhUW63EKotVp6F5QGqUi2fOuk/NPF5qAjRPh001OF8t7zk7c/pePkwkV6FwB8F86RfssSJ8ix+n8kKhgsVJqWE0NY16gqmJRnQEij36thGktUy8BqdNNxPzXSi/9hr/zi/mbHsvwvBxG+3hjmF948Lpc/pBch/ya9sQr6BCXI6FRC4z5tqbpV44pRsGk7hnDEAAUyKRC9KcLHRksFHcOzT3LDWd3IvnORkpOnHz7mtmQo8gLh8y2PPd+7fyuNEKxhegaWj4dtsQQVqTchXTDYRs/jkewE7EJo9DlCR6ZanZtQpVM/t1p1UUTaC8ZVdcHxaYSPEvQqFE7BrdwkYfDM3X8R1CNbUjXly2Lp/QrCi5U9LUCAkgTuZH1m6WYblSH4o3wjUPZAAblLhPAvsya0JSYHwiJBHGjmwdcZrG6Zxf02nNbT3GnucW6LHD53vCvg0o1P2Wh5VtaqcLFyaINq3Nk2Og7WuoBb6RpMOhf2G7SKSk1/gXBsAJ3mcVFWVGMM7F1B/1b2spJTSYSFk9Kzy+Ld0uZ8b+Hk9EuutMElwGfypx9yl69P0xHxyWqdCga73DIiKalEGuOh2ScVZFPAO8JaqgjhBGNfroQMWY+AGvKgMtVDDyED4c8Jk//6Mn9azD/NrW5VxEd+79nTjycb1ZH98ceL3OlJKa1w77orCJmYmemD6aa0h5WtXdIUm+AgWZrIuSFCoBTYed77oV4VqW1kVWrW8GCILiR0BWEiRHzz431AeHdvCxH5RszGNSjs5T78u3hqPy2lKJ0PVifBpQ09N40q42rXlZXADUuATN8PBVESYmjxZ3H7vj01sS0J67eZwVOSZqWRVXCRoGH5PTiRgBCkca3TudsAaA/LxdO9vdytpD4qZyDExRd5C1k1kmXXwKGhICJCBCLEUCZjy2pXeyOKBRBdfrI+m0kTcmi/+vEijwgLe8UXX5EKX47C3dzrMiK0n/2YdF/Lv61qu3BuQBennTzKL4GLNmP6NEQ4wwRjS6AJwAXC18eKdcgbAHDjmYHwzpsYwtPH4GQhQvsbiVh+WroolEun4NpcJmOL8rsMhFoF3RQ268x7aTKg6uQWUcJiZ7SG4mBWBY/gDsjwXMGQEKFxhs5CuLT49osS7l4jQhCjjT7ZlgEq+XF5jyPM3/8x4SGlPW8+wCigmleGspHmM/WwofJsDR6ckoHOPMmmckdd6fLMo9LhB35o/KR5bBh3l9Mqgn5BhPA/+8X68I8/vFHTlB8XQcFwhGA8EzF+JkI25JZC9uZW+niA2gSzwSocIR6JF1s3ple3ZE2ecqoBXJU7DpMsJqV0wUPlW6f23p6g4d4WItonzz/srbUWBWEkBML8wx/jZt/+NatQx+VKBEhZaQ4DU42dEuBdK3ArERACjVzuxIKTQCqNXqvWOzcYtXhDGX3qZJ6dYL9FCPMPebohpCHYs9L6GL78Fny7y7U7/+VbXIoFQly52CclkhiLIdcwAAavCxtpec1uoEZtbsBYjhimMiQ8CAeKBxUNi3alvGZnoqj8NdmvZorhMj4sP3+PM44QFvJriZi3f+IhfPFj9tZc4eRHbk5DhIWE2bdfZiEEbWnhxP1zM2hUPJz6OOAHXKiBqmbOEQ4YrAFKntFrjJvR7iI8znjeao0Y/l/45fm3P3IfPEK4noj2xfswR1H6sJe1COXXp/zlECHYxuLS7Nt/ZiFUxJaTO2SSWvf/N+hio7eKsHyVporJGgmT4Vwq8bBrS1dNdTYXvShRGiGoGmXx/zKdWD4V4R4iFAJm537KmH+h/GyZJy6e3l/lVBC8VwmEwA5Ls2//kFV5S4V8hU1iTENUx/BkjVz1Zaz+lsihRuXQInBBxX6HqjucEnRKwSPKwgfG4geBAigm1rlwd4HwWdrjwukXXi+STJyMT1f26MofwrCqXAqNKngSC7Nv/55ZW6wvGoaAaXD7QEFnLMrqdd55xAGEVZNqXvrMP2XnDcwtAnVXQ0OO8HdbUC7KSSwR7pVzj9MUKj86TSX6S+9T+6zg24YpqgXCPftyES2vQahWfXGcALvdoIS13VCqkDhUPQSEYCzoInSiiiqrvFec1sbNKtWvZh+kCB1v+3Euyv+C5x0ldp8Vk0TMl1+sbmQUc28TCqf84b34d4Ej5MNemn37l2waTtF409ZI51V43qJdAHLthJlVQFjXgFvDymJmjBued9jEDh86z9M4GeE9jtvcLS08LH34+IKPjy9Oc69ePROjmCAiGMHSCkAk4+N4yen90n1b4AKEJ9GfRpy7Zz/JLLoFzwsiH2VYG/k83xQ7TzyB+B1zjiLvJhJryiSqmGpEEXXYlmuVhm8EQrHNUsJRzJWikSvGsjiLHCgfn2O/l94vk3Pl58XLUzEui7nTxYhYN/9zJkLuYYfJGn+S6D5BYe7gjkp4DrQrnOv4uZPwSN4kuV0RWzsBQeTzi2eVs9hwHpQ+LIiTLz+OE7DoXMW23nBXXyxF4SRXPPgcjgMx+H5P5LqtQQjYeBTsEN5MIj4sICnYQcyLhuaQnxqeu5bJWyBy7sQeF5mV25SGkgbBAMzjIL6ndkVyzxfOp31xGSPa1dUx+XLw4CpGxlshpwKX3iPOUWwQ/li0u5z/O7vC3+IGW/Y9N223TVCzQDwJIAApLUHCSsClj2HrG437AGSle2O4dAvuugUQiwcxKh19fh4lWRJGEMYDzh/3EgrnMtz1BXY4iy1U6d4Z/OVyFyT/JhuhWUE7oDbmK/rCrDXQ5EsQJetNh8cg47B7gcTPMiJ7htgzEC5T3kkuBDp9Xmw52HtJI5grXoHBStYpgIyGGXz7bXyhcjy1utxgKzzMLu8XbiUbTTRx/FNRowZk3ORPACGjarsmyoS8JRwQUzSHbS8bIXu3VJblj3E6FXMLr7N8/zJtJIpYSZN+sfRahBv2m5jRPMKtutg+VuEi+zSR3DhEhN3xuNNrYVeXZjs8HaI2Dk3gS0QoN8JwKdaRSz7EyCJ8JwPhr/HA5uHzqCyhWPrwsBxx6NM48CP+4/gslzvj8hVn1SjcyO99WNY3FOOaFhFmqzwgAgigMQVnpj3BmjC0BHy7Gt8BRSSBwTRF/CD7bStqJA4I0QlYF1lIxh9xhyRfvv+am4rcrUeRM2afvI9zaMn5jJMX2+H4v9pBnPIlQXgIr96X8HWssXmW8OsyUsJ86NMKhHdYxm6plOcP501RM8zdNkok+L95yLNp5mFt2G8NeE9q0+JlGPJhuj4+HKntQ8BYvriPFVz5iICv4kbw4N49Uvlydhz9G3Vq7fPRcQziB3FgI19++PTD+/fPH78tp9z3k6ycJsqWQ/H/2LqJotGYyedNTw/foQqRPI4QceiLij7H86vczKjeOoS/r4QPhfwyTZ3P30qomKsz/NjjBeYD/jVHCQmNwo08lvdnlEedZCbEMPp1kdnQuunAo1MZ0zBIb63nSBwhhBYcBzWSJeC8s6jXXoPwl035pkJtYIgAABnKSURBVPLDtIopAcSjOOj0v3N8X3FTNvzuRoS4q4bderCCWe/x4wlg6twkQloZDVqzfrfTqzfbPo8LjXUIkzn9FDGTyjUUw7MvJI6m5tSclYeebyrrzP+WiVDpIEK1WrUUPNDd0yWmiqyTQOgsEUpuzWLYKl3RdF09P8Qcxloa3n60FqENCjE27Qccx9WXYvEgZu2ualfFI/7v4oOYE5cKN5Kfm5ESXiAEB7w5ahLsjMpmNeFqLmhoRAhpXB1rzcEmhPsX62ZSvp+MBEkuLHVKjIVOzV2ReI1YItxIfXBGSnjBpVGB/shocUXicoRCDisLhMnBPe91mobSNQjzwk+NxvHxPfLlwdFVbt04Pj4iRw9iKidpBBM0zEqYCkrxn1OH+DM0jdiriSMIEYI9lA8z914kNCDZ71D3JHsWFwkjmLvHF/Y4jWs5jviKxx9Yhhu7IRTWAvfKTJn3KKKxdxjaQ/RpqmvsumSusfh0kMVLKSPIGREM1MGGQkUIRAi5Sj5QupV5kMP+NTNSBYu/2i0mStQo6NOgX7rONwPXrpadLX2XkdTNF26thvLkLOmHFlN25Ip8IUepJViEG0mEmSlhSW57onEUuNy6IQ4XuLwXGnhtKvdLXfC8vZVyGbEsanPlHYHw0+oU7DeJSFAozgMwejExLIJ3loj4c/celK4Slp8/VlwtGFqTEoYI4pAXoRvjZnPaG05cxbT6PLkEnreILQZUnzqpCGIwUHhnynXRU9ItFRyaNILHNU5PZMCYNbh8U05lbZYPxCOnRbgRR/hnZnAh17gxX7Y09fyGqFZA4ePx4YzFcAjS0RnWmhhhQ9kshC9TCFNGsAgq5OBzItLNLeJ5WIyMCumil9C4xdM3KUHITglLFk+YYkmwv7w8ihdzYwTMY/yuYnRIpI4MCVvFyYrV5TUNyqLbcXKk3dIU613VMnQoFv9GgeOKV1csXZGj44M4yFJqd2NNwtTEQAKYsSGbpmkF/U69URGJNcuZ6jxPIzqO8rrLpk9awag79WfYDTncLM1EmHBLox2X2IQ/A8AUAeMuWd5OKSVuNciX5F98SDhx2QhBlUCIAEZRBPZUAfpYwkJiBofn2uoabfH9bCxddw3fIc4Qu3HyfUOanU1MVJfaD9+vMB0ERyQhWCm3Om1YiscVsqpTT9/GODU7JQxchpF9O24NVJ9vCLrArDxf2lapyxmXGmSsUVWtTLF+Xa2MFXip0szKCN9elikUys/icxWcWTw6Kh18iamY05U9w1SauITHT1YWKr4u2SlhQzjejbjdDm8Dww1EnvP2zWgnW+XaRez9YsTFs3R+ltt2e1EDndpxKXriZ9KIZ2hG7uDFrUvl6kqkN67itI/xdnbCVHR+15NWjTMsKJkB03DfAmKp0MFWG/jD6NVk4ObzNi4LGJIsZbof7UuU3yT8bHBRPl8dp9zQTOvG/zi2XXPM/5r/Vktq5YhT1yDkXhfwal9eKAzGQwhQMlTsPQGVZbGBo/VqlmJYM0L7nWYV+6WH2wLpQaWTkENfJBTGkbOqLzb40nv5/Ou0F1Qsgp05+Bz/+zDcyEwJU02krq0G6Q0sfksfNca88gS8FY3x/UOwB0ApldPVGQzn7cUZU+z1O8lSpjS4myFKmBjGfG/ytdJPGw7zgcJJBstZdqZ4yZco/ygLYbipRHkPpVqjPu4PqM8R4qao2AMmw8ggxpv0eNUmNyFWVm0pPxS06mdjKJ/SiJmbvfGRSsnlivdW7ExoSQsXGQiVcXTfiU5HvaYv6vP5ToQszCEirGvR5pPMs1DtercV4AU4eOsLJo5XEYJbmrfjue5Q9I6dq2MvjvjD1uOmeftpYp1W7Az/HAg3MhGqIl0fYOs4vKtPcwf9pjgEjYYurMUA9cLEFqnp1SeuzC9LA2s/Goq8/urnsl9tO+mWhIr+OIYWZWpN0UVyJLICMTsTF0YIN8onGfZQ5WlCtd2NqRmF12zzbbewngZiDFkoU9mfxO4jGvlCS81WBNF4mdhxwe2mqwxP8/LhloLuiFPvxpzaRcqxePY58R3P9lYLe0AMgTRUqYzMRZBI3U6YadMoFTVRWNbe4DcwseFiL40qoFPxvik1QxCNPxM68OjMIw6e6Upx1s6HtcFryPDFndrBvRi/lj6sphOxYothwpu0u1rUaln0x4OQEGMngXCEd2uJN1n4jBl0qsJFh/hrRRDZP5LzwXxvyuXamDbLIONFyhf/vOqoFt30PCD8rVi8zBRHtRNY/O4P/hza+Kg2EZxzsVcMo8UQ3mAuLAY3pp3V6kv2jxQ/ruQqNqc+M0ZScXEmBTcu+dIKQqrwzKjq1cO7PWu9lqnxMjUstFH4+TVRIwwuKd/MkL3AmvT88OkhNpsAE9JZOU6SQnhMjo9qCSPx4rrtBETNWxJhLWU2VhDiSSYGNrt6rmp4Uw2Oiqh2Zlgxa9ZChOCYmbwCDjc4xEl2rzeRNbM+ouEJm80IP18VizFfrXi5xQhmD/skEUVjzvhz4mtWEIYnmVDzK5ZV63X46Rlu77HgjS7qvAEteDXc5osD4J2mz9tLGosTNmsQpuMdwaGvC9dveiLI+DHui6+kkVeYVBMnmaiiKsO2Q2aqFXRrws2UD6vyslYf2FAZhja/4swDS50Jt0AZu1ImmwaCVlckfdh+g5+9yyi/Wdk1RhYJNWpaHSgjnr5XZIRHRM92q8k5jpuR2HkL4Fwmms7pTd6GTXZEeV97zM8z1NIda1xc48+fv5CzL7v72buMleAfExxfzrgtKabtstzGeigmmmBU69hTiWkiZAct2qKiAYg42aVSs1oTngA/cKhPfZMaplTl5xnGK0af4jdyhV5LAfzp2iomOVa83eMHD8DWeiCR/0gjFOexeG/cjmSBUexNZtWwi0vbMWns3BPps+ggt2gHBfLoBvzMIk9/rFzmwwWxmFuJArb52dsIWMaWX6mIhadwsJLqHykuhXgB02QGaeD1ktH2p+j/gRIaP7sGa4Hn2Xi/wEmLUUMOnLA7yFARKitLEI/JkRfPPEQ71V+JL//28YcPrz+e2Ingn2e1Kog5XbtkebwCdlwLO39zvVIVv8/AjCTOH3pWeMIGnqtZgdC6xKvP5vx43iR57AsHfvc9cBwfxFTMTn72WoAP/7oSNXGv7KQv/sX7zKONlLHAO+zwoN0kqrQ3Br1mV6Tc+Ekmi8QQYhQsgghqOKF7wC++VaYie5w+YrnwapbFIbv62dmjcHJZu7p89vZxkffoiZUaFb+A0kbDmFpjs1rBopLYVUtUi4r1TSBX1EspRNjTotM/3NOp9SZW2E2fL1d4CjrNpnEVs7ufnTnKH86uLm07X75fLJ6WE+ViUalO6oLkCdeaStaRJY4lajkQIqzJVPWqYVw1Dcz4rUe4JrXDtK5J4Lumn51Bwot/HZV4xXP5p2LpVX41+E8rGlChQEKlnwzQBVzOpLKTQAhsqonNVHBRE1WaASYaQYq7SUlMOG7X9rNXhv3xy5U451Q4yR3w2vh0Jj0phkBCUZPYPl8QkSqSiIQtZ8mksb4YeIid95aqt6i0DDblCqpkq+alsooxIq4tE9mdrPbrs+hwhX15FtaUJn3xFRKq4pbE6kgWF9FLg9EhVxuYW4w0aay3iUHV0HeB0FgeRq6oGjh42BaIOF5DxHV+dgFg7yibhb3yX1+io7/2+7NSeBI17osnmRSgzTV+Lo/wo6P1ZpW3teIkBF8H9A9JIQQPb3HhgDKpemEfFwldO3zV8p20XxNyaFY+ew+T4Y8vT98nmmQU1gwbTOBfD6Ljp4Dwx5NFfepiVzLJpLKPmWo28sJz5xEncm2hAEca4xWEDRPPRquCxQm/3Ek36uFb/BhRPals6CAX87MLdqxnSz6ft/OXn4/5nm9+Me5mjr27r45f3f18ryhOjxTuHhyVltU6UcYr6bIZXa4X2Ghm6Ao2bHOqjfo4bJqM7hlbtodc9onivTI45axqxQA7oYlKxta5h8eBsW9rUhRYcXloorB3+SAx7v14zCtlS1f3No/PYOPB1D84CPsN2s8eHMebC4W+eJKEvBerJAl1oUPU8L+yqpk94VzKXlVkaNIIe3gqQbT7AJ9H1ua811tLZpTfYwF+bPrQuptb+Nn2reJxckRJxauDzSParDrI8SMMhRPQLqV495MCbr8mpVCuk1aMpiheeCyoL+4q5HqmmYEQixSrFa4xzerhGLPH2MtuuW7j9IFg5dPCCJZPc980eAkYks7GiqNSsr8LmMakmmnx3jTLEepIYQDkasWKdxOO9dzrKuC7cBBRr7fEjfB4y2HKO91fbHaXP3x1dy+B8MEBtl9COM+LuVK6g0iyaM+qVVLHmiFs0MNWkbwhiBHrXB7vm2hiSzrRDLlB/L6Z8oewj3kysUgXzTHArRSlv8muXhi/bh7i4WIJvPiw7+ej43vrm3zh0Hsrh0BUcGLGIhNhtiHii/cSjve+HGE7EH7qGxZiuLozqnfSng0L7oZ8mt97ePH0XvENjEf4HwDmM392f8t49OjRi9KtNwcPSmFTF7D4yYPq9s+JDQulFWuNFy01NuQWF5cOSE9ftjJLIaxiDCWsvtxwLGWlB7pVTetT41Nk7cGsvfhSKj+8f9++//ZR+fLo1rPnl6/f2Pnto/ysXP7rKPJpys/Pfox7Q/lUgbfmOVZ6YhgN8z752JfHpWv7l4KCAkMzDJeiMaynY04qiR63sbH/cnkG8sWX4r8f/1i0T0vP/315dgsD9t18mjyGFqWwVwH8mku0eE9WXQIXZhTAwHy5t8K7nCW7Qaf6CAMHH1rhWpBpsLJU/RUOub0oPEGEz4E77cvc6fPc2UoTnU3DfnoWWnz0aeLdacp/JIQQ+/xm1E6woShVMFdImOoF3cLuClyd0kGPZnyS3BMdteMQf45a/QPC3MERIswVj2vXQpi//+BA+NuFk+MvsX6J5d+TQjgLuTE9XHFB9gSlMNnQO4mwCkT0K+Jynsw6ObxVspVUZPROCBERXh3dy9loGz/fuxbCvfLlmeixV358dXU/VmKSAAh27nDTvYpW1YGwobYBIRkxWKXOhvvFKPXStQsRRE5DUKAcIQb910Fof3xwL/ewbOPG/rLLkv3zfuK71FpWu6PFgOh9bCQU6SpCX8Y7FDfdAsMC4qW0DRUXyNgvPnMLZ/PjMz9u7pW0CvH52efirY/gOSz97hRAbMk+20hCz5Mlo7IRIRg87DW86QYgZULShcP09g/oUl484iP/5tEjMHQPr5fWKOQ/3CsV0QNYRFzlJ7eTvgy/7XD9AHs9U9Qe2YzQoeggbFwpbbhyl4Z0+49CHk/N4NgTP66btynY92+9f//86SIhUv4hCdCsk/mmpefNd1fvX1u9o0SmaqWWvs49MfBaufRX3XmXVbl8vYHngRZ3eOQLfyRroMxe/OaXjMEthblyTeDqPTMTPAE233jZn9whK+cwmPHLN25ZJIb95rdk6QXYqelGgGCr53rq1oBshBBbwkJkH/9dLFeHrBxToPufHl77Nog1I5//3UiqO6tOptkHdhff70DUIK/eK5tx39MYzyWmr4BIDXkMXuzK9j5eOXMDGPPikoD47K3pthvezCZ4cytqJhsh9jQfbuFTvCCsRlf00Z39l+nbcL4C38NfU7eWoQXrbWRR5NGeCvHdbggbFrqlm0wrDH1GnMGq32Pc/vTk5Pr3HoSjkLfzf/96O/WxTPL5NeMbBmUQEyTvRNiEEPtas/BWug2rNnFIP+N72b7x6Ycnj/LXvtwBLxr4+2Wwcq2ZPqngTTIbB3aQp1k8uu6Gx4CC87bR7iMU1ye9rGWg7M7+fvDnG3tn+1Gw7buPfv/1N2k/416uLqlMttwiCRHHWFNamVjW3mEJC9Ldcv8t05qkYaxhZnpnH2/g2oWQtn3y5Nfg9h2W0ZGKmnhN5pbLBFkLIw7lMBPLmntI6zIG9FtEkd+GVpmtZSC2z16+2YYxb9998unOKu3EwHu56lvEBU+/VgxUptdBSPoGpY639YpRfeKR3vqrcikonp/Th7IT5Cv//YeRfaEg/jney9Xfeg8oaNoJ07prkKy9D9hlQPvGZqso4YXqU1KbbFhldvu3J+sE0s4/+S3zjkAxdLcBUrDJRRYA66SLO2fXREh8k+rj8ELgTYOa/QrmRtY/wfaDJ1m8ahd+WVWcsT8Dx4mMt1/kqo7RX9VWnZltCDEhI9dXchYZQ2FTUhlumgrb/+3vtB+AF3Htr/8barZqpLHSkSXj22e8O2ljLY71CAEc5ixGO1z3K89qpLqJVQHj/yVrpfAytfX0o2rQ3rJqEcABqbGwHca1ESI4wyeTrYKAHDV2SDvYFHMZ9Bc71nPhhw38KalSHXeKdvhiKlUcl+rrtMw2hGAtKKuQYIdvkgy8N6vpbqAjvf3r3Win6uLd+rtkqarxj9oYokbP4vX2zFi9mnNXhBWXMpff8LzDUBlMrD0xMxtJ8mG44lqB8s/p+0eXg8kufkywzQYKgJpPZoayVo1uR4gsDmq4shtEwVzVIW/3lj19nlst/357zfSpYWGLquZu+ABglfQh1KtsxLAZIbb8MibE2xEiVVnHI059YK4eIBcP7P9s279nN3zCCw7m+Nc78Sf/tioZqoyutRM7IcS0Gni0u0LEsuJ+A6uMA9PI6phDjYsnWQCpIbvdKnxdl+m74eMAuypdc6P67gj5tZYtUgl2hQikCLDU3+9NDHUVJXu3chaOKqrOiwW9+iS9Z7l+MFDzQxUl8VsRYloNGDUr2l0L0rD4eYZKezzQZV1JLE5CEVGmqarbxbMEXr1larsuI35MDYJGamTdNX5dhHhYQQkc0spuoLhmAoYlddu8DKQ+HliWjCcDlehuY6YohqbKphV0ew3UEw1xGGT3oQQemelsOwV3QkiqGhiNw/CS+mvMQrWAPFxMKn673un2Z5NBEASDyazfHffaVa4iau1xYKnr3e/MoUOwOzEo2yaDuyIkPiy+UhW3715rUDzbHwx7Td9LX7VMPL/dG0+WDeSuMeQh8QJFcbdo0WsgRF1K1SaI5O6CskSJTW1NTXIHrVF/2O12h8NRaxDgRaCast492DCsHqmCHAw228HrISTOBILoOfHdnXVdBlLKFGzSxG83pavXVew4mNEmTZXqG1216yMkqLjUPnHW5yyyYWnqegdtjVuweRiDQ7wKWN7kbH8dQvhYaoAGm19HGI1Wz2/jLSCyjNoUs1aKrnKjwMzBMLim7sKwcUgIrLK1IVz6aoQghZSaTRCBnTlVmx7iMWPsrVJttOvzcZ+Z/WajPtAkFqAebGR3Clw7sF6tShWmrQ94vwUh8QOFml28kn7XGRmWh4UPizszq+cgQz2fdDVW8QyzHba63XFQFfNeJtUGOynRr0BIMMeN+b0m29HBwYM5AcW7pOe9OpjGfpd0LO28Qtgcd5s1b03H98yB+y7eTOWL/N0Q4sl2zBU721N8YlKg8FRJmfcsw9DPa87/NrAkTW6QgY+/6HVS2Zkf1FaNNA2mGGvyojeEkPgDHZiltmwMvnEoHdwwETdM476r1YZghVkVYnhYN477mVuzzuEnGXW+ruokO7N9cwhBp1qUyXNsvbx9bqAYFofCgHIuHhGoanUyPj/EPDw2ccjs8JMeDFOWTUWh19ChX4+QVF1dUoMGqbXMrVl/f3E6kw1wq8esg/cAtlUHVnM1vKa4ux0hlfm3yVQf7OBp3wBCNI2MWqMKHovbLI60srhaQa3z+zLOsba1a2LTEa+LhdatrQKtu1POMWxTzvCGERIfFpSp820pMeTCiEQMK3R5XRq4kz1VmYE9PARKbkvJaAzbrlKDmqPrSuC3IERomljcTWkVNiRRL2mDV4lT16lZ2FptBjpxMgHruKa35hIfLGN7AG6ou1JG8p0REmesKlTF25SnazPBwJlRyYZVw/aGoGR6GlU81D/ghwck+5qecFBV6jmkAfxiGF/FoN+GEGLXvqyAEmhillTO8uQCyY+KfMAwom1XG1hHrQwF6cB29NaTkMnBFI97WExRu9dxYm4OIYjjzAI6Ygq3OlzNQhh4YKfWDY8i8YpGIEXTotoI765lVmf9RjpmTsH3bE5AwVj9XUL574MQD45ZjOpymCVN+XKGpc46TU5dN6wTAwbtuLNKTaFuHytIsnk0zJz2JJkq34jvmxECHYemQg1zhFnSsSsnYz4I77nrw4a+sApUalacylShSqdWDzJzW0w1hg2eO9eYIQ+/Ed8NIARGHFOVKqo7h8k0uq5pZKQm2MIoqIpk6JxOGWEF9gAYtjG1OEA9JnW+Qf5uECHoVUzlwoJPsL+IP59o6obwfd07mLXiPQCc5kwD8pmT5kr26mvGjSAkPB2vMqqZrTpQstLsBlpGwnstaIoXMPUxXq5MZ5oK2pN1t+d6dxs3hZAvvakDSCsYo3H2Gp2WpmJXrY3YwPKrqj4ZN9Fhacwn8BFMl0c3Qz4+bg4hDG86w1v6FNUadNooQl6j120xy+Qpb4Y5b4aJNp5z40lvbdLtNVCZVBrzliVD+Kdao+nNwSM3jJAgJYeSqTEQSpn1e23hStaq7XpnPOyPWhMcrVl/2O3U2w2hJ2EZhq6pGgDadLvtG4VHbh4hjmpvJJm6wvB6MxaMAEttNeVNHO+wga2NKbIyU3TT7de/IjjaOr4HQhiOPx1OmKxj+lfRVVmlbsBph6M/a00Cl2qyquN2jaHKbNJtfg90OL4TQj4q1WlnFlA1ksIw5c3/DxrG0FRTp0DjqN3h9xnfE6EYlcNqs9cZziYuFQABnhRMZsNOvVk9vGmpWx3fH2FyOM73x5Qc/w9iIoNF9e9FgQAAAABJRU5ErkJggg==;" parent="1" vertex="1">
          <mxGeometry x="1030" y="162" width="70" height="70" as="geometry" />
        </mxCell>
        <mxCell id="o0Kp-HK46LKLEaYXKzOm-18" value="" style="endArrow=classic;html=1;rounded=0;entryX=-0.008;entryY=0.107;entryDx=0;entryDy=0;entryPerimeter=0;" parent="1" source="o0Kp-HK46LKLEaYXKzOm-1" target="o0Kp-HK46LKLEaYXKzOm-45" edge="1">
          <mxGeometry width="50" height="50" relative="1" as="geometry">
            <mxPoint x="510" y="201.625" as="sourcePoint" />
            <mxPoint x="620" y="201" as="targetPoint" />
            <Array as="points">
              <mxPoint x="580" y="201" />
            </Array>
          </mxGeometry>
        </mxCell>
        <mxCell id="o0Kp-HK46LKLEaYXKzOm-41" value="&lt;div&gt;Request&lt;/div&gt;&lt;div&gt;Approval&lt;br&gt;&lt;/div&gt;" style="edgeLabel;html=1;align=center;verticalAlign=middle;resizable=0;points=[];" parent="o0Kp-HK46LKLEaYXKzOm-18" vertex="1" connectable="0">
          <mxGeometry x="-0.1505" y="-1" relative="1" as="geometry">
            <mxPoint x="-7" y="-1" as="offset" />
          </mxGeometry>
        </mxCell>
        <mxCell id="o0Kp-HK46LKLEaYXKzOm-20" value="System ABC" style="rounded=1;whiteSpace=wrap;html=1;" parent="1" vertex="1">
          <mxGeometry x="808.75" y="186.63" width="47.5" height="30" as="geometry" />
        </mxCell>
        <mxCell id="o0Kp-HK46LKLEaYXKzOm-21" value="" style="endArrow=classic;html=1;rounded=0;exitX=0;exitY=0.5;exitDx=0;exitDy=0;entryX=0.994;entryY=0.101;entryDx=0;entryDy=0;entryPerimeter=0;" parent="1" source="o0Kp-HK46LKLEaYXKzOm-16" target="o0Kp-HK46LKLEaYXKzOm-45" edge="1">
          <mxGeometry width="50" height="50" relative="1" as="geometry">
            <mxPoint x="1031.0500000000002" y="202.40999999999997" as="sourcePoint" />
            <mxPoint x="940" y="201" as="targetPoint" />
          </mxGeometry>
        </mxCell>
        <mxCell id="o0Kp-HK46LKLEaYXKzOm-42" value="&lt;div&gt;Sanctions&lt;/div&gt;&lt;div&gt;List&lt;br&gt;&lt;/div&gt;" style="edgeLabel;html=1;align=center;verticalAlign=middle;resizable=0;points=[];" parent="o0Kp-HK46LKLEaYXKzOm-21" vertex="1" connectable="0">
          <mxGeometry x="-0.1985" y="3" relative="1" as="geometry">
            <mxPoint x="-4" y="-3" as="offset" />
          </mxGeometry>
        </mxCell>
        <mxCell id="o0Kp-HK46LKLEaYXKzOm-22" value="" style="verticalLabelPosition=bottom;html=1;verticalAlign=top;align=center;strokeColor=none;fillColor=#00BEF2;shape=mxgraph.azure.computer;pointerEvents=1;" parent="1" vertex="1">
          <mxGeometry x="645" y="440" width="105" height="101" as="geometry" />
        </mxCell>
        <mxCell id="o0Kp-HK46LKLEaYXKzOm-23" value="" style="sketch=0;outlineConnect=0;fontColor=#232F3E;gradientColor=none;fillColor=#232F3D;strokeColor=none;dashed=0;verticalLabelPosition=bottom;verticalAlign=top;align=center;html=1;fontSize=12;fontStyle=0;aspect=fixed;pointerEvents=1;shape=mxgraph.aws4.document;" parent="1" vertex="1">
          <mxGeometry x="814.41" y="457.88" width="36.18" height="49.5" as="geometry" />
        </mxCell>
        <mxCell id="o0Kp-HK46LKLEaYXKzOm-24" value="" style="verticalLabelPosition=bottom;html=1;verticalAlign=top;align=center;strokeColor=none;fillColor=#00BEF2;shape=mxgraph.azure.computer;pointerEvents=1;" parent="1" vertex="1">
          <mxGeometry x="780" y="440" width="105" height="101" as="geometry" />
        </mxCell>
        <mxCell id="o0Kp-HK46LKLEaYXKzOm-26" value="System ABC" style="rounded=1;whiteSpace=wrap;html=1;" parent="1" vertex="1">
          <mxGeometry x="673.75" y="467.63" width="47.5" height="30" as="geometry" />
        </mxCell>
        <mxCell id="o0Kp-HK46LKLEaYXKzOm-27" value="" style="shape=actor;whiteSpace=wrap;html=1;" parent="1" vertex="1">
          <mxGeometry x="745" y="580" width="40" height="60" as="geometry" />
        </mxCell>
        <mxCell id="o0Kp-HK46LKLEaYXKzOm-28" value="&lt;div&gt;&lt;b&gt;Operations&lt;/b&gt;&lt;/div&gt;&lt;div&gt;&lt;b&gt;(Checker)&lt;br&gt;&lt;/b&gt;&lt;/div&gt;" style="text;html=1;align=center;verticalAlign=middle;whiteSpace=wrap;rounded=0;" parent="1" vertex="1">
          <mxGeometry x="735" y="640" width="60" height="30" as="geometry" />
        </mxCell>
        <mxCell id="o0Kp-HK46LKLEaYXKzOm-29" value="" style="endArrow=classic;startArrow=classic;html=1;rounded=0;entryX=0.5;entryY=1;entryDx=0;entryDy=0;entryPerimeter=0;exitX=0.1;exitY=0.5;exitDx=0;exitDy=0;exitPerimeter=0;" parent="1" source="o0Kp-HK46LKLEaYXKzOm-27" target="o0Kp-HK46LKLEaYXKzOm-22" edge="1">
          <mxGeometry width="50" height="50" relative="1" as="geometry">
            <mxPoint x="650" y="520" as="sourcePoint" />
            <mxPoint x="700" y="470" as="targetPoint" />
          </mxGeometry>
        </mxCell>
        <mxCell id="o0Kp-HK46LKLEaYXKzOm-31" value="&lt;div&gt;Validate &amp;amp;&lt;/div&gt;&lt;div&gt;Approve&lt;br&gt;&lt;/div&gt;" style="edgeLabel;html=1;align=center;verticalAlign=middle;resizable=0;points=[];" parent="o0Kp-HK46LKLEaYXKzOm-29" vertex="1" connectable="0">
          <mxGeometry x="0.1196" relative="1" as="geometry">
            <mxPoint as="offset" />
          </mxGeometry>
        </mxCell>
        <mxCell id="o0Kp-HK46LKLEaYXKzOm-30" value="&lt;div&gt;Check&lt;/div&gt;&lt;div&gt;Document&lt;br&gt;&lt;/div&gt;" style="endArrow=classic;startArrow=classic;html=1;rounded=0;entryX=0.454;entryY=1.014;entryDx=0;entryDy=0;entryPerimeter=0;exitX=0.9;exitY=0.5;exitDx=0;exitDy=0;exitPerimeter=0;" parent="1" source="o0Kp-HK46LKLEaYXKzOm-27" target="o0Kp-HK46LKLEaYXKzOm-24" edge="1">
          <mxGeometry width="50" height="50" relative="1" as="geometry">
            <mxPoint x="759" y="620" as="sourcePoint" />
            <mxPoint x="708" y="551" as="targetPoint" />
          </mxGeometry>
        </mxCell>
        <mxCell id="o0Kp-HK46LKLEaYXKzOm-32" value="&lt;div&gt;Operation&lt;/div&gt;&lt;div&gt;(e.g. Loan Origination)&lt;br&gt;&lt;/div&gt;" style="rounded=1;whiteSpace=wrap;html=1;" parent="1" vertex="1">
          <mxGeometry x="48.5" y="164.5" width="120" height="76.75" as="geometry" />
        </mxCell>
        <mxCell id="o0Kp-HK46LKLEaYXKzOm-33" value="" style="endArrow=classic;html=1;rounded=0;exitX=1;exitY=0.5;exitDx=0;exitDy=0;" parent="1" source="o0Kp-HK46LKLEaYXKzOm-32" target="o0Kp-HK46LKLEaYXKzOm-1" edge="1">
          <mxGeometry width="50" height="50" relative="1" as="geometry">
            <mxPoint x="147" y="212" as="sourcePoint" />
            <mxPoint x="210" y="212" as="targetPoint" />
          </mxGeometry>
        </mxCell>
        <mxCell id="o0Kp-HK46LKLEaYXKzOm-34" value="&lt;div&gt;Produce&amp;nbsp;&lt;/div&gt;&lt;div&gt;Document&lt;/div&gt;" style="edgeLabel;html=1;align=center;verticalAlign=middle;resizable=0;points=[];" parent="o0Kp-HK46LKLEaYXKzOm-33" vertex="1" connectable="0">
          <mxGeometry x="0.0944" y="-2" relative="1" as="geometry">
            <mxPoint x="-14" y="-2" as="offset" />
          </mxGeometry>
        </mxCell>
        <mxCell id="o0Kp-HK46LKLEaYXKzOm-39" value="" style="endArrow=classic;html=1;rounded=0;entryX=0.478;entryY=0.968;entryDx=0;entryDy=0;entryPerimeter=0;exitX=-0.003;exitY=0.623;exitDx=0;exitDy=0;exitPerimeter=0;" parent="1" source="o0Kp-HK46LKLEaYXKzOm-45" target="o0Kp-HK46LKLEaYXKzOm-32" edge="1">
          <mxGeometry width="50" height="50" relative="1" as="geometry">
            <mxPoint x="410" y="490" as="sourcePoint" />
            <mxPoint x="450" y="450" as="targetPoint" />
            <Array as="points">
              <mxPoint x="106" y="490" />
            </Array>
          </mxGeometry>
        </mxCell>
        <mxCell id="o0Kp-HK46LKLEaYXKzOm-40" value="&lt;div&gt;Approve / &lt;br&gt;&lt;/div&gt;&lt;div&gt;Reject&lt;br&gt;&lt;/div&gt;" style="edgeLabel;html=1;align=center;verticalAlign=middle;resizable=0;points=[];" parent="o0Kp-HK46LKLEaYXKzOm-39" vertex="1" connectable="0">
          <mxGeometry x="0.4722" y="-2" relative="1" as="geometry">
            <mxPoint x="1" y="-56" as="offset" />
          </mxGeometry>
        </mxCell>
        <mxCell id="o0Kp-HK46LKLEaYXKzOm-43" value="Compliance Screening" style="text;html=1;align=center;verticalAlign=middle;whiteSpace=wrap;rounded=0;fontSize=18;fontColor=#0000CC;" parent="1" vertex="1">
          <mxGeometry x="733" y="100" width="60" height="10" as="geometry" />
        </mxCell>
      </root>
    </mxGraphModel>
  </diagram>
  <diagram id="s6wTHEUapj_0z7hJshij" name="Page-2">
    <mxGraphModel dx="2074" dy="1154" grid="1" gridSize="10" guides="1" tooltips="1" connect="1" arrows="1" fold="1" page="1" pageScale="1" pageWidth="1169" pageHeight="827" math="0" shadow="0">
      <root>
        <mxCell id="0" />
        <mxCell id="1" parent="0" />
        <mxCell id="YHhDtKTW-V6aVAu_5bx1-1" value="" style="rounded=0;whiteSpace=wrap;html=1;strokeColor=none;" vertex="1" parent="1">
          <mxGeometry x="30" y="100" width="1050" height="430" as="geometry" />
        </mxCell>
        <mxCell id="KuCGwt0FQTSP2l75gM48-1" value="OFAC" style="shape=image;verticalLabelPosition=bottom;labelBackgroundColor=default;verticalAlign=top;aspect=fixed;imageAspect=0;image=data:image/png,iVBORw0KGgoAAAANSUhEUgAAAOEAAADhCAMAAAAJbSJIAAABO1BMVEUAWpz////n1Gg2mNQAWJsATZYAVpoAVJkAT5cAUZgAUJcAU5kAS5UASpXp1Wbp1Wfs1mMAUp4tltd7t+Dy9/oilNmBr68AXZ4AUJ/v12AAVJ7g0WTv9fmcyvDR3urp8Pbh6vKiu9TKyYLE1OStw9k/d6y8zuCDpMas0/Ti6vJulb3X4u2w0+xlrdyQrctXhrQmaqVmkLrf0W1ThLN7n8M2cqkhZ6NCm87TzXfMynuMsqrQ5/Wnv9ZIfbCOrMsAQpGkq3yXtqWuvpVipcCuxKd1j4m3wo2FmIXVym19rbPPy3tKnssAkN6/xYeTtaZModiws3gjfbs1bZWdp35af48vapZipMFxqbmovJiRn4Jgg41FdZJ9lIa+1MuFuMy21OGcxNJ5tdR5tuj521QAOI28uHaKwevD3fVcgY5uRHOdAAAgAElEQVR4nM19C3vaxra2xoxGd5CxiEJCEIRbjGwuBuQkBpx7nbipu9M2SZuefU73Pk3O//8F31ozEkhCXJw4+/nmeVo7IMO8s+5r1qyRyH9wOJWK53mVivOf/FLpu3+D57fr8+5s4lJFMcRQFBZMRt15ve173/37vydCr10fTlzDVDVDYYxKFIYkiR+UMcXQVdNwJ91643vi/E4InUZvFKiypjCJgwJYDCmo4eBURJTiHUWT1WDUa3wn3v0eCBudliFrDAEArQxVVpkUtEbd8bzX69Xrvd680+23AokBNEMRdAWYxmxe/Q6zuWmEh/WRKvNZc2zyYNhr+rVs8jggor3uREWcYjFko9+8aY69UYS13sDSkXZUAQnrz9s1fLXiN+qcaK5hiWFIqGg69XaVw/EavaFkqQbDP9StSe9GQd4cQq8+ANYEWsAkg24TwcHUuwNgRa5qQsGTFmKpaEBjNRj22of4bHs8sVQFl0eTJ9PKjc3rphC2+4bOaSCz/tTjqmYmaaomxGz9oFQxVJVO5m3AVGkOXZmDVI1+44ZmdiMIvV7AJ6aYbhcn1uhMmIxMt/OghqoNxm2Q12pnYCpoTeSgdyOEvAGEftfQAB5TKcLzpn0mJymHFgFsX/wlUKOynlwCoKaqtXrA3X7HVdF86kq39v8BwsbMQvIZ8qwNbFZvmbqSpI2sG26r25tWBwuIVJ7Vq9XpSE5zMGWaNZgDrMZQ1QGjYfa/2YB8I8LGxGRIPm0OstdsWdpyzgzEi856S8dsFNGMuVVSmU5rpOriSzQQejR617AG9Qpx6q4MLyrW7BsxfhNCwIfSZ02aID9DU11Ok5ps2PaZ0UOV45HGuaV5PSOEEDikban6eZc4Lkqc74R6NFoeoOQIOKIxQvZg34jxGxD6M47PHMEEmgM5wZwT4LQ2lZQxMeTzNqmaktFtauJNuUYOVfzFahLfhIetHl+uTktdfgZT3Z5Dal3ZAIxy/xvk8asRVro4H0Xu+6Qyl0I1Qim4JfjTbU3IXJeUoS9L+pQ4Ftc3/BmlS0iHk5PNCBkC3TVA6HJF2o0pH6oZoGi8sYYY1fFXe61fi7DOAB+TRz7MQdGiSSmtnj+XuctmVqtAqGDGJGNOCMpnyIMqKNxA+KwusCs8JFeJbymqPCX9hHqF5YL183ApqSZN/6MIqwMVNWKrit9vRNpeUn3+pouvKB2C00U9NCQkpkcVj1QUgVABPgQ2lRxS13AFSARQiTQWM0fA030UB7nl/+cQdi20Vm6bOGPTCPnTHABh2PkErfQQpSvgHIhvtQjpx6QUYOniDeYQz+LMCu9D1NhUQ4DjqRSpLcXqe6Q6kQGt1fkPIWwwAxcXhKenhvgUq9UgbSSHzJmpDcGC5YUTBqxkbCx5zyEgnBGXwq+gcMnAMluerIdPqA7qLjPEyCwQwiZ+qeZ+hVa9PsIusAw1+xXSdvWQ2SwQF79NWqha+2QIBrAyktVmJaJvhfS0BUKttqAhEBfkUEZHz2k4zRAgQPa6oEjbLSukvKHVYZH4946/O0IuZAYwaI3bCvx6fVgDyyhbc24OXNIBKwCqyOyTiaCC7HGFEg4d3hWvGx3UpSiN01bdi5ga1qAZaLoFBqLal4XESuoAtNEANLY+uK40XhPhHPwMKneRQSPJ6njECxCty2cjV6umPAQ2qw3IXPAmEKkqLxCyAfABNymWT2qqsBm66oYKlkOk/NUmvN8NVTAzuw6Zq2g46t8RoTODr1BoWywn8qektdu+UJVylet6sA0aVVzOeSEutQkKZWkH9DnxAARDQz8RxgRcm8DXpdhA1tUsroWVkOIufq8GC9z/bgirEmg8eeSQjmBQqo5hgjIokiZAsaZVU5AI2E0IjOPyx87r4JROlrMHaJXxBAJAZwYfaDW4yaBaHCCbAJ/rktX2TaXbFx46NYcojSDr7nVcnGsgrIONYGadHA7EamtBrY3LK4ML6eoWQJrgTDShQ7XAF0aCgpolTq3hLp1yuYUOjFdn8OczwNJUpdQw4TMlNLBdhc6cuilEwqAN0gA1zfDtm0fYtcTqIVD+dWPicFry9e6A7qs1VKAy6FCTL7k1Fwpm0B1guiIRHqomvMQVEyqORuJNSRgY5AvaB5iwqN4stC9gEp2Wyn/eNEJnBoRDCehHQZ0Mc+uokcw4PUk2fC3oKODCDERwq86EqtmYyVCVybzhuakX60QoYgyEwWoSZxoqVX3ikTGssbqzMO6I0AtgrvKc+MHCdKPWF94Y6r25hS+xoSczDcKEMYfIDGn7QG89TUIA1TDDf4CckqEyZlR4cgprA1eD/E929MV3Q+hTBkEbfHQswjVQl/h8cmqVONy6Gx0HZIx4zVl6zpjGD1PemPRW2DLzJklS6mkMNmah8jXANDVNientOs/kga6bg1VWQGJ2SzruhLAKn81AYjpWbBpAOfDQ6iggrC/8MmbVHDaeDyw9PnvMGmosmA3HmPGuY9K7M5wNqKGqmpKRrjIU8NqqZoQdGIg/ZNRqE6GR5CGpDEDf0J2M/y4I20AoJaiACPLvjNS6QrrgJrZQzZkY1BrWCKJ5SYlnJDTZCrq9Ri0rawb6td4dWLKuJEhozIdNsnBwTODRGWd2q4qOkqAxcCjoBabt4qbugBA9aq1FnAn/Ii2ohxJheVP46woCxqh23AXnbGAusr5Ms9xhnS9zrTqdd2cDyQxz3iYLWsNOvcHNWq3ZDaxY+opizsALuUWDDyZTZE8dtGej0RDLy6RDMpSBYXdIqm5H2IRJ6yPiiawRt+QdnrJQG/55FymMaJFITXeRqWGqNqojAB/IpGG+TWGJBCNlig7MGwx7VYengqXIBYW4etImPW4+qUvI4cxxRrAmsBYm2AmFrwUzqmQsCzX+rQjbAFAdcl2DExN7YLU++KdGz+Gmd6gzbQDmwo1SGUxmQzTJ1XmL4gbbelsBQDVZmfAMRmPMk2tifYJpgFYGAcxU1iRT5NEW+EpKvcuFkaptcJJFxuDbELYtDrCqhdFsV+0SBNkYqAoGDxAYkEm/43VoqF2opmKezGn23Sg63jJwz0mZQXBBGkMWpolR2JWeOxeqTO47FXT28Y2BMxbCKDdJDxl1myxuQYi+M2CqCvKAw6RIZpOMUU/XNYzilRH86s2iVAZT3bkH8EaaqmTCWYtSN1s8SzpYcLpSx4/m5gh4hNS49FPVA7eY/4klIBpbnNTNCH1NUFAWH+53UebUin+O+T9n6NQ16dwHKxmiYfKgjZlTVd3AmetR6la/LZLo4gV1AgaK62/0nyZCDyBX9pYQwVLSzXZxI0IPhE/rhxSkmGeag+/GWqR37nLftyErHdIPTZdI3dYDS/kKeCHZZIpZ0mGIETOpmClX5yGPQrCBiWIQS6HNm7gCmGH+SoROAOpkxgmJkuGTcb+GMaDaAxNlzoA7KqbScaPZAD5nrulfDU8MTe7WlhjVVl9RVXDtfb6M1hQFR58JBQ4UbRJQPMrkaxFC9AbR3iHnOArquaUqQneYfoXBeo8diMtDfPIEwr2xuosjumWAmzoEjCNBJqYEXscLHWDMfvnAIcaENASjgLLta8hnX4Wwq6ML7AjDBO5DY+Gz0QF3FTW3HogXDGlKnI6xm+7cPhQdvIdGINSbMvNCHlUxZOIso3ejzI/uo1eFbHx9hOAhUaVGBryIgOvkxiLZoo9J93wCyy0Aq+AG1CVtZaZfPaihoegZwrprdR6mgU4nnueDajHA659ExrfiBJTL53URVi3OAyP+JQAQI/UlFeGdRiUkoD6oiiT4TQ6qu01wZ4QSl1uVvszTMwE99AKzrnj9SB7A2TlU+HbPNRE6IrgecyvLquDoon9RjSCqyCYiewKhPMT/19nS3hGjNauAMIhA02w30V2cKGj+nIbhLq0t6EJYecwKXA8haBnweuscEQV9agk3PzT9rO8MhSYwIKhq7xTpRhPf/VEFlrgSRkzcDs4UnjOpnic+BGQEzKIxvB7CuYpqtBoG30af6zJ0QqsirggCvogUQjW+S7HzYMF1VkNteWTOwxU0DPVzCdPFvpx6DDetlHA/YVeESCrVcxbpMb3DMy6cihpFkglSqtNwp2nXcfuHu+/uXON5pjRJg1skCgSFgAm91WQVhPBFIPJZ475lInTgeSDYTAm/BQLgMD/PqTjpiTcU4NC6eR0Lcfulnb/7af8afyFZXeJNNA6xR8YmY1bM4VXcAfflXEynsGzDn4mwa2B6ZM7Tooo07C7JpGLBBRnyL9FaDl/VnQe9/Wd5b6+Q/+P2dSDqrUr4NfKYTAet+ngBUe1XhGcOYU5dFfZyJ4RtC3Ww0Js6BtlkvMi4I6OO+L9ABL1BnEPZ/p2N9GT7TwAgjPLvt7eo3kS1EaPVMEOEUk8arcUOzpTUyJRrAXOKHGdmRVJZCBVuAHmSUws1VCuauzEKAZod4scnQm9/evMLXY+R3v7twt4Tw37z2yZOBVq/ux3PZcnN0NdW+9WWufhS2tLOwfEXuzweOJIsy2RkIOxyL4hzIvi0TQlML9+F5uvpVvoIEIWiHRfBO+4TO2/v/eDuZ5KH3mG/2/m9aOTzP+yvU1D0jvt32X4SxBYLYwzhaytq/OMpd2bcMPHeNnHTZweEVRP9Tr6hCy5R45zi3km4s2AMKGdMKtcX2X0OfP/lXU4g++4v726vuKdsn/55Yu/Fh33x6+pzHN8d/lGwWHdia2COSUPLeFyRGqFNg4AHTcaqPl1FCNpJ9oWhANWJ3GF0SFfWsNC1G/rhaJyWVpDuv3u0mL+df/Tyt/07BuPV3BRMy77x7pcTu7CXHHn70a/GnRTBYSleRrxsX/wR4weAWF1ZESqPMAM2546XWnMUnn7fhhB0kjYWW5hcN1VdRQXXwsMBSo2vK8h1bwnwjvtLjAFx7vmHv7x8F0gM5DR49/LJhb2kX6EQe+7i99/u7PO1yFqKgv33u/0FKLlLGinfl/LN0mld5GwhMJ/KmL3ZgtDDogixZUtHFawNdEbqIobmGW70V5cA2e2XKQbkk7fL9snFxcUJ/IyTr3BxEv+XbV88efkpwBMKwac/n1yUk6TO20/chX8ArnAjnnMX+3dkaJk1j687SM6E8X2cjQiBSLAMAbejk4lu4Sr5/rA7Ho87nbkwS/Mli9Lb7x6V0/iW9Eqz5l7+1ZvkawASFiGfL8NK5FceR3G8HYkjmMN2CBEpa3WJKCtQhmGwqDngPutpo5hCCD4fpmHCMhHAaWLMUlUgujcUkYwFC9mM1vIO+6WcX5nWhmE/fXut5+EvTv6IrKfcweQa5y5XNzAi7KG2A8UvigLB+e4qmIzbhHAG7prvxDcsDeQFZyTTML8EwUo1NBOgQVcZdMt8b3285l8AlR99Cq1jFM4Zc79bwSQmN1wz0sedWXy/6nCSbkAIUTwsxDBhqoQ894xmh8vzgHjagkFXNOS2UX7++LoIuTgK64h2axSFAKQtnGXqggEb8IIdOkFFKfsbEA4oNTw/Ic9hiAQMLHYIa2HEcYf+kr8mwyHC0w9rxXbDAHE0xL5QjRelUKkS5oUlbvep7gSheQsoG61H2DDR9o1WstVGcMhTizxE5IvI9v+4LoPiKJzkLr8G4cI6QijvowwpIxKPSlXX4T4JvA0/LX8twgmVmFO10gDhAwei9g4sJOpTuv/b3+VrMmgBNWX+TfF0D/8wQ21u+/vyI3RWIRhv8vq5em+5387z/5yIIFEDpvTXIQQSanPCXffoGAgTRQZWW+z1Tri+vmP8bl+HQQtoHi9eXeT38m9LuYsCuKX382gdrocxXwbrSOVe6DJHnKYpvMRYOK4QKcJPq7YGIVa7OrxCQKv7jXZv3O1PXM0yZasr/txEB166DoNycCdvX/zXWYX89dC2PxZL9/P2yT8fHPz1+NVDtITXIaad/8GgoEjCZA8SUTN6fCtsMiQ8GBZEHGYjBA0DUsgrBOLuneM3qoKwMg/C6JPdTKAAd//jf/33GSj2L58f3CveL98qFl+V3x4QzzkrlYqnH57eP8k29WtG+RHD0FXszPRUTekgvupMZmGxJxARfsqHmQiHCpUrYYUABr7e0v/hhAXYdSwNZu8eboMI6Mp3Hz776X/+G/ildnRwVSzmirlc8e2HYvHpx3+RB6UcH8ViKXd569nDvV2JWfjEMP0wRtug1uZzdLwr1XMFt/lFOYg6hXDK6GQh9DSqdBeKFJy8mRZMwMTW2xW+s0U1zxOm3pAu0hCX00Nw+YtXP/3z6As4F2cPjgFGLj5Oi1f3Eq8AzNPnT9+egGhuW7nyr+imglVEiyUYzR8FZGwxfRDubYA6retYpruKcK6BhNYW7jt8zEDRnJ6pnde5FOKOU1TR+ikxFQgmFpDtu2+ffvjr3plDKl8+HxdT6NYOQFm8fP0RJHPxyba94k/YP9wWNl4wlVkl3tACX47UZ2MnrBNEm2hRdZqB0KXgkcaqlWWvYmIlpaR0cI9A7MaE4/aTmK7Jv/qfg9KJmFn51b8eCMbMlXYEl4CZe/8w/OTy69fPHiYh2n+HKSzwrlGfAhEpShZxlsqUR1FjI5Z3WyCE99U2icXRQO6qww9GcI/UqpJYTP9bPo7w7Kh4CYFdIV9+dYWMuTPpMlCe8gi4UH4K0pry8O4uMqUQMKHdN6tdhiIXYFDYiMJl2a+ZsaTUAiHqUORgDo7X2oHf4CxSMWBFx7HNpf2/lxALJ/fOisXTVyd7D18XnS+l4voR0WrD+8Xcq3K5nH98RRwwLAkSvlzEijA1zHXSQUBlB3hLDYaThXyBJmoxpZtGCHrGmIeFyHrQn2HtBXgwXZVy0FT2avHdXeNlbHntx1d8aqfFz+QMVMktMR6L8RMfT/m4PMgt388Yp3wBLh/furxHaleXCRIWHsZyU6ZQNhRdFJx1WEgsSmJkNBjMSSEE6qk1sZXMY4naBBjdbJKW20b1YowTRyaAhWPfDt6mGIQ8AKvwE1i47FH+QBDhv9e+/5OgcvH4wdFxsfQqgdD+IxbyQIhT5+bPcGL1tzTg5+PUJgiU2kwhhKgCJFSJAOL2Gv7uE4cnEq1Kaj/kTlwL2G+FfTtGo5c7WWvZyv9EhMW9dQ8UTiL5RfuZjEIKJ4n6DrnJPRsuhcvX3QqH3YJIeBFhhAhh/qBgNaEzvfkcyy4Mrm0cfFEZLyxFJIhP4jJSflaKplZ6u96lK//FEa53GOxX0efkiu+TxsL+JZFEhplNVUlskC2k05RETYrlwYtmJYFwbgC9ebZDbTqmZpzXBfHNQ65NZaea2kK782cCSPltDr2WYunyzQafNUS4IZHBPwdH6UPKGtqfkplH4EJOy3a4967IdNwgQlcaPSBsZBKliEmBqtxnp2SOp5qYOObCmmHpYTpoZJ9SGd6915evc69fbXRLygcc4bMNi2CfPIZ1Kp0+W4nOEptq3OwjGhoAk1FFdseiwO1QF1LaUSLfWiCsWbgm6NeBW17rBKYhhUW63EKotVp6F5QGqUi2fOuk/NPF5qAjRPh001OF8t7zk7c/pePkwkV6FwB8F86RfssSJ8ix+n8kKhgsVJqWE0NY16gqmJRnQEij36thGktUy8BqdNNxPzXSi/9hr/zi/mbHsvwvBxG+3hjmF948Lpc/pBch/ya9sQr6BCXI6FRC4z5tqbpV44pRsGk7hnDEAAUyKRC9KcLHRksFHcOzT3LDWd3IvnORkpOnHz7mtmQo8gLh8y2PPd+7fyuNEKxhegaWj4dtsQQVqTchXTDYRs/jkewE7EJo9DlCR6ZanZtQpVM/t1p1UUTaC8ZVdcHxaYSPEvQqFE7BrdwkYfDM3X8R1CNbUjXly2Lp/QrCi5U9LUCAkgTuZH1m6WYblSH4o3wjUPZAAblLhPAvsya0JSYHwiJBHGjmwdcZrG6Zxf02nNbT3GnucW6LHD53vCvg0o1P2Wh5VtaqcLFyaINq3Nk2Og7WuoBb6RpMOhf2G7SKSk1/gXBsAJ3mcVFWVGMM7F1B/1b2spJTSYSFk9Kzy+Ld0uZ8b+Hk9EuutMElwGfypx9yl69P0xHxyWqdCga73DIiKalEGuOh2ScVZFPAO8JaqgjhBGNfroQMWY+AGvKgMtVDDyED4c8Jk//6Mn9azD/NrW5VxEd+79nTjycb1ZH98ceL3OlJKa1w77orCJmYmemD6aa0h5WtXdIUm+AgWZrIuSFCoBTYed77oV4VqW1kVWrW8GCILiR0BWEiRHzz431AeHdvCxH5RszGNSjs5T78u3hqPy2lKJ0PVifBpQ09N40q42rXlZXADUuATN8PBVESYmjxZ3H7vj01sS0J67eZwVOSZqWRVXCRoGH5PTiRgBCkca3TudsAaA/LxdO9vdytpD4qZyDExRd5C1k1kmXXwKGhICJCBCLEUCZjy2pXeyOKBRBdfrI+m0kTcmi/+vEijwgLe8UXX5EKX47C3dzrMiK0n/2YdF/Lv61qu3BuQBennTzKL4GLNmP6NEQ4wwRjS6AJwAXC18eKdcgbAHDjmYHwzpsYwtPH4GQhQvsbiVh+WroolEun4NpcJmOL8rsMhFoF3RQ268x7aTKg6uQWUcJiZ7SG4mBWBY/gDsjwXMGQEKFxhs5CuLT49osS7l4jQhCjjT7ZlgEq+XF5jyPM3/8x4SGlPW8+wCigmleGspHmM/WwofJsDR6ckoHOPMmmckdd6fLMo9LhB35o/KR5bBh3l9Mqgn5BhPA/+8X68I8/vFHTlB8XQcFwhGA8EzF+JkI25JZC9uZW+niA2gSzwSocIR6JF1s3ple3ZE2ecqoBXJU7DpMsJqV0wUPlW6f23p6g4d4WItonzz/srbUWBWEkBML8wx/jZt/+NatQx+VKBEhZaQ4DU42dEuBdK3ArERACjVzuxIKTQCqNXqvWOzcYtXhDGX3qZJ6dYL9FCPMPebohpCHYs9L6GL78Fny7y7U7/+VbXIoFQly52CclkhiLIdcwAAavCxtpec1uoEZtbsBYjhimMiQ8CAeKBxUNi3alvGZnoqj8NdmvZorhMj4sP3+PM44QFvJriZi3f+IhfPFj9tZc4eRHbk5DhIWE2bdfZiEEbWnhxP1zM2hUPJz6OOAHXKiBqmbOEQ4YrAFKntFrjJvR7iI8znjeao0Y/l/45fm3P3IfPEK4noj2xfswR1H6sJe1COXXp/zlECHYxuLS7Nt/ZiFUxJaTO2SSWvf/N+hio7eKsHyVporJGgmT4Vwq8bBrS1dNdTYXvShRGiGoGmXx/zKdWD4V4R4iFAJm537KmH+h/GyZJy6e3l/lVBC8VwmEwA5Ls2//kFV5S4V8hU1iTENUx/BkjVz1Zaz+lsihRuXQInBBxX6HqjucEnRKwSPKwgfG4geBAigm1rlwd4HwWdrjwukXXi+STJyMT1f26MofwrCqXAqNKngSC7Nv/55ZW6wvGoaAaXD7QEFnLMrqdd55xAGEVZNqXvrMP2XnDcwtAnVXQ0OO8HdbUC7KSSwR7pVzj9MUKj86TSX6S+9T+6zg24YpqgXCPftyES2vQahWfXGcALvdoIS13VCqkDhUPQSEYCzoInSiiiqrvFec1sbNKtWvZh+kCB1v+3Euyv+C5x0ldp8Vk0TMl1+sbmQUc28TCqf84b34d4Ej5MNemn37l2waTtF409ZI51V43qJdAHLthJlVQFjXgFvDymJmjBued9jEDh86z9M4GeE9jtvcLS08LH34+IKPjy9Oc69ePROjmCAiGMHSCkAk4+N4yen90n1b4AKEJ9GfRpy7Zz/JLLoFzwsiH2VYG/k83xQ7TzyB+B1zjiLvJhJryiSqmGpEEXXYlmuVhm8EQrHNUsJRzJWikSvGsjiLHCgfn2O/l94vk3Pl58XLUzEui7nTxYhYN/9zJkLuYYfJGn+S6D5BYe7gjkp4DrQrnOv4uZPwSN4kuV0RWzsBQeTzi2eVs9hwHpQ+LIiTLz+OE7DoXMW23nBXXyxF4SRXPPgcjgMx+H5P5LqtQQjYeBTsEN5MIj4sICnYQcyLhuaQnxqeu5bJWyBy7sQeF5mV25SGkgbBAMzjIL6ndkVyzxfOp31xGSPa1dUx+XLw4CpGxlshpwKX3iPOUWwQ/li0u5z/O7vC3+IGW/Y9N223TVCzQDwJIAApLUHCSsClj2HrG437AGSle2O4dAvuugUQiwcxKh19fh4lWRJGEMYDzh/3EgrnMtz1BXY4iy1U6d4Z/OVyFyT/JhuhWUE7oDbmK/rCrDXQ5EsQJetNh8cg47B7gcTPMiJ7htgzEC5T3kkuBDp9Xmw52HtJI5grXoHBStYpgIyGGXz7bXyhcjy1utxgKzzMLu8XbiUbTTRx/FNRowZk3ORPACGjarsmyoS8JRwQUzSHbS8bIXu3VJblj3E6FXMLr7N8/zJtJIpYSZN+sfRahBv2m5jRPMKtutg+VuEi+zSR3DhEhN3xuNNrYVeXZjs8HaI2Dk3gS0QoN8JwKdaRSz7EyCJ8JwPhr/HA5uHzqCyhWPrwsBxx6NM48CP+4/gslzvj8hVn1SjcyO99WNY3FOOaFhFmqzwgAgigMQVnpj3BmjC0BHy7Gt8BRSSBwTRF/CD7bStqJA4I0QlYF1lIxh9xhyRfvv+am4rcrUeRM2afvI9zaMn5jJMX2+H4v9pBnPIlQXgIr96X8HWssXmW8OsyUsJ86NMKhHdYxm6plOcP501RM8zdNkok+L95yLNp5mFt2G8NeE9q0+JlGPJhuj4+HKntQ8BYvriPFVz5iICv4kbw4N49Uvlydhz9G3Vq7fPRcQziB3FgI19++PTD+/fPH78tp9z3k6ycJsqWQ/H/2LqJotGYyedNTw/foQqRPI4QceiLij7H86vczKjeOoS/r4QPhfwyTZ3P30qomKsz/NjjBeYD/jVHCQmNwo08lvdnlEedZCbEMPp1kdnQuunAo1MZ0zBIb63nSBwhhBYcBzWSJeC8s6jXXoPwl035pkJtYIgAABnKSURBVPLDtIopAcSjOOj0v3N8X3FTNvzuRoS4q4bderCCWe/x4wlg6twkQloZDVqzfrfTqzfbPo8LjXUIkzn9FDGTyjUUw7MvJI6m5tSclYeebyrrzP+WiVDpIEK1WrUUPNDd0yWmiqyTQOgsEUpuzWLYKl3RdF09P8Qcxloa3n60FqENCjE27Qccx9WXYvEgZu2ualfFI/7v4oOYE5cKN5Kfm5ESXiAEB7w5ahLsjMpmNeFqLmhoRAhpXB1rzcEmhPsX62ZSvp+MBEkuLHVKjIVOzV2ReI1YItxIfXBGSnjBpVGB/shocUXicoRCDisLhMnBPe91mobSNQjzwk+NxvHxPfLlwdFVbt04Pj4iRw9iKidpBBM0zEqYCkrxn1OH+DM0jdiriSMIEYI9lA8z914kNCDZ71D3JHsWFwkjmLvHF/Y4jWs5jviKxx9Yhhu7IRTWAvfKTJn3KKKxdxjaQ/RpqmvsumSusfh0kMVLKSPIGREM1MGGQkUIRAi5Sj5QupV5kMP+NTNSBYu/2i0mStQo6NOgX7rONwPXrpadLX2XkdTNF26thvLkLOmHFlN25Ip8IUepJViEG0mEmSlhSW57onEUuNy6IQ4XuLwXGnhtKvdLXfC8vZVyGbEsanPlHYHw0+oU7DeJSFAozgMwejExLIJ3loj4c/celK4Slp8/VlwtGFqTEoYI4pAXoRvjZnPaG05cxbT6PLkEnreILQZUnzqpCGIwUHhnynXRU9ItFRyaNILHNU5PZMCYNbh8U05lbZYPxCOnRbgRR/hnZnAh17gxX7Y09fyGqFZA4ePx4YzFcAjS0RnWmhhhQ9kshC9TCFNGsAgq5OBzItLNLeJ5WIyMCumil9C4xdM3KUHITglLFk+YYkmwv7w8ihdzYwTMY/yuYnRIpI4MCVvFyYrV5TUNyqLbcXKk3dIU613VMnQoFv9GgeOKV1csXZGj44M4yFJqd2NNwtTEQAKYsSGbpmkF/U69URGJNcuZ6jxPIzqO8rrLpk9awag79WfYDTncLM1EmHBLox2X2IQ/A8AUAeMuWd5OKSVuNciX5F98SDhx2QhBlUCIAEZRBPZUAfpYwkJiBofn2uoabfH9bCxddw3fIc4Qu3HyfUOanU1MVJfaD9+vMB0ERyQhWCm3Om1YiscVsqpTT9/GODU7JQxchpF9O24NVJ9vCLrArDxf2lapyxmXGmSsUVWtTLF+Xa2MFXip0szKCN9elikUys/icxWcWTw6Kh18iamY05U9w1SauITHT1YWKr4u2SlhQzjejbjdDm8Dww1EnvP2zWgnW+XaRez9YsTFs3R+ltt2e1EDndpxKXriZ9KIZ2hG7uDFrUvl6kqkN67itI/xdnbCVHR+15NWjTMsKJkB03DfAmKp0MFWG/jD6NVk4ObzNi4LGJIsZbof7UuU3yT8bHBRPl8dp9zQTOvG/zi2XXPM/5r/Vktq5YhT1yDkXhfwal9eKAzGQwhQMlTsPQGVZbGBo/VqlmJYM0L7nWYV+6WH2wLpQaWTkENfJBTGkbOqLzb40nv5/Ou0F1Qsgp05+Bz/+zDcyEwJU02krq0G6Q0sfksfNca88gS8FY3x/UOwB0ApldPVGQzn7cUZU+z1O8lSpjS4myFKmBjGfG/ytdJPGw7zgcJJBstZdqZ4yZco/ygLYbipRHkPpVqjPu4PqM8R4qao2AMmw8ggxpv0eNUmNyFWVm0pPxS06mdjKJ/SiJmbvfGRSsnlivdW7ExoSQsXGQiVcXTfiU5HvaYv6vP5ToQszCEirGvR5pPMs1DtercV4AU4eOsLJo5XEYJbmrfjue5Q9I6dq2MvjvjD1uOmeftpYp1W7Az/HAg3MhGqIl0fYOs4vKtPcwf9pjgEjYYurMUA9cLEFqnp1SeuzC9LA2s/Goq8/urnsl9tO+mWhIr+OIYWZWpN0UVyJLICMTsTF0YIN8onGfZQ5WlCtd2NqRmF12zzbbewngZiDFkoU9mfxO4jGvlCS81WBNF4mdhxwe2mqwxP8/LhloLuiFPvxpzaRcqxePY58R3P9lYLe0AMgTRUqYzMRZBI3U6YadMoFTVRWNbe4DcwseFiL40qoFPxvik1QxCNPxM68OjMIw6e6Upx1s6HtcFryPDFndrBvRi/lj6sphOxYothwpu0u1rUaln0x4OQEGMngXCEd2uJN1n4jBl0qsJFh/hrRRDZP5LzwXxvyuXamDbLIONFyhf/vOqoFt30PCD8rVi8zBRHtRNY/O4P/hza+Kg2EZxzsVcMo8UQ3mAuLAY3pp3V6kv2jxQ/ruQqNqc+M0ZScXEmBTcu+dIKQqrwzKjq1cO7PWu9lqnxMjUstFH4+TVRIwwuKd/MkL3AmvT88OkhNpsAE9JZOU6SQnhMjo9qCSPx4rrtBETNWxJhLWU2VhDiSSYGNrt6rmp4Uw2Oiqh2Zlgxa9ZChOCYmbwCDjc4xEl2rzeRNbM+ouEJm80IP18VizFfrXi5xQhmD/skEUVjzvhz4mtWEIYnmVDzK5ZV63X46Rlu77HgjS7qvAEteDXc5osD4J2mz9tLGosTNmsQpuMdwaGvC9dveiLI+DHui6+kkVeYVBMnmaiiKsO2Q2aqFXRrws2UD6vyslYf2FAZhja/4swDS50Jt0AZu1ImmwaCVlckfdh+g5+9yyi/Wdk1RhYJNWpaHSgjnr5XZIRHRM92q8k5jpuR2HkL4Fwmms7pTd6GTXZEeV97zM8z1NIda1xc48+fv5CzL7v72buMleAfExxfzrgtKabtstzGeigmmmBU69hTiWkiZAct2qKiAYg42aVSs1oTngA/cKhPfZMaplTl5xnGK0af4jdyhV5LAfzp2iomOVa83eMHD8DWeiCR/0gjFOexeG/cjmSBUexNZtWwi0vbMWns3BPps+ggt2gHBfLoBvzMIk9/rFzmwwWxmFuJArb52dsIWMaWX6mIhadwsJLqHykuhXgB02QGaeD1ktH2p+j/gRIaP7sGa4Hn2Xi/wEmLUUMOnLA7yFARKitLEI/JkRfPPEQ71V+JL//28YcPrz+e2Ingn2e1Kog5XbtkebwCdlwLO39zvVIVv8/AjCTOH3pWeMIGnqtZgdC6xKvP5vx43iR57AsHfvc9cBwfxFTMTn72WoAP/7oSNXGv7KQv/sX7zKONlLHAO+zwoN0kqrQ3Br1mV6Tc+Ekmi8QQYhQsgghqOKF7wC++VaYie5w+YrnwapbFIbv62dmjcHJZu7p89vZxkffoiZUaFb+A0kbDmFpjs1rBopLYVUtUi4r1TSBX1EspRNjTotM/3NOp9SZW2E2fL1d4CjrNpnEVs7ufnTnKH86uLm07X75fLJ6WE+ViUalO6oLkCdeaStaRJY4lajkQIqzJVPWqYVw1Dcz4rUe4JrXDtK5J4Lumn51Bwot/HZV4xXP5p2LpVX41+E8rGlChQEKlnwzQBVzOpLKTQAhsqonNVHBRE1WaASYaQYq7SUlMOG7X9rNXhv3xy5U451Q4yR3w2vh0Jj0phkBCUZPYPl8QkSqSiIQtZ8mksb4YeIid95aqt6i0DDblCqpkq+alsooxIq4tE9mdrPbrs+hwhX15FtaUJn3xFRKq4pbE6kgWF9FLg9EhVxuYW4w0aay3iUHV0HeB0FgeRq6oGjh42BaIOF5DxHV+dgFg7yibhb3yX1+io7/2+7NSeBI17osnmRSgzTV+Lo/wo6P1ZpW3teIkBF8H9A9JIQQPb3HhgDKpemEfFwldO3zV8p20XxNyaFY+ew+T4Y8vT98nmmQU1gwbTOBfD6Ljp4Dwx5NFfepiVzLJpLKPmWo28sJz5xEncm2hAEca4xWEDRPPRquCxQm/3Ek36uFb/BhRPals6CAX87MLdqxnSz6ft/OXn4/5nm9+Me5mjr27r45f3f18ryhOjxTuHhyVltU6UcYr6bIZXa4X2Ghm6Ao2bHOqjfo4bJqM7hlbtodc9onivTI45axqxQA7oYlKxta5h8eBsW9rUhRYcXloorB3+SAx7v14zCtlS1f3No/PYOPB1D84CPsN2s8eHMebC4W+eJKEvBerJAl1oUPU8L+yqpk94VzKXlVkaNIIe3gqQbT7AJ9H1ua811tLZpTfYwF+bPrQuptb+Nn2reJxckRJxauDzSParDrI8SMMhRPQLqV495MCbr8mpVCuk1aMpiheeCyoL+4q5HqmmYEQixSrFa4xzerhGLPH2MtuuW7j9IFg5dPCCJZPc980eAkYks7GiqNSsr8LmMakmmnx3jTLEepIYQDkasWKdxOO9dzrKuC7cBBRr7fEjfB4y2HKO91fbHaXP3x1dy+B8MEBtl9COM+LuVK6g0iyaM+qVVLHmiFs0MNWkbwhiBHrXB7vm2hiSzrRDLlB/L6Z8oewj3kysUgXzTHArRSlv8muXhi/bh7i4WIJvPiw7+ej43vrm3zh0Hsrh0BUcGLGIhNhtiHii/cSjve+HGE7EH7qGxZiuLozqnfSng0L7oZ8mt97ePH0XvENjEf4HwDmM392f8t49OjRi9KtNwcPSmFTF7D4yYPq9s+JDQulFWuNFy01NuQWF5cOSE9ftjJLIaxiDCWsvtxwLGWlB7pVTetT41Nk7cGsvfhSKj+8f9++//ZR+fLo1rPnl6/f2Pnto/ysXP7rKPJpys/Pfox7Q/lUgbfmOVZ6YhgN8z752JfHpWv7l4KCAkMzDJeiMaynY04qiR63sbH/cnkG8sWX4r8f/1i0T0vP/315dgsD9t18mjyGFqWwVwH8mku0eE9WXQIXZhTAwHy5t8K7nCW7Qaf6CAMHH1rhWpBpsLJU/RUOub0oPEGEz4E77cvc6fPc2UoTnU3DfnoWWnz0aeLdacp/JIQQ+/xm1E6woShVMFdImOoF3cLuClyd0kGPZnyS3BMdteMQf45a/QPC3MERIswVj2vXQpi//+BA+NuFk+MvsX6J5d+TQjgLuTE9XHFB9gSlMNnQO4mwCkT0K+Jynsw6ObxVspVUZPROCBERXh3dy9loGz/fuxbCvfLlmeixV358dXU/VmKSAAh27nDTvYpW1YGwobYBIRkxWKXOhvvFKPXStQsRRE5DUKAcIQb910Fof3xwL/ewbOPG/rLLkv3zfuK71FpWu6PFgOh9bCQU6SpCX8Y7FDfdAsMC4qW0DRUXyNgvPnMLZ/PjMz9u7pW0CvH52efirY/gOSz97hRAbMk+20hCz5Mlo7IRIRg87DW86QYgZULShcP09g/oUl484iP/5tEjMHQPr5fWKOQ/3CsV0QNYRFzlJ7eTvgy/7XD9AHs9U9Qe2YzQoeggbFwpbbhyl4Z0+49CHk/N4NgTP66btynY92+9f//86SIhUv4hCdCsk/mmpefNd1fvX1u9o0SmaqWWvs49MfBaufRX3XmXVbl8vYHngRZ3eOQLfyRroMxe/OaXjMEthblyTeDqPTMTPAE233jZn9whK+cwmPHLN25ZJIb95rdk6QXYqelGgGCr53rq1oBshBBbwkJkH/9dLFeHrBxToPufHl77Nog1I5//3UiqO6tOptkHdhff70DUIK/eK5tx39MYzyWmr4BIDXkMXuzK9j5eOXMDGPPikoD47K3pthvezCZ4cytqJhsh9jQfbuFTvCCsRlf00Z39l+nbcL4C38NfU7eWoQXrbWRR5NGeCvHdbggbFrqlm0wrDH1GnMGq32Pc/vTk5Pr3HoSjkLfzf/96O/WxTPL5NeMbBmUQEyTvRNiEEPtas/BWug2rNnFIP+N72b7x6Ycnj/LXvtwBLxr4+2Wwcq2ZPqngTTIbB3aQp1k8uu6Gx4CC87bR7iMU1ye9rGWg7M7+fvDnG3tn+1Gw7buPfv/1N2k/416uLqlMttwiCRHHWFNamVjW3mEJC9Ldcv8t05qkYaxhZnpnH2/g2oWQtn3y5Nfg9h2W0ZGKmnhN5pbLBFkLIw7lMBPLmntI6zIG9FtEkd+GVpmtZSC2z16+2YYxb9998unOKu3EwHu56lvEBU+/VgxUptdBSPoGpY639YpRfeKR3vqrcikonp/Th7IT5Cv//YeRfaEg/jney9Xfeg8oaNoJ07prkKy9D9hlQPvGZqso4YXqU1KbbFhldvu3J+sE0s4/+S3zjkAxdLcBUrDJRRYA66SLO2fXREh8k+rj8ELgTYOa/QrmRtY/wfaDJ1m8ahd+WVWcsT8Dx4mMt1/kqo7RX9VWnZltCDEhI9dXchYZQ2FTUhlumgrb/+3vtB+AF3Htr/8barZqpLHSkSXj22e8O2ljLY71CAEc5ixGO1z3K89qpLqJVQHj/yVrpfAytfX0o2rQ3rJqEcABqbGwHca1ESI4wyeTrYKAHDV2SDvYFHMZ9Bc71nPhhw38KalSHXeKdvhiKlUcl+rrtMw2hGAtKKuQYIdvkgy8N6vpbqAjvf3r3Win6uLd+rtkqarxj9oYokbP4vX2zFi9mnNXhBWXMpff8LzDUBlMrD0xMxtJ8mG44lqB8s/p+0eXg8kufkywzQYKgJpPZoayVo1uR4gsDmq4shtEwVzVIW/3lj19nlst/357zfSpYWGLquZu+ABglfQh1KtsxLAZIbb8MibE2xEiVVnHI059YK4eIBcP7P9s279nN3zCCw7m+Nc78Sf/tioZqoyutRM7IcS0Gni0u0LEsuJ+A6uMA9PI6phDjYsnWQCpIbvdKnxdl+m74eMAuypdc6P67gj5tZYtUgl2hQikCLDU3+9NDHUVJXu3chaOKqrOiwW9+iS9Z7l+MFDzQxUl8VsRYloNGDUr2l0L0rD4eYZKezzQZV1JLE5CEVGmqarbxbMEXr1larsuI35MDYJGamTdNX5dhHhYQQkc0spuoLhmAoYlddu8DKQ+HliWjCcDlehuY6YohqbKphV0ew3UEw1xGGT3oQQemelsOwV3QkiqGhiNw/CS+mvMQrWAPFxMKn673un2Z5NBEASDyazfHffaVa4iau1xYKnr3e/MoUOwOzEo2yaDuyIkPiy+UhW3715rUDzbHwx7Td9LX7VMPL/dG0+WDeSuMeQh8QJFcbdo0WsgRF1K1SaI5O6CskSJTW1NTXIHrVF/2O12h8NRaxDgRaCast492DCsHqmCHAw228HrISTOBILoOfHdnXVdBlLKFGzSxG83pavXVew4mNEmTZXqG1216yMkqLjUPnHW5yyyYWnqegdtjVuweRiDQ7wKWN7kbH8dQvhYaoAGm19HGI1Wz2/jLSCyjNoUs1aKrnKjwMzBMLim7sKwcUgIrLK1IVz6aoQghZSaTRCBnTlVmx7iMWPsrVJttOvzcZ+Z/WajPtAkFqAebGR3Clw7sF6tShWmrQ94vwUh8QOFml28kn7XGRmWh4UPizszq+cgQz2fdDVW8QyzHba63XFQFfNeJtUGOynRr0BIMMeN+b0m29HBwYM5AcW7pOe9OpjGfpd0LO28Qtgcd5s1b03H98yB+y7eTOWL/N0Q4sl2zBU721N8YlKg8FRJmfcsw9DPa87/NrAkTW6QgY+/6HVS2Zkf1FaNNA2mGGvyojeEkPgDHZiltmwMvnEoHdwwETdM476r1YZghVkVYnhYN477mVuzzuEnGXW+ruokO7N9cwhBp1qUyXNsvbx9bqAYFofCgHIuHhGoanUyPj/EPDw2ccjs8JMeDFOWTUWh19ChX4+QVF1dUoMGqbXMrVl/f3E6kw1wq8esg/cAtlUHVnM1vKa4ux0hlfm3yVQf7OBp3wBCNI2MWqMKHovbLI60srhaQa3z+zLOsba1a2LTEa+LhdatrQKtu1POMWxTzvCGERIfFpSp820pMeTCiEQMK3R5XRq4kz1VmYE9PARKbkvJaAzbrlKDmqPrSuC3IERomljcTWkVNiRRL2mDV4lT16lZ2FptBjpxMgHruKa35hIfLGN7AG6ou1JG8p0REmesKlTF25SnazPBwJlRyYZVw/aGoGR6GlU81D/ghwck+5qecFBV6jmkAfxiGF/FoN+GEGLXvqyAEmhillTO8uQCyY+KfMAwom1XG1hHrQwF6cB29NaTkMnBFI97WExRu9dxYm4OIYjjzAI6Ygq3OlzNQhh4YKfWDY8i8YpGIEXTotoI765lVmf9RjpmTsH3bE5AwVj9XUL574MQD45ZjOpymCVN+XKGpc46TU5dN6wTAwbtuLNKTaFuHytIsnk0zJz2JJkq34jvmxECHYemQg1zhFnSsSsnYz4I77nrw4a+sApUalacylShSqdWDzJzW0w1hg2eO9eYIQ+/Ed8NIARGHFOVKqo7h8k0uq5pZKQm2MIoqIpk6JxOGWEF9gAYtjG1OEA9JnW+Qf5uECHoVUzlwoJPsL+IP59o6obwfd07mLXiPQCc5kwD8pmT5kr26mvGjSAkPB2vMqqZrTpQstLsBlpGwnstaIoXMPUxXq5MZ5oK2pN1t+d6dxs3hZAvvakDSCsYo3H2Gp2WpmJXrY3YwPKrqj4ZN9Fhacwn8BFMl0c3Qz4+bg4hDG86w1v6FNUadNooQl6j120xy+Qpb4Y5b4aJNp5z40lvbdLtNVCZVBrzliVD+Kdao+nNwSM3jJAgJYeSqTEQSpn1e23hStaq7XpnPOyPWhMcrVl/2O3U2w2hJ2EZhq6pGgDadLvtG4VHbh4hjmpvJJm6wvB6MxaMAEttNeVNHO+wga2NKbIyU3TT7de/IjjaOr4HQhiOPx1OmKxj+lfRVVmlbsBph6M/a00Cl2qyquN2jaHKbNJtfg90OL4TQj4q1WlnFlA1ksIw5c3/DxrG0FRTp0DjqN3h9xnfE6EYlcNqs9cZziYuFQABnhRMZsNOvVk9vGmpWx3fH2FyOM73x5Qc/w9iIoNF9e9FgQAAAABJRU5ErkJggg==;" parent="1" vertex="1">
          <mxGeometry x="40" y="190" width="80" height="80" as="geometry" />
        </mxCell>
        <mxCell id="KuCGwt0FQTSP2l75gM48-2" value="" style="points=[[0,0],[0.25,0],[0.5,0],[0.75,0],[1,0],[1,0.25],[1,0.5],[1,0.75],[1,1],[0.75,1],[0.5,1],[0.25,1],[0,1],[0,0.75],[0,0.5],[0,0.25]];outlineConnect=0;gradientColor=none;html=1;whiteSpace=wrap;fontSize=12;fontStyle=0;container=1;pointerEvents=0;collapsible=0;recursiveResize=0;shape=mxgraph.aws4.group;grIcon=mxgraph.aws4.group_aws_step_functions_workflow;strokeColor=#CD2264;fillColor=none;verticalAlign=top;align=left;spacingLeft=30;fontColor=#CD2264;dashed=0;" parent="1" vertex="1">
          <mxGeometry x="200" y="150" width="320" height="160" as="geometry" />
        </mxCell>
        <mxCell id="KuCGwt0FQTSP2l75gM48-11" style="edgeStyle=orthogonalEdgeStyle;rounded=0;orthogonalLoop=1;jettySize=auto;html=1;" parent="KuCGwt0FQTSP2l75gM48-2" source="KuCGwt0FQTSP2l75gM48-3" target="KuCGwt0FQTSP2l75gM48-4" edge="1">
          <mxGeometry relative="1" as="geometry" />
        </mxCell>
        <mxCell id="KuCGwt0FQTSP2l75gM48-3" value="Download" style="outlineConnect=0;dashed=0;verticalLabelPosition=bottom;verticalAlign=top;align=center;html=1;shape=mxgraph.aws3.lambda_function;fillColor=#F58534;gradientColor=none;" parent="KuCGwt0FQTSP2l75gM48-2" vertex="1">
          <mxGeometry x="30" y="55" width="50" height="50" as="geometry" />
        </mxCell>
        <mxCell id="KuCGwt0FQTSP2l75gM48-4" value="&lt;div&gt;Parse &amp;amp;&lt;/div&gt;&lt;div&gt;Enrich&lt;br&gt;&lt;/div&gt;" style="outlineConnect=0;dashed=0;verticalLabelPosition=bottom;verticalAlign=top;align=center;html=1;shape=mxgraph.aws3.lambda_function;fillColor=#F58534;gradientColor=none;" parent="KuCGwt0FQTSP2l75gM48-2" vertex="1">
          <mxGeometry x="135" y="55" width="50" height="50" as="geometry" />
        </mxCell>
        <mxCell id="KuCGwt0FQTSP2l75gM48-14" value="&lt;div&gt;Load&lt;/div&gt;&lt;div&gt;Into&lt;/div&gt;&lt;div&gt;Opensearch&lt;br&gt;&lt;/div&gt;" style="outlineConnect=0;dashed=0;verticalLabelPosition=bottom;verticalAlign=top;align=center;html=1;shape=mxgraph.aws3.lambda_function;fillColor=#F58534;gradientColor=none;" parent="KuCGwt0FQTSP2l75gM48-2" vertex="1">
          <mxGeometry x="240" y="55" width="50" height="50" as="geometry" />
        </mxCell>
        <mxCell id="KuCGwt0FQTSP2l75gM48-17" style="edgeStyle=orthogonalEdgeStyle;rounded=0;orthogonalLoop=1;jettySize=auto;html=1;exitX=1;exitY=0.5;exitDx=0;exitDy=0;exitPerimeter=0;" parent="KuCGwt0FQTSP2l75gM48-2" source="KuCGwt0FQTSP2l75gM48-4" target="KuCGwt0FQTSP2l75gM48-14" edge="1">
          <mxGeometry relative="1" as="geometry">
            <mxPoint x="90" y="90" as="sourcePoint" />
            <mxPoint x="140" y="90" as="targetPoint" />
          </mxGeometry>
        </mxCell>
        <mxCell id="KuCGwt0FQTSP2l75gM48-7" value="&lt;div&gt;Amazon Location&lt;/div&gt;&lt;div&gt;Service&lt;br&gt;&lt;/div&gt;" style="sketch=0;points=[[0,0,0],[0.25,0,0],[0.5,0,0],[0.75,0,0],[1,0,0],[0,1,0],[0.25,1,0],[0.5,1,0],[0.75,1,0],[1,1,0],[0,0.25,0],[0,0.5,0],[0,0.75,0],[1,0.25,0],[1,0.5,0],[1,0.75,0]];outlineConnect=0;fontColor=#232F3E;fillColor=#DD344C;strokeColor=#ffffff;dashed=0;verticalLabelPosition=bottom;verticalAlign=top;align=center;html=1;fontSize=12;fontStyle=0;aspect=fixed;shape=mxgraph.aws4.resourceIcon;resIcon=mxgraph.aws4.location_service;" parent="1" vertex="1">
          <mxGeometry x="330" y="384" width="60" height="60" as="geometry" />
        </mxCell>
        <mxCell id="KuCGwt0FQTSP2l75gM48-8" value="" style="endArrow=classic;startArrow=none;html=1;rounded=0;exitX=1;exitY=0.5;exitDx=0;exitDy=0;startFill=0;entryX=0;entryY=0.5;entryDx=0;entryDy=0;entryPerimeter=0;" parent="1" source="KuCGwt0FQTSP2l75gM48-1" target="KuCGwt0FQTSP2l75gM48-3" edge="1">
          <mxGeometry width="50" height="50" relative="1" as="geometry">
            <mxPoint x="560" y="480" as="sourcePoint" />
            <mxPoint x="610" y="430" as="targetPoint" />
            <Array as="points">
              <mxPoint x="170" y="230" />
            </Array>
          </mxGeometry>
        </mxCell>
        <mxCell id="KuCGwt0FQTSP2l75gM48-18" value="" style="endArrow=classic;startArrow=classic;html=1;rounded=0;exitX=0.5;exitY=0;exitDx=0;exitDy=0;exitPerimeter=0;entryX=0.5;entryY=1;entryDx=0;entryDy=0;" parent="1" source="KuCGwt0FQTSP2l75gM48-7" target="KuCGwt0FQTSP2l75gM48-2" edge="1">
          <mxGeometry width="50" height="50" relative="1" as="geometry">
            <mxPoint x="560" y="480" as="sourcePoint" />
            <mxPoint x="610" y="430" as="targetPoint" />
          </mxGeometry>
        </mxCell>
        <mxCell id="CVKSvBgsfr0zdH95XGZy-1" value="Amazon Opensearch&#xa;Service&#xa;" style="shape=image;verticalLabelPosition=bottom;labelBackgroundColor=default;verticalAlign=top;aspect=fixed;imageAspect=0;image=data:image/png,iVBORw0KGgoAAAANSUhEUgAAAHgAAAB6CAYAAAB0rJfZAAAAAXNSR0IArs4c6QAAAJBlWElmTU0AKgAAAAgABgEGAAMAAAABAAIAAAESAAMAAAABAAEAAAEaAAUAAAABAAAAVgEbAAUAAAABAAAAXgEoAAMAAAABAAIAAIdpAAQAAAABAAAAZgAAAAAAAACQAAAAAQAAAJAAAAABAAOgAQADAAAAAQABAACgAgAEAAAAAQAAAHigAwAEAAAAAQAAAHoAAAAAKHpaPwAAAAlwSFlzAAAWJQAAFiUBSVIk8AAAAm9pVFh0WE1MOmNvbS5hZG9iZS54bXAAAAAAADx4OnhtcG1ldGEgeG1sbnM6eD0iYWRvYmU6bnM6bWV0YS8iIHg6eG1wdGs9IlhNUCBDb3JlIDYuMC4wIj4KICAgPHJkZjpSREYgeG1sbnM6cmRmPSJodHRwOi8vd3d3LnczLm9yZy8xOTk5LzAyLzIyLXJkZi1zeW50YXgtbnMjIj4KICAgICAgPHJkZjpEZXNjcmlwdGlvbiByZGY6YWJvdXQ9IiIKICAgICAgICAgICAgeG1sbnM6dGlmZj0iaHR0cDovL25zLmFkb2JlLmNvbS90aWZmLzEuMC8iPgogICAgICAgICA8dGlmZjpSZXNvbHV0aW9uVW5pdD4yPC90aWZmOlJlc29sdXRpb25Vbml0PgogICAgICAgICA8dGlmZjpYUmVzb2x1dGlvbj4xNDQ8L3RpZmY6WFJlc29sdXRpb24+CiAgICAgICAgIDx0aWZmOllSZXNvbHV0aW9uPjE0NDwvdGlmZjpZUmVzb2x1dGlvbj4KICAgICAgICAgPHRpZmY6T3JpZW50YXRpb24+MTwvdGlmZjpPcmllbnRhdGlvbj4KICAgICAgICAgPHRpZmY6Q29tcHJlc3Npb24+MTwvdGlmZjpDb21wcmVzc2lvbj4KICAgICAgICAgPHRpZmY6UGhvdG9tZXRyaWNJbnRlcnByZXRhdGlvbj4yPC90aWZmOlBob3RvbWV0cmljSW50ZXJwcmV0YXRpb24+CiAgICAgIDwvcmRmOkRlc2NyaXB0aW9uPgogICA8L3JkZjpSREY+CjwveDp4bXBtZXRhPgpgtfwkAAAO/ElEQVR4Ae2dd/RVxRHHB0URFMGKggWxIBGxoMaCgjEqYkFRjjU56c0UjYkaNQZLjCam/GHOSfHoSVGxoIRYolFDDKKIBcSKqGADwQI2LCiZz28Zd9/z957v8rvv3fLbOee+u7ft3jvfndnZ2dl9IpFKzYEuF49evrzUX9jJP26VTv79pf/8CHDJIY4AR4BLzoGSf16U4AhwyTlQ8s+LEhwBLjkHSv55UYIjwCXnQMk/L0pwBLjkHCj550UJjgCXnAMl/7wowRHgknOg5J8XJTgCXHIOlPzzupb8+2p+3qB9RHr3rXn5Uy8sfknk8bs+9bbMb+iUAAPuqB+mw/u8g9wp2+COSG5YLdLKJ8wz7XSnlOCQic8/IsLWKG06WIStKBQBVnDvGZ8ArmOKBXCnVNEJ4Cz8rRHgwkNY/wMiwPX5U/irEeDCQ1j/Azq9kVWfPcmu5tF5EgFOhmHNu/PqPIkquiZkyS6k5fRIKx97+yjBxokU93lynkSAUwTWsgLgvDhPcg9wr41EjvyZyDobG/uS71+fLzLhHJElC5I/W/Qnct8GD9yrY+ACEJWDfDoj5R7gVVdLB5a08knnbVqXS+5VdMiKqTookKRt20MHBvbUrTNT7iW4M4OTxrdHgNPgYo7zKJSKTouPqPkkqj6tcrPIp9QA0x+l3YaSRG24J8rxW2qAX1CA2TozlRrgZgBbNPWeOsB5HDJrD2j6xb3VAbL2BiLdeohw/MF7Iu+97TxeSxaKLP+ovSeLdS5VgPM6ZGaQ9N1WZOvdNWhuiMiG/UW61OlDLPtAZP4TIs/NEnlyisjrGuheREoV4LSGutLKB0C6ri6y/f4iOx/iJLZRkLqqRG+6vdv2Ok7kpSdF7p8o8tQ9jeaQj/tSBTj8pDwMmW33OZG9vyiyZu/wzVz6ow9VFasaXqwDEe++JfKhSuxq3US6r62+634iPderfKbvQJHDThN5ZZ7IHX9S4+3Ryut5PWoqwIn6mupSTCugfK113dSU6vwAEnU75z6RFx/TNvfd2rD06OWkd5s9RQbsqppAJRpaf3ORo38u8vBtIv+5VGTZ++58Xn+bBnBWHwyoh5wq0kMl0eiNRSL3TRB55HaV1GV2tv7+nSWuMlAhuvdUFX+YU/Ord3fPDTlABKm+QcF+QzVBXq3rOmZGfQbk8erWe7ixYwMXNXzvtSKXnygy81/1wV1l1dpftPRNkbuvELnsOw50uxNpPvZCJ9V2Lm/70kgwavSQH4kYUG++KnLjr9Q4Uku4mvpsKbLlbiL9Bomsu4lKu6pjnkO639LnaGexIWbfI/KmSr/R269rnheLPPugyH7fdG02zcHYc0XG/ySflnYpAAawENxXnxe5bpwDy8BhP3CYyG5Hahdpi/CsT6+q3OjVx21UgOFfFpn7kGqBayoryqN3OuPs8DNF1ljLVRCiTv5+ijPYfI7ZpwqvolfvoeD+2EkT7CQ85+qzKsHFoXH0Ba4S1AK3vba5SxeRLXZ2anjkD0Qoy+jFx10YkBlqVAzuyRsVXoJHqJT13sixFSuZ2KulaiAZoboP1sneZhxx/v2lrj/7zP0iC+aoGn7Fea3aJFjzModI/528yt9uX6fSbzhf5LUXXO4LnlKV/WuRw89Qp4lWhi21rMGfd8aclZ/1PvcA17NON97GMdSYeNvvKwPrUMmjTvYg0de9f5LI9OudS9Kesz1SDHhsWNwE/A07XmTbvd0dVKRjfiFyzVmunebsM9OdA2TXI9w9+2i/e869+VHVhVbReynzkRzoKWVq6GXaZDuRg07y4GJ0XXW6yJS/tQ+uy6XylyjMm1RCb/qN7+/SZaK9XXMdf+/dV2qbrPdCOEqGjnbpPPwWFuCNthbZfAfHQrpDky/z7FxDQThYDR5ULoTRdYVa2C8/7Y6T/j5xl7brZ2rFeMc9ieVM/kZohrv+YkciO41Sm2ANf5xlqrAA4182evy/ztlgx3t/QQQQIPqwOCPo4nSEaG+RZhthwqFCe2uE9qAiQd3WzE+YbiEBXkUlM4xzxolhhMU8eD87Ernld5Xtsr+SPPXsAyLTJvjniNjkXYxwXxoNGmGpbPeFBBjjCimBGCyYP9ul+WXUyJwdOCQAJU2adq12wV5zOfZcXwRftRGq3P4oECdK1252Jbt9IQHebHvPsHkzfVrU4Bq4wuLlLNZy2sTgwkM3+VwZAzfCf71orjui/QfkrKmQAOMDNsLhYNRngB9kQMqaFWgXLn7GmLFpDN4jfJ8N+tubZbcvJMDr9vMMM6cDZ/ps5c8/P8un007hn7ZuEWPI+LONwvdZp6+dzW5fSIC79/IMwwtlZB4tjs2itWtp78P8w3IZrDBiECNrKiTA1W5HYyLBc0ZL37BUc/Zh/mbwUZL1lUmH78lxFlRIgLNgVKNlmmeN+82ibvTZZtxXSIAZLDAKR3jefdvOOpehP0o/FapfQm2NQqkNz9v1Vu8LCfA7iz2b6Isa0Sc2Ci1tO5fmfr1NfW5mcHEmfJ9Qjfu7W5sqJMBhjPJ6gQX78hzPvLaAuxUDEf5sOikLCiA3tElocIUWdXg+nZKT51JIgM2ZwOf2+4z/6IXPqs95hXQz2rP5EH8tzdSg4T43umPmn+Zs6NxYNM/fl1WqkACHfVwbUTIG4i402nWMpdLb435ktMjoMR3oMKJSWdPANJgFgQvV7mn1vpAA43smegNCXRKBYfTgjSIMH0KAv9XuLp3WLwMMPXq73AiXDcegkWyzop972I8hp1X2yuRTSIABkHhlox0OspQbNnz4Vn888nvqaQo8X/5K8hSVZZfD/XNTdKD/Y/Ws7T2x0kZP/M9S2e4LCTAsC4fmth3m47K4NkVjmAl2h3BCEP0YWrfuSrJf2vpRJ3kJnTtD/3Vlss+DdzDXJHbA7Kn+WpapwgK88BkXnwzzcPbv+zXPRvqfxC/btBIYf4Ieh6rc3/3pKQb2x57jozSoPDf/1j/HBDfmQBnRjeNcHqiwAMM8ZhuYihywiwbHBUN38590ERgWDku7yZyiEV91ccyNMJ++7ugzRA78rps/zDNIZ3XkJuAyz9hog/4anHdBZdyWXWv1vmurC0xa3iaD/aQ0hv/CJRmIsZqp7e2OK9rg/b8tslDPvfaiK2XONA3XOc/FTROgjqQPPVRkh5EiT9/nIiLJA4lE2vFCMXCApNPe0pc2o4kcX31B8zu/MkKE6TIEGVQTIB93kasM9j7V97TiOPcAw2RbzIwFVUKAYRDBbptpfxdDCoCIeLzyNB+DRUDAX08WOeBEkf47OpYyU5CQnzDspx6z0RK0+ZMv14rwnr+TPi+Rm0YYVsRaH6iGHQP+a2/owmypFGHUid3fin2hVTQMYmbBP3/pPEocw1RmMbA3Yvx2wjgXfNfeXCW7r3qPtU43iCkpt/+hElwq1Ziz/YwKvFa3XqKGl/aLAdT85YTRjlUtssXQ6txbc5x7CW6EDUwWm6Tq8IiznOSw+OjxCjrxzPRHjQhSZ8OdaJPPcHXSPmMUUVmIn7bJZ6j40O9t+dAkjPiKb5fpD08411eAeTNccPyYn7q8CQpg9gOB+cxraiWVAmAYBlMnXejnKQHaUeNEcHwQmG5ziLjXZi8o1omopxpS+33DTVGxB2m/x2s3LJyFyDXadgLtjxzn2nXa/5Hfd+G8066zp5u/Lw3AsIr27zptgw891TGSRVaGHuamnkyfqO2oGmQh0I2ylxhrHBxDDvQq2Z6ln91bvWnVAHOdUaar1B4Yo+9EvBg07ARnXd95qR4sbzvV1MnjyoJyEW0sRhUhs0b4iJmk9i01kpgBiOXL7Id6RBtOfDVq9ut/dhUFVQthdFlFIYoEAMPwWXeX+yXS8mpVz2H0504Hu5mONvMivD/tdKkk2JjD7MLrtU3cRi3l4V/yfVSsbGYJskFEXtoiLHSTmG7StghLX7dsg7ur8pdllZgmgwGGxc5iLVjlzE9GKmfcXHk/R1SG69XQOkgrl01kw4JnJYKJahCaQfbJJzt+ppQAG1tm360z/dRQAlD6qjbSY9dRvTbFxc61tyf0BmPtgUmVgfSoX0DGIUJzQPuMtsABU00fLXOOF6bQ0GxAhNxi8VMZOzq1xuX4yd9SA8znwthZ/3Ybk79xYNDFIcTWVs75JFvcDET6rvic8Su318YS0cnSDVjv5gbdfayrNFjM5mUL80f6ARPvF04U3ol1PvCOhYEM4TMdSZce4JA5BASwTb3KSRzuRTbiuugmMUuQyWp0e8Jw3DCP6jTDltee7VQ0XS+IthtVzxoh5g93V9zv9BscyDhEsK4Z8kSS0QhLXg7v7Hi6dEZWoyxBumAm7k/clm3rZ6k6Z/2sRsG1sgDxHyqFs263M64rxeIsuEjbo8cmO4eIGWss1kY3Km0qNcD4sfnfBjbSzSQqzG2XuGWbrBzU9jEKfK2hShZ4wUFiAQpMWq+1hojlmXRfaoDNj40vuy0ILyl3VuJ+DKw7/ujbXzxlx16khthm7WeGxgijQqwtb//u5GdLDXAtdiDRp0x0G+m0acYt6h+n/dU2HaIrxfBhGCDorrjft9ToMkp7ZYBOCbAxc2X2jap9pBLL2Kay0BYfNU6t+M9WlsoE8gFD/bkwxtqfXflUBDgh75KofYY28WLZhHEsddyodJHokyPReMos1IfKgE89TepU3aQ0GddoXovmrhh0UIcIY9Z0i3Yb47bqPKZemb5XK0pwNZebcEy/evzptSek4ylj0VRGvtKmKMFpc7RGfjhQcIgQfUnsGIuOEx3CSnsz1Shb2SWeahT38ekI8MesaH6CvjLLP4RLQDS71KYB3NbvTNAFaaSfWpQ8mw1akvybCnAjoCV5WfIrQp5JvqnZ96ZqZC1+KZ3XDfMJ0x3JPcwnTKeVZ0fyaeazqUqwtS0d+VscmG/58OGWznuezQSpI3l3uXh0HlaS6MgnxGfrcSBVFV2voHgtGw5EgLPhe8tKjQC3jNXZFBQBzobvLSs1AtwyVmdTUAQ4G763rNQIcMtYnU1BEeBs+N6yUiPALWN1NgVFgLPhe8tKjQC3jNXZFBQBzobvLSs1AtwyVmdTUAQ4G763rNQIcMtYnU1BEeBs+N6yUiPALWN1NgVFgLPheyw1ciAdDvwff0EUCETyRoMAAAAASUVORK5CYII=;" vertex="1" parent="1">
          <mxGeometry x="585" y="199.49999999999997" width="60" height="61" as="geometry" />
        </mxCell>
        <mxCell id="CVKSvBgsfr0zdH95XGZy-2" style="edgeStyle=orthogonalEdgeStyle;rounded=0;orthogonalLoop=1;jettySize=auto;html=1;exitX=1;exitY=0.5;exitDx=0;exitDy=0;exitPerimeter=0;entryX=0;entryY=0.5;entryDx=0;entryDy=0;" edge="1" parent="1" source="KuCGwt0FQTSP2l75gM48-14" target="CVKSvBgsfr0zdH95XGZy-1">
          <mxGeometry relative="1" as="geometry">
            <mxPoint x="395" y="240" as="sourcePoint" />
            <mxPoint x="450" y="240" as="targetPoint" />
          </mxGeometry>
        </mxCell>
        <mxCell id="CVKSvBgsfr0zdH95XGZy-3" value="&lt;div&gt;Query&lt;/div&gt;&lt;div&gt;SDN&lt;br&gt;&lt;/div&gt;" style="outlineConnect=0;dashed=0;verticalLabelPosition=bottom;verticalAlign=top;align=center;html=1;shape=mxgraph.aws3.lambda_function;fillColor=#F58534;gradientColor=none;" vertex="1" parent="1">
          <mxGeometry x="710" y="205" width="50" height="50" as="geometry" />
        </mxCell>
        <mxCell id="CVKSvBgsfr0zdH95XGZy-4" style="edgeStyle=orthogonalEdgeStyle;rounded=0;orthogonalLoop=1;jettySize=auto;html=1;entryX=1;entryY=0.5;entryDx=0;entryDy=0;" edge="1" parent="1" source="CVKSvBgsfr0zdH95XGZy-3" target="CVKSvBgsfr0zdH95XGZy-1">
          <mxGeometry relative="1" as="geometry">
            <mxPoint x="500" y="240" as="sourcePoint" />
            <mxPoint x="595" y="240" as="targetPoint" />
          </mxGeometry>
        </mxCell>
        <mxCell id="CVKSvBgsfr0zdH95XGZy-6" value="Amazon API&#xa;Gateway&#xa;" style="shape=image;verticalLabelPosition=bottom;labelBackgroundColor=default;verticalAlign=top;aspect=fixed;imageAspect=0;image=data:image/png,iVBORw0KGgoAAAANSUhEUgAAAHoAAAB6CAYAAABwWUfkAAAAAXNSR0IArs4c6QAAAJBlWElmTU0AKgAAAAgABgEGAAMAAAABAAIAAAESAAMAAAABAAEAAAEaAAUAAAABAAAAVgEbAAUAAAABAAAAXgEoAAMAAAABAAIAAIdpAAQAAAABAAAAZgAAAAAAAACQAAAAAQAAAJAAAAABAAOgAQADAAAAAQABAACgAgAEAAAAAQAAAHqgAwAEAAAAAQAAAHoAAAAA/EbK+AAAAAlwSFlzAAAWJQAAFiUBSVIk8AAAAm9pVFh0WE1MOmNvbS5hZG9iZS54bXAAAAAAADx4OnhtcG1ldGEgeG1sbnM6eD0iYWRvYmU6bnM6bWV0YS8iIHg6eG1wdGs9IlhNUCBDb3JlIDYuMC4wIj4KICAgPHJkZjpSREYgeG1sbnM6cmRmPSJodHRwOi8vd3d3LnczLm9yZy8xOTk5LzAyLzIyLXJkZi1zeW50YXgtbnMjIj4KICAgICAgPHJkZjpEZXNjcmlwdGlvbiByZGY6YWJvdXQ9IiIKICAgICAgICAgICAgeG1sbnM6dGlmZj0iaHR0cDovL25zLmFkb2JlLmNvbS90aWZmLzEuMC8iPgogICAgICAgICA8dGlmZjpSZXNvbHV0aW9uVW5pdD4yPC90aWZmOlJlc29sdXRpb25Vbml0PgogICAgICAgICA8dGlmZjpYUmVzb2x1dGlvbj4xNDQ8L3RpZmY6WFJlc29sdXRpb24+CiAgICAgICAgIDx0aWZmOllSZXNvbHV0aW9uPjE0NDwvdGlmZjpZUmVzb2x1dGlvbj4KICAgICAgICAgPHRpZmY6T3JpZW50YXRpb24+MTwvdGlmZjpPcmllbnRhdGlvbj4KICAgICAgICAgPHRpZmY6Q29tcHJlc3Npb24+MTwvdGlmZjpDb21wcmVzc2lvbj4KICAgICAgICAgPHRpZmY6UGhvdG9tZXRyaWNJbnRlcnByZXRhdGlvbj4yPC90aWZmOlBob3RvbWV0cmljSW50ZXJwcmV0YXRpb24+CiAgICAgIDwvcmRmOkRlc2NyaXB0aW9uPgogICA8L3JkZjpSREY+CjwveDp4bXBtZXRhPgpgtfwkAAALPElEQVR4Ae2de7BVVRnAv3u5vMTLU16SykteAon4IEFBJM2KKB9Mk07Pqalmqn+c/mvM6r+caWrGpqbG0Wl6TGFlmRoKYYaBiCiIQAFCGs7lIYEgj8uj73fXWe51Nvfsezn3nL33Ont9M/vsvc96ft9vr73XXq8tEqQQFmhCyweWnD1bCG0LquS9jzU1NRdU98KpHUAXBHkAHUAXxAIFUTOU6AC6IBYoiJqhRAfQBbFAQdQMJTqALogFCqJmKNEBdEEsUBA1Q4kOoAtigYKoGUp0AF0QCxREzVCiCwK6Je969uotMuODIrMXi5w5I/Lo/SKH92ab64EjRO64T6RZi8n6P4tselrkdHu2eeoq9dyCBvDMW0SuvUPkwqGRGlNvFFm7LDrP4og8DB1jUr75SyLX3SnywqMiG5fnF3juQLf0UcC3ilzziXLAFmhzDnIczwMX4sIvmoty3R8U+F9FTp20Oc7HPgdmM4YA8Ps/pIBvFxkwOB/GOd9cAPymL5SA/17klafyAzxz0C19Ra68TQF/XOSCGOCjB/WWqAYbMESNpxdAHoX8kU/yRz4RLtQFnzf/rfujyMtPKvATxi2r38xAA3jWh0WuBvCgcvWPvF3+zPvAJ8vd83TGLfolrZBReuN1Ci7c+Z81j6EXFfiGJ7IDnjro3v0M4NkAHliO7J0DIuu0hOS5UlOe4+iMWveGv5i8A5xHUOsw486FfONn9KLWesf6EvD241HYNI5SAw3gqz6qr0kfE+kfB7zflOCO15RTaahdvzTeA64VMl4LeWtovcikx4V9w6fNXWz9n/RO8LhIWsDrDrpPfy3BFnBruYEP7ysBfkbfkT0HXK6ZvmapPjybN+o79oxFBvjA4cYXF/q8e/SiX6IlXIFvUOAnj8VjqO153UD3uSAqwf0uLM80DR5r9b3z1RWNB7hcU6Mfz+9NejFPv1nfubWE0+CC9NcLf97dWsJLwCnhJ981brX+rTnovgMU8GIDOQ74UJtp7Ni8Ug1wutaq5Ds+7li8X7+qwK9YaBpZBo00ecZOcz9lHmvApnJ34mht9akpaK5YXiuA7QqA1/xO5LW/FQ+waweOucCpi3CxT7tJZM5dIi7w6/UNg+beVQ+ZO148fLXnNQW9UJsDe+trk5X/vVUCvErk7Bn7b9hjAYBTujuALzDAB482tqGgYEsebbWSmoJ2IT/5Q5EtzwbAXYGiAAD7tVUiU+eL3PYNE8K1ZVdxdMdd+1/qI9ymQynuvm2xFTarl9QNdL0yHOKtzgIBdHV28y5UAO0dsuoyHEBXZzfvQgXQ3iGrLsM1fb2qLgvnF4p+XzpHXHnwnujscw+Wd3vSX0yPGEKLFA06rlQTlkESvol3oDFykqH7ahu72/Tq+mUcmusWh9WTsPG48nYebt15I1Kn/HhXohl8x2iNSvLI10Xc1dNOOh38NEhsX1MppEh3wzIqhsGLPol3oNt17NW7hyqb+Ng7ld0Y9pM0OrO7YcmDbxJu3b4RqzK/AXSVhvMtWADtG7Eq8xtAV2k434IF0L4RqzK/AXSVhvMtWGFBM2wnPrbNN3jnk1/v3qPPR7kkv4u+LHLxFJF//1Nk9a+yn3OdlNdauBWyRLfqQPpLZ5qBjMx1LsLQ44YCzRynW7+mAHX6T5JMX6jNpB1fExHZ9bLIkQORb8ISR3ziX+TDz6OGAd1fIS/9npkNcfu3tIfLGXYcR0N3pRV3SC1hCMv4dOIizkaRhgDdAfm7IsMuMVh49o7RrTO5ZEY0YJ627R1rI1+EISxCXEs1zkaB7T1oJqwt/Y7IRZcaQDxvn/iByO5XzHn8d/qi6B/GnTMZzgphCGuf2cRJ3PHZn9a/T3uvQTNJ7S4gX2ZMDiAmDmz7R+cImPh3+ZzIbfOK6NgeEZY43oOtcZMGafks3oLup4a/UwEMH2vMzwD4p34ksvXvlXFMuSGaMrR3p8je1zv3SxzEZScgkAZpkaav0uxrxhd/U2TEOJN7C5lbcZJQybLiVsLsf+6euFzYpEWavoq3oC1kDH9I51vvWJeMgMrV6EnGD6sSbNFS25UQJ3FbcdO0//my9xb0yp/rrfWsMfPgUfocvT+5SdMtzdtfEDmeMBKFWGke5dlM3Ahpkaav4i3oLatEluvQXgt75ER9jlaAzRiyaQsiRF3dtoFMXCMnmDCkQVqk6at4CxqDM7/46R9HsEcB+9si1K5dGX+1tnQNNv+w8tFubQ2rJIQlDuJCgEwapOWzeA0aw7N6wDM/cWBfXoKti+RYcd+dmYtsa9PW3e5ZWKcDssaBAJm4ScN38R40AFgbZMVPIxQjxuttt1QiabMePztyA3QlIQxhrRAncTeCNARoQLDyD2Bo6Xr8+yJvbDJ4WCekuZc5fnOzCMttVBLCEJY4iIs4G0VaGkUR9GBdr53ry/uW3dp2V5Uw4tiubd8PfbU8Dv73XRqmRFsQ7qLto/RZazs6WLBt22rrK3nvxpHs0x/XhgPtmp4V+6wAOesVdm1estg3NOg2bc8+8IYxa2cdGFkYPKs0G+oZHTciNWY2Gj7adsRdi3Xe0CXaoiw6ZOxQCNAWeJH3AXRB6AfQAXRBLFAQNUOJDqALYoGCqBlKdABdEAsURE3vWsbGXXXuGOuVP4tozb1bx3s5I0zozdr1knEfq2Hdvmn+dcPyfUlX3LDM4GC4MEJniW/iHWhGctrRnNbYLiw6MuynA3Fn2o0FTbhZH7GhzN4NG3dzwzJJIO5eHlO+z8IzOt98apY770r0rg1aQnWrJM//JpqNgZ892yKfhEv6rhRfpnHFDbtnq/lyDe5jZ5nN9Zv3Y+9AY3y+/lZJksZ4vaVh2SpJUrz7d4uwIYwUBbZPEm7dPtHqQV4D6B4Yz6egAbRPtHqQ1wC6B8bzKWgA7ROtHuQ1gO6B8XwKWjfQRVqVr1bA62mzur1Hf+Vhs4YX46lZ+afeXzyvlbHTjoeJfROuE5k8V9/Nr6xf6jUFzZogdlUAvkgz4RqznWo37c0sBMMqAu3H66eQDzGzaB22mTxP4WpHS4vaKi6V1leJ++vueU1BL7tPZOYtRgG7iAwZQZGJetWy8T2K17VHCeg7X0z+xkV3lfDBH59lYp42cMfp7M5Knw3et8vYZuPy2mpVU9DHDousXWa2IRcbpVDMrgFG1lFw0vVmo2RTwrm9A/+0lvxGEu5qQOW2TAmutHTl/v8YuFz8B/fUxwI1Be1mkQyv+a3Zhr7P9OVOUoWH6bEVFKePl41nOGuL/EuVpfOBqas+Si+1KO3gk/QCn3ittovrM7gzOfCm6qoX+NbnRN7W43qLZqv+giLP/9ps9OtSytmGjI7SxiDT5pvtxFEDnSs8aRmKKHS2R8y/vkwrUugE3Eq154M6Nxud2GwHSVo5b0krIZuO7QVa/UuzugC3NQw0aKT1YQx1hU5gZzt+JPk7V1GobI64G/GtzEqfQjzUVoKrpZdF7LKS1EG7inas3qfKP/cLsxTFFAXO7X3g8MgXBqxkxMhXdkdDx5yb9uF9pduylty27ee6Z/FPpqBdhTEI27MP61ChyVrKFTjQW4e5vvJRS+/sa3isdsQzl4plUp93uTbpneUGtKuyHSDAiI8xU0vPvjmmVs7zLWshD7xGUqvmW5ec/3dL1rlKTr8J5weW2GXZkj0HVz8tcO9jTe53Wf1UIuS6exaoW6dG95IPvtKyQACdlqUzTieAzhhAWskH0GlZOuN0AuiMAaSVfACdlqUzTieAzhhAWskH0GlZOuN0AuiMAaSVfACdlqUzTieAzhhAWskH0GlZOuN0AuiMAaSVfACdlqUzTieAzhhAWskH0GlZOqQTLJCGBf4PSEjiZup1RlUAAAAASUVORK5CYII=;" vertex="1" parent="1">
          <mxGeometry x="820" y="198.5" width="62" height="62" as="geometry" />
        </mxCell>
        <mxCell id="CVKSvBgsfr0zdH95XGZy-7" style="edgeStyle=orthogonalEdgeStyle;rounded=0;orthogonalLoop=1;jettySize=auto;html=1;entryX=1;entryY=0.5;entryDx=0;entryDy=0;exitX=0;exitY=0.5;exitDx=0;exitDy=0;entryPerimeter=0;" edge="1" parent="1" source="CVKSvBgsfr0zdH95XGZy-6" target="CVKSvBgsfr0zdH95XGZy-3">
          <mxGeometry relative="1" as="geometry">
            <mxPoint x="740" y="240" as="sourcePoint" />
            <mxPoint x="655" y="240" as="targetPoint" />
          </mxGeometry>
        </mxCell>
        <mxCell id="CVKSvBgsfr0zdH95XGZy-8" value="&lt;div&gt;Amazon Location&lt;/div&gt;&lt;div&gt;Service&lt;br&gt;&lt;/div&gt;" style="sketch=0;points=[[0,0,0],[0.25,0,0],[0.5,0,0],[0.75,0,0],[1,0,0],[0,1,0],[0.25,1,0],[0.5,1,0],[0.75,1,0],[1,1,0],[0,0.25,0],[0,0.5,0],[0,0.75,0],[1,0.25,0],[1,0.5,0],[1,0.75,0]];outlineConnect=0;fontColor=#232F3E;fillColor=#DD344C;strokeColor=#ffffff;dashed=0;verticalLabelPosition=bottom;verticalAlign=top;align=center;html=1;fontSize=12;fontStyle=0;aspect=fixed;shape=mxgraph.aws4.resourceIcon;resIcon=mxgraph.aws4.location_service;" vertex="1" parent="1">
          <mxGeometry x="705" y="384" width="60" height="60" as="geometry" />
        </mxCell>
        <mxCell id="CVKSvBgsfr0zdH95XGZy-9" value="" style="endArrow=classic;startArrow=classic;html=1;rounded=0;exitX=0.5;exitY=0;exitDx=0;exitDy=0;exitPerimeter=0;entryX=0.5;entryY=1;entryDx=0;entryDy=0;" edge="1" parent="1" source="CVKSvBgsfr0zdH95XGZy-8">
          <mxGeometry width="50" height="50" relative="1" as="geometry">
            <mxPoint x="935" y="460" as="sourcePoint" />
            <mxPoint x="735" y="290" as="targetPoint" />
          </mxGeometry>
        </mxCell>
        <mxCell id="YHhDtKTW-V6aVAu_5bx1-2" value="&lt;div&gt;Calling&lt;/div&gt;&lt;div&gt;Application&lt;br&gt;&lt;/div&gt;" style="ellipse;shape=cloud;whiteSpace=wrap;html=1;" vertex="1" parent="1">
          <mxGeometry x="950" y="190" width="120" height="80" as="geometry" />
        </mxCell>
        <mxCell id="YHhDtKTW-V6aVAu_5bx1-4" style="edgeStyle=orthogonalEdgeStyle;rounded=0;orthogonalLoop=1;jettySize=auto;html=1;" edge="1" parent="1" source="YHhDtKTW-V6aVAu_5bx1-2">
          <mxGeometry relative="1" as="geometry">
            <mxPoint x="830" y="240" as="sourcePoint" />
            <mxPoint x="880" y="230" as="targetPoint" />
          </mxGeometry>
        </mxCell>
      </root>
    </mxGraphModel>
  </diagram>
  <diagram id="8hB8MQ7fCzcirtiWpskz" name="Page-3">
    <mxGraphModel dx="2074" dy="1154" grid="1" gridSize="10" guides="1" tooltips="1" connect="1" arrows="1" fold="1" page="1" pageScale="1" pageWidth="1169" pageHeight="827" math="0" shadow="0">
      <root>
        <mxCell id="0" />
        <mxCell id="1" parent="0" />
        <mxCell id="_ZokyxZ1JBM-LfXbi2An-2" value="" style="rounded=0;whiteSpace=wrap;html=1;strokeColor=none;" vertex="1" parent="1">
          <mxGeometry x="80" y="70" width="850" height="360" as="geometry" />
        </mxCell>
        <mxCell id="A2vt9VlTmLtmRgiJDuNh-1" value="BedRock" style="sketch=0;points=[[0,0,0],[0.25,0,0],[0.5,0,0],[0.75,0,0],[1,0,0],[0,1,0],[0.25,1,0],[0.5,1,0],[0.75,1,0],[1,1,0],[0,0.25,0],[0,0.5,0],[0,0.75,0],[1,0.25,0],[1,0.5,0],[1,0.75,0]];outlineConnect=0;fontColor=#232F3E;fillColor=#01A88D;strokeColor=#ffffff;dashed=0;verticalLabelPosition=bottom;verticalAlign=top;align=center;html=1;fontSize=12;fontStyle=0;aspect=fixed;shape=mxgraph.aws4.resourceIcon;resIcon=mxgraph.aws4.bedrock;" vertex="1" parent="1">
          <mxGeometry x="600" y="120" width="78" height="78" as="geometry" />
        </mxCell>
        <mxCell id="NKYYEwyB_-JDCd-HGwpw-4" value="" style="edgeStyle=orthogonalEdgeStyle;rounded=0;orthogonalLoop=1;jettySize=auto;html=1;startArrow=classic;startFill=1;" edge="1" parent="1" source="A2vt9VlTmLtmRgiJDuNh-2" target="A2vt9VlTmLtmRgiJDuNh-1">
          <mxGeometry relative="1" as="geometry" />
        </mxCell>
        <mxCell id="NKYYEwyB_-JDCd-HGwpw-11" value="Query" style="edgeLabel;html=1;align=center;verticalAlign=middle;resizable=0;points=[];" vertex="1" connectable="0" parent="NKYYEwyB_-JDCd-HGwpw-4">
          <mxGeometry x="-0.3415" relative="1" as="geometry">
            <mxPoint x="15" as="offset" />
          </mxGeometry>
        </mxCell>
        <mxCell id="A2vt9VlTmLtmRgiJDuNh-2" value="" style="sketch=0;points=[[0,0,0],[0.25,0,0],[0.5,0,0],[0.75,0,0],[1,0,0],[0,1,0],[0.25,1,0],[0.5,1,0],[0.75,1,0],[1,1,0],[0,0.25,0],[0,0.5,0],[0,0.75,0],[1,0.25,0],[1,0.5,0],[1,0.75,0]];outlineConnect=0;fontColor=#232F3E;fillColor=#ED7100;strokeColor=#ffffff;dashed=0;verticalLabelPosition=bottom;verticalAlign=top;align=center;html=1;fontSize=12;fontStyle=0;aspect=fixed;shape=mxgraph.aws4.resourceIcon;resIcon=mxgraph.aws4.lambda;" vertex="1" parent="1">
          <mxGeometry x="440" y="120" width="78" height="78" as="geometry" />
        </mxCell>
        <mxCell id="NKYYEwyB_-JDCd-HGwpw-3" value="" style="edgeStyle=orthogonalEdgeStyle;rounded=0;orthogonalLoop=1;jettySize=auto;html=1;startArrow=classic;startFill=1;" edge="1" parent="1" source="A2vt9VlTmLtmRgiJDuNh-3" target="A2vt9VlTmLtmRgiJDuNh-2">
          <mxGeometry relative="1" as="geometry" />
        </mxCell>
        <mxCell id="NKYYEwyB_-JDCd-HGwpw-12" value="Invoke" style="edgeLabel;html=1;align=center;verticalAlign=middle;resizable=0;points=[];" vertex="1" connectable="0" parent="NKYYEwyB_-JDCd-HGwpw-3">
          <mxGeometry x="0.2927" y="-1" relative="1" as="geometry">
            <mxPoint x="-11" y="-1" as="offset" />
          </mxGeometry>
        </mxCell>
        <mxCell id="A2vt9VlTmLtmRgiJDuNh-3" value="&lt;div&gt;Gateway&lt;/div&gt;&lt;div&gt;&lt;br&gt;&lt;/div&gt;" style="sketch=0;points=[[0,0,0],[0.25,0,0],[0.5,0,0],[0.75,0,0],[1,0,0],[0,1,0],[0.25,1,0],[0.5,1,0],[0.75,1,0],[1,1,0],[0,0.25,0],[0,0.5,0],[0,0.75,0],[1,0.25,0],[1,0.5,0],[1,0.75,0]];outlineConnect=0;fontColor=#232F3E;fillColor=#8C4FFF;strokeColor=#ffffff;dashed=0;verticalLabelPosition=bottom;verticalAlign=top;align=center;html=1;fontSize=12;fontStyle=0;aspect=fixed;shape=mxgraph.aws4.resourceIcon;resIcon=mxgraph.aws4.api_gateway;" vertex="1" parent="1">
          <mxGeometry x="280" y="120" width="78" height="78" as="geometry" />
        </mxCell>
        <mxCell id="NKYYEwyB_-JDCd-HGwpw-2" value="" style="edgeStyle=orthogonalEdgeStyle;rounded=0;orthogonalLoop=1;jettySize=auto;html=1;startArrow=classic;startFill=1;" edge="1" parent="1" source="NKYYEwyB_-JDCd-HGwpw-1" target="A2vt9VlTmLtmRgiJDuNh-3">
          <mxGeometry relative="1" as="geometry" />
        </mxCell>
        <mxCell id="NKYYEwyB_-JDCd-HGwpw-13" value="&lt;div&gt;Post&amp;nbsp;&lt;/div&gt;&lt;div&gt;Document&lt;/div&gt;" style="edgeLabel;html=1;align=center;verticalAlign=middle;resizable=0;points=[];" vertex="1" connectable="0" parent="NKYYEwyB_-JDCd-HGwpw-2">
          <mxGeometry x="-0.1635" y="-4" relative="1" as="geometry">
            <mxPoint x="10" y="-4" as="offset" />
          </mxGeometry>
        </mxCell>
        <mxCell id="NKYYEwyB_-JDCd-HGwpw-1" value="" style="sketch=0;outlineConnect=0;fontColor=#232F3E;gradientColor=none;fillColor=#232F3D;strokeColor=none;dashed=0;verticalLabelPosition=bottom;verticalAlign=top;align=center;html=1;fontSize=12;fontStyle=0;aspect=fixed;pointerEvents=1;shape=mxgraph.aws4.document;" vertex="1" parent="1">
          <mxGeometry x="120" y="120" width="57" height="78" as="geometry" />
        </mxCell>
        <mxCell id="NKYYEwyB_-JDCd-HGwpw-7" value="" style="shape=curlyBracket;whiteSpace=wrap;html=1;rounded=1;labelPosition=left;verticalLabelPosition=middle;align=right;verticalAlign=middle;strokeWidth=2;" vertex="1" parent="1">
          <mxGeometry x="760" y="109" width="20" height="100" as="geometry" />
        </mxCell>
        <mxCell id="NKYYEwyB_-JDCd-HGwpw-8" value="" style="shape=curlyBracket;whiteSpace=wrap;html=1;rounded=1;labelPosition=left;verticalLabelPosition=middle;align=right;verticalAlign=middle;strokeWidth=2;rotation=-180;" vertex="1" parent="1">
          <mxGeometry x="870" y="109" width="20" height="100" as="geometry" />
        </mxCell>
        <mxCell id="NKYYEwyB_-JDCd-HGwpw-9" value="&lt;div&gt;&lt;b&gt;Anthropic&lt;/b&gt;&lt;/div&gt;&lt;div&gt;&lt;b&gt;Amazon Nova&lt;/b&gt;&lt;/div&gt;&lt;div&gt;&lt;b&gt;Llama 3.2&lt;br&gt;&lt;/b&gt;&lt;/div&gt;" style="text;html=1;align=center;verticalAlign=middle;whiteSpace=wrap;rounded=0;" vertex="1" parent="1">
          <mxGeometry x="770" y="140" width="110" height="30" as="geometry" />
        </mxCell>
        <mxCell id="NKYYEwyB_-JDCd-HGwpw-10" value="&lt;div&gt;Invoke&lt;/div&gt;&lt;div&gt;Model&lt;br&gt;&lt;/div&gt;" style="edgeStyle=orthogonalEdgeStyle;rounded=0;orthogonalLoop=1;jettySize=auto;html=1;entryX=0.1;entryY=0.5;entryDx=0;entryDy=0;entryPerimeter=0;exitX=1;exitY=0.5;exitDx=0;exitDy=0;exitPerimeter=0;startArrow=classic;startFill=1;" edge="1" parent="1" source="A2vt9VlTmLtmRgiJDuNh-1" target="NKYYEwyB_-JDCd-HGwpw-7">
          <mxGeometry relative="1" as="geometry">
            <mxPoint x="528" y="169" as="sourcePoint" />
            <mxPoint x="610" y="169" as="targetPoint" />
          </mxGeometry>
        </mxCell>
        <mxCell id="2f1SxocfGF5T4pTtZGDi-1" value="Sanctions&#xa;API&#xa;" style="shape=image;verticalLabelPosition=bottom;labelBackgroundColor=default;verticalAlign=top;aspect=fixed;imageAspect=0;image=data:image/png,iVBORw0KGgoAAAANSUhEUgAAAHoAAAB6CAYAAABwWUfkAAAAAXNSR0IArs4c6QAAAJBlWElmTU0AKgAAAAgABgEGAAMAAAABAAIAAAESAAMAAAABAAEAAAEaAAUAAAABAAAAVgEbAAUAAAABAAAAXgEoAAMAAAABAAIAAIdpAAQAAAABAAAAZgAAAAAAAACQAAAAAQAAAJAAAAABAAOgAQADAAAAAQABAACgAgAEAAAAAQAAAHqgAwAEAAAAAQAAAHoAAAAA/EbK+AAAAAlwSFlzAAAWJQAAFiUBSVIk8AAAAm9pVFh0WE1MOmNvbS5hZG9iZS54bXAAAAAAADx4OnhtcG1ldGEgeG1sbnM6eD0iYWRvYmU6bnM6bWV0YS8iIHg6eG1wdGs9IlhNUCBDb3JlIDYuMC4wIj4KICAgPHJkZjpSREYgeG1sbnM6cmRmPSJodHRwOi8vd3d3LnczLm9yZy8xOTk5LzAyLzIyLXJkZi1zeW50YXgtbnMjIj4KICAgICAgPHJkZjpEZXNjcmlwdGlvbiByZGY6YWJvdXQ9IiIKICAgICAgICAgICAgeG1sbnM6dGlmZj0iaHR0cDovL25zLmFkb2JlLmNvbS90aWZmLzEuMC8iPgogICAgICAgICA8dGlmZjpSZXNvbHV0aW9uVW5pdD4yPC90aWZmOlJlc29sdXRpb25Vbml0PgogICAgICAgICA8dGlmZjpYUmVzb2x1dGlvbj4xNDQ8L3RpZmY6WFJlc29sdXRpb24+CiAgICAgICAgIDx0aWZmOllSZXNvbHV0aW9uPjE0NDwvdGlmZjpZUmVzb2x1dGlvbj4KICAgICAgICAgPHRpZmY6T3JpZW50YXRpb24+MTwvdGlmZjpPcmllbnRhdGlvbj4KICAgICAgICAgPHRpZmY6Q29tcHJlc3Npb24+MTwvdGlmZjpDb21wcmVzc2lvbj4KICAgICAgICAgPHRpZmY6UGhvdG9tZXRyaWNJbnRlcnByZXRhdGlvbj4yPC90aWZmOlBob3RvbWV0cmljSW50ZXJwcmV0YXRpb24+CiAgICAgIDwvcmRmOkRlc2NyaXB0aW9uPgogICA8L3JkZjpSREY+CjwveDp4bXBtZXRhPgpgtfwkAAALPElEQVR4Ae2de7BVVRnAv3u5vMTLU16SykteAon4IEFBJM2KKB9Mk07Pqalmqn+c/mvM6r+caWrGpqbG0Wl6TGFlmRoKYYaBiCiIQAFCGs7lIYEgj8uj73fXWe51Nvfsezn3nL33Ont9M/vsvc96ft9vr73XXq8tEqQQFmhCyweWnD1bCG0LquS9jzU1NRdU98KpHUAXBHkAHUAXxAIFUTOU6AC6IBYoiJqhRAfQBbFAQdQMJTqALogFCqJmKNEBdEEsUBA1Q4kOoAtigYKoGUp0AF0QCxREzVCiCwK6Je969uotMuODIrMXi5w5I/Lo/SKH92ab64EjRO64T6RZi8n6P4tselrkdHu2eeoq9dyCBvDMW0SuvUPkwqGRGlNvFFm7LDrP4og8DB1jUr75SyLX3SnywqMiG5fnF3juQLf0UcC3ilzziXLAFmhzDnIczwMX4sIvmoty3R8U+F9FTp20Oc7HPgdmM4YA8Ps/pIBvFxkwOB/GOd9cAPymL5SA/17klafyAzxz0C19Ra68TQF/XOSCGOCjB/WWqAYbMESNpxdAHoX8kU/yRz4RLtQFnzf/rfujyMtPKvATxi2r38xAA3jWh0WuBvCgcvWPvF3+zPvAJ8vd83TGLfolrZBReuN1Ci7c+Z81j6EXFfiGJ7IDnjro3v0M4NkAHliO7J0DIuu0hOS5UlOe4+iMWveGv5i8A5xHUOsw486FfONn9KLWesf6EvD241HYNI5SAw3gqz6qr0kfE+kfB7zflOCO15RTaahdvzTeA64VMl4LeWtovcikx4V9w6fNXWz9n/RO8LhIWsDrDrpPfy3BFnBruYEP7ysBfkbfkT0HXK6ZvmapPjybN+o79oxFBvjA4cYXF/q8e/SiX6IlXIFvUOAnj8VjqO153UD3uSAqwf0uLM80DR5r9b3z1RWNB7hcU6Mfz+9NejFPv1nfubWE0+CC9NcLf97dWsJLwCnhJ981brX+rTnovgMU8GIDOQ74UJtp7Ni8Ug1wutaq5Ds+7li8X7+qwK9YaBpZBo00ecZOcz9lHmvApnJ34mht9akpaK5YXiuA7QqA1/xO5LW/FQ+waweOucCpi3CxT7tJZM5dIi7w6/UNg+beVQ+ZO148fLXnNQW9UJsDe+trk5X/vVUCvErk7Bn7b9hjAYBTujuALzDAB482tqGgYEsebbWSmoJ2IT/5Q5EtzwbAXYGiAAD7tVUiU+eL3PYNE8K1ZVdxdMdd+1/qI9ymQynuvm2xFTarl9QNdL0yHOKtzgIBdHV28y5UAO0dsuoyHEBXZzfvQgXQ3iGrLsM1fb2qLgvnF4p+XzpHXHnwnujscw+Wd3vSX0yPGEKLFA06rlQTlkESvol3oDFykqH7ahu72/Tq+mUcmusWh9WTsPG48nYebt15I1Kn/HhXohl8x2iNSvLI10Xc1dNOOh38NEhsX1MppEh3wzIqhsGLPol3oNt17NW7hyqb+Ng7ld0Y9pM0OrO7YcmDbxJu3b4RqzK/AXSVhvMtWADtG7Eq8xtAV2k434IF0L4RqzK/AXSVhvMtWGFBM2wnPrbNN3jnk1/v3qPPR7kkv4u+LHLxFJF//1Nk9a+yn3OdlNdauBWyRLfqQPpLZ5qBjMx1LsLQ44YCzRynW7+mAHX6T5JMX6jNpB1fExHZ9bLIkQORb8ISR3ziX+TDz6OGAd1fIS/9npkNcfu3tIfLGXYcR0N3pRV3SC1hCMv4dOIizkaRhgDdAfm7IsMuMVh49o7RrTO5ZEY0YJ627R1rI1+EISxCXEs1zkaB7T1oJqwt/Y7IRZcaQDxvn/iByO5XzHn8d/qi6B/GnTMZzgphCGuf2cRJ3PHZn9a/T3uvQTNJ7S4gX2ZMDiAmDmz7R+cImPh3+ZzIbfOK6NgeEZY43oOtcZMGafks3oLup4a/UwEMH2vMzwD4p34ksvXvlXFMuSGaMrR3p8je1zv3SxzEZScgkAZpkaav0uxrxhd/U2TEOJN7C5lbcZJQybLiVsLsf+6euFzYpEWavoq3oC1kDH9I51vvWJeMgMrV6EnGD6sSbNFS25UQJ3FbcdO0//my9xb0yp/rrfWsMfPgUfocvT+5SdMtzdtfEDmeMBKFWGke5dlM3Ahpkaav4i3oLatEluvQXgt75ER9jlaAzRiyaQsiRF3dtoFMXCMnmDCkQVqk6at4CxqDM7/46R9HsEcB+9si1K5dGX+1tnQNNv+w8tFubQ2rJIQlDuJCgEwapOWzeA0aw7N6wDM/cWBfXoKti+RYcd+dmYtsa9PW3e5ZWKcDssaBAJm4ScN38R40AFgbZMVPIxQjxuttt1QiabMePztyA3QlIQxhrRAncTeCNARoQLDyD2Bo6Xr8+yJvbDJ4WCekuZc5fnOzCMttVBLCEJY4iIs4G0VaGkUR9GBdr53ry/uW3dp2V5Uw4tiubd8PfbU8Dv73XRqmRFsQ7qLto/RZazs6WLBt22rrK3nvxpHs0x/XhgPtmp4V+6wAOesVdm1estg3NOg2bc8+8IYxa2cdGFkYPKs0G+oZHTciNWY2Gj7adsRdi3Xe0CXaoiw6ZOxQCNAWeJH3AXRB6AfQAXRBLFAQNUOJDqALYoGCqBlKdABdEAsURE3vWsbGXXXuGOuVP4tozb1bx3s5I0zozdr1knEfq2Hdvmn+dcPyfUlX3LDM4GC4MEJniW/iHWhGctrRnNbYLiw6MuynA3Fn2o0FTbhZH7GhzN4NG3dzwzJJIO5eHlO+z8IzOt98apY770r0rg1aQnWrJM//JpqNgZ892yKfhEv6rhRfpnHFDbtnq/lyDe5jZ5nN9Zv3Y+9AY3y+/lZJksZ4vaVh2SpJUrz7d4uwIYwUBbZPEm7dPtHqQV4D6B4Yz6egAbRPtHqQ1wC6B8bzKWgA7ROtHuQ1gO6B8XwKWjfQRVqVr1bA62mzur1Hf+Vhs4YX46lZ+afeXzyvlbHTjoeJfROuE5k8V9/Nr6xf6jUFzZogdlUAvkgz4RqznWo37c0sBMMqAu3H66eQDzGzaB22mTxP4WpHS4vaKi6V1leJ++vueU1BL7tPZOYtRgG7iAwZQZGJetWy8T2K17VHCeg7X0z+xkV3lfDBH59lYp42cMfp7M5Knw3et8vYZuPy2mpVU9DHDousXWa2IRcbpVDMrgFG1lFw0vVmo2RTwrm9A/+0lvxGEu5qQOW2TAmutHTl/v8YuFz8B/fUxwI1Be1mkQyv+a3Zhr7P9OVOUoWH6bEVFKePl41nOGuL/EuVpfOBqas+Si+1KO3gk/QCn3ittovrM7gzOfCm6qoX+NbnRN7W43qLZqv+giLP/9ps9OtSytmGjI7SxiDT5pvtxFEDnSs8aRmKKHS2R8y/vkwrUugE3Eq154M6Nxud2GwHSVo5b0krIZuO7QVa/UuzugC3NQw0aKT1YQx1hU5gZzt+JPk7V1GobI64G/GtzEqfQjzUVoKrpZdF7LKS1EG7inas3qfKP/cLsxTFFAXO7X3g8MgXBqxkxMhXdkdDx5yb9uF9pduylty27ee6Z/FPpqBdhTEI27MP61ChyVrKFTjQW4e5vvJRS+/sa3isdsQzl4plUp93uTbpneUGtKuyHSDAiI8xU0vPvjmmVs7zLWshD7xGUqvmW5ec/3dL1rlKTr8J5weW2GXZkj0HVz8tcO9jTe53Wf1UIuS6exaoW6dG95IPvtKyQACdlqUzTieAzhhAWskH0GlZOuN0AuiMAaSVfACdlqUzTieAzhhAWskH0GlZOuN0AuiMAaSVfACdlqUzTieAzhhAWskH0GlZOuN0AuiMAaSVfACdlqUzTieAzhhAWskH0GlZOqQTLJCGBf4PSEjiZup1RlUAAAAASUVORK5CYII=;" vertex="1" parent="1">
          <mxGeometry x="438" y="270" width="80" height="80" as="geometry" />
        </mxCell>
        <mxCell id="2f1SxocfGF5T4pTtZGDi-2" value="" style="edgeStyle=orthogonalEdgeStyle;rounded=0;orthogonalLoop=1;jettySize=auto;html=1;startArrow=classic;startFill=1;exitX=0.5;exitY=0;exitDx=0;exitDy=0;entryX=0.5;entryY=1;entryDx=0;entryDy=0;entryPerimeter=0;" edge="1" parent="1" source="2f1SxocfGF5T4pTtZGDi-1" target="A2vt9VlTmLtmRgiJDuNh-2">
          <mxGeometry relative="1" as="geometry">
            <mxPoint x="528" y="169" as="sourcePoint" />
            <mxPoint x="610" y="169" as="targetPoint" />
          </mxGeometry>
        </mxCell>
        <mxCell id="2f1SxocfGF5T4pTtZGDi-3" value="&lt;div&gt;Check&lt;/div&gt;&lt;div&gt;SDN List&lt;br&gt;&lt;/div&gt;" style="edgeLabel;html=1;align=center;verticalAlign=middle;resizable=0;points=[];" vertex="1" connectable="0" parent="2f1SxocfGF5T4pTtZGDi-2">
          <mxGeometry x="-0.3415" relative="1" as="geometry">
            <mxPoint y="-13" as="offset" />
          </mxGeometry>
        </mxCell>
      </root>
    </mxGraphModel>
  </diagram>
  <diagram id="nROecDpEKoR-zBN0q7Lp" name="Page-4">
    <mxGraphModel dx="2074" dy="1154" grid="1" gridSize="10" guides="1" tooltips="1" connect="1" arrows="1" fold="1" page="1" pageScale="1" pageWidth="1169" pageHeight="827" math="0" shadow="0">
      <root>
        <mxCell id="0" />
        <mxCell id="1" parent="0" />
        <mxCell id="A0cYuQArKbMQOluSTTL2-2" value="BedRock" style="sketch=0;points=[[0,0,0],[0.25,0,0],[0.5,0,0],[0.75,0,0],[1,0,0],[0,1,0],[0.25,1,0],[0.5,1,0],[0.75,1,0],[1,1,0],[0,0.25,0],[0,0.5,0],[0,0.75,0],[1,0.25,0],[1,0.5,0],[1,0.75,0]];outlineConnect=0;fontColor=#232F3E;fillColor=#01A88D;strokeColor=#ffffff;dashed=0;verticalLabelPosition=bottom;verticalAlign=top;align=center;html=1;fontSize=12;fontStyle=0;aspect=fixed;shape=mxgraph.aws4.resourceIcon;resIcon=mxgraph.aws4.bedrock;" vertex="1" parent="1">
          <mxGeometry x="1000" y="141" width="78" height="78" as="geometry" />
        </mxCell>
        <mxCell id="A0cYuQArKbMQOluSTTL2-3" value="" style="edgeStyle=orthogonalEdgeStyle;rounded=0;orthogonalLoop=1;jettySize=auto;html=1;startArrow=classic;startFill=1;" edge="1" parent="1" source="A0cYuQArKbMQOluSTTL2-5" target="A0cYuQArKbMQOluSTTL2-2">
          <mxGeometry relative="1" as="geometry" />
        </mxCell>
        <mxCell id="A0cYuQArKbMQOluSTTL2-4" value="Query" style="edgeLabel;html=1;align=center;verticalAlign=middle;resizable=0;points=[];" vertex="1" connectable="0" parent="A0cYuQArKbMQOluSTTL2-3">
          <mxGeometry x="-0.3415" relative="1" as="geometry">
            <mxPoint x="15" as="offset" />
          </mxGeometry>
        </mxCell>
        <mxCell id="A0cYuQArKbMQOluSTTL2-5" value="" style="sketch=0;points=[[0,0,0],[0.25,0,0],[0.5,0,0],[0.75,0,0],[1,0,0],[0,1,0],[0.25,1,0],[0.5,1,0],[0.75,1,0],[1,1,0],[0,0.25,0],[0,0.5,0],[0,0.75,0],[1,0.25,0],[1,0.5,0],[1,0.75,0]];outlineConnect=0;fontColor=#232F3E;fillColor=#ED7100;strokeColor=#ffffff;dashed=0;verticalLabelPosition=bottom;verticalAlign=top;align=center;html=1;fontSize=12;fontStyle=0;aspect=fixed;shape=mxgraph.aws4.resourceIcon;resIcon=mxgraph.aws4.lambda;" vertex="1" parent="1">
          <mxGeometry x="840" y="141" width="78" height="78" as="geometry" />
        </mxCell>
        <mxCell id="A0cYuQArKbMQOluSTTL2-6" value="" style="edgeStyle=orthogonalEdgeStyle;rounded=0;orthogonalLoop=1;jettySize=auto;html=1;startArrow=classic;startFill=1;" edge="1" parent="1" source="A0cYuQArKbMQOluSTTL2-8" target="A0cYuQArKbMQOluSTTL2-5">
          <mxGeometry relative="1" as="geometry" />
        </mxCell>
        <mxCell id="A0cYuQArKbMQOluSTTL2-7" value="Invoke" style="edgeLabel;html=1;align=center;verticalAlign=middle;resizable=0;points=[];" vertex="1" connectable="0" parent="A0cYuQArKbMQOluSTTL2-6">
          <mxGeometry x="0.2927" y="-1" relative="1" as="geometry">
            <mxPoint x="-11" y="-1" as="offset" />
          </mxGeometry>
        </mxCell>
        <mxCell id="A0cYuQArKbMQOluSTTL2-8" value="&lt;div&gt;Gateway&lt;/div&gt;&lt;div&gt;&lt;br&gt;&lt;/div&gt;" style="sketch=0;points=[[0,0,0],[0.25,0,0],[0.5,0,0],[0.75,0,0],[1,0,0],[0,1,0],[0.25,1,0],[0.5,1,0],[0.75,1,0],[1,1,0],[0,0.25,0],[0,0.5,0],[0,0.75,0],[1,0.25,0],[1,0.5,0],[1,0.75,0]];outlineConnect=0;fontColor=#232F3E;fillColor=#8C4FFF;strokeColor=#ffffff;dashed=0;verticalLabelPosition=bottom;verticalAlign=top;align=center;html=1;fontSize=12;fontStyle=0;aspect=fixed;shape=mxgraph.aws4.resourceIcon;resIcon=mxgraph.aws4.api_gateway;" vertex="1" parent="1">
          <mxGeometry x="680" y="141" width="78" height="78" as="geometry" />
        </mxCell>
        <mxCell id="A0cYuQArKbMQOluSTTL2-9" value="" style="edgeStyle=orthogonalEdgeStyle;rounded=0;orthogonalLoop=1;jettySize=auto;html=1;startArrow=classic;startFill=1;" edge="1" parent="1" source="A0cYuQArKbMQOluSTTL2-11" target="A0cYuQArKbMQOluSTTL2-8">
          <mxGeometry relative="1" as="geometry" />
        </mxCell>
        <mxCell id="A0cYuQArKbMQOluSTTL2-10" value="&lt;div&gt;Post&amp;nbsp;&lt;/div&gt;&lt;div&gt;Document&lt;/div&gt;" style="edgeLabel;html=1;align=center;verticalAlign=middle;resizable=0;points=[];" vertex="1" connectable="0" parent="A0cYuQArKbMQOluSTTL2-9">
          <mxGeometry x="-0.1635" y="-4" relative="1" as="geometry">
            <mxPoint x="10" y="-4" as="offset" />
          </mxGeometry>
        </mxCell>
        <mxCell id="A0cYuQArKbMQOluSTTL2-11" value="" style="sketch=0;outlineConnect=0;fontColor=#232F3E;gradientColor=none;fillColor=#232F3D;strokeColor=none;dashed=0;verticalLabelPosition=bottom;verticalAlign=top;align=center;html=1;fontSize=12;fontStyle=0;aspect=fixed;pointerEvents=1;shape=mxgraph.aws4.document;" vertex="1" parent="1">
          <mxGeometry x="300" y="141" width="57" height="78" as="geometry" />
        </mxCell>
        <mxCell id="A0cYuQArKbMQOluSTTL2-12" value="" style="shape=curlyBracket;whiteSpace=wrap;html=1;rounded=1;labelPosition=left;verticalLabelPosition=middle;align=right;verticalAlign=middle;strokeWidth=2;" vertex="1" parent="1">
          <mxGeometry x="1160" y="130" width="20" height="100" as="geometry" />
        </mxCell>
        <mxCell id="A0cYuQArKbMQOluSTTL2-13" value="" style="shape=curlyBracket;whiteSpace=wrap;html=1;rounded=1;labelPosition=left;verticalLabelPosition=middle;align=right;verticalAlign=middle;strokeWidth=2;rotation=-180;" vertex="1" parent="1">
          <mxGeometry x="1270" y="130" width="20" height="100" as="geometry" />
        </mxCell>
        <mxCell id="A0cYuQArKbMQOluSTTL2-14" value="&lt;div&gt;&lt;b&gt;Anthropic&lt;/b&gt;&lt;/div&gt;&lt;div&gt;&lt;b&gt;Amazon Nova&lt;/b&gt;&lt;/div&gt;&lt;div&gt;&lt;b&gt;Llama 3.2&lt;br&gt;&lt;/b&gt;&lt;/div&gt;" style="text;html=1;align=center;verticalAlign=middle;whiteSpace=wrap;rounded=0;" vertex="1" parent="1">
          <mxGeometry x="1170" y="161" width="110" height="30" as="geometry" />
        </mxCell>
        <mxCell id="A0cYuQArKbMQOluSTTL2-15" value="&lt;div&gt;Invoke&lt;/div&gt;&lt;div&gt;Model&lt;br&gt;&lt;/div&gt;" style="edgeStyle=orthogonalEdgeStyle;rounded=0;orthogonalLoop=1;jettySize=auto;html=1;entryX=0.1;entryY=0.5;entryDx=0;entryDy=0;entryPerimeter=0;exitX=1;exitY=0.5;exitDx=0;exitDy=0;exitPerimeter=0;startArrow=classic;startFill=1;" edge="1" parent="1" source="A0cYuQArKbMQOluSTTL2-2" target="A0cYuQArKbMQOluSTTL2-12">
          <mxGeometry relative="1" as="geometry">
            <mxPoint x="928" y="190" as="sourcePoint" />
            <mxPoint x="1010" y="190" as="targetPoint" />
          </mxGeometry>
        </mxCell>
        <mxCell id="A0cYuQArKbMQOluSTTL2-17" value="" style="edgeStyle=orthogonalEdgeStyle;rounded=0;orthogonalLoop=1;jettySize=auto;html=1;startArrow=classic;startFill=1;exitX=0.5;exitY=0;exitDx=0;exitDy=0;entryX=0.5;entryY=1;entryDx=0;entryDy=0;entryPerimeter=0;" edge="1" parent="1" target="A0cYuQArKbMQOluSTTL2-5">
          <mxGeometry relative="1" as="geometry">
            <mxPoint x="878" y="408.5" as="sourcePoint" />
            <mxPoint x="1010" y="307.5" as="targetPoint" />
          </mxGeometry>
        </mxCell>
        <mxCell id="A0cYuQArKbMQOluSTTL2-18" value="&lt;div&gt;Check&lt;/div&gt;&lt;div&gt;SDN List&lt;br&gt;&lt;/div&gt;" style="edgeLabel;html=1;align=center;verticalAlign=middle;resizable=0;points=[];" vertex="1" connectable="0" parent="A0cYuQArKbMQOluSTTL2-17">
          <mxGeometry x="-0.3415" relative="1" as="geometry">
            <mxPoint y="-13" as="offset" />
          </mxGeometry>
        </mxCell>
        <mxCell id="qfDsyvSXAk09wTS77NSX-2" value="OFAC" style="shape=image;verticalLabelPosition=bottom;labelBackgroundColor=default;verticalAlign=top;aspect=fixed;imageAspect=0;image=data:image/png,iVBORw0KGgoAAAANSUhEUgAAAOEAAADhCAMAAAAJbSJIAAABO1BMVEUAWpz////n1Gg2mNQAWJsATZYAVpoAVJkAT5cAUZgAUJcAU5kAS5UASpXp1Wbp1Wfs1mMAUp4tltd7t+Dy9/oilNmBr68AXZ4AUJ/v12AAVJ7g0WTv9fmcyvDR3urp8Pbh6vKiu9TKyYLE1OStw9k/d6y8zuCDpMas0/Ti6vJulb3X4u2w0+xlrdyQrctXhrQmaqVmkLrf0W1ThLN7n8M2cqkhZ6NCm87TzXfMynuMsqrQ5/Wnv9ZIfbCOrMsAQpGkq3yXtqWuvpVipcCuxKd1j4m3wo2FmIXVym19rbPPy3tKnssAkN6/xYeTtaZModiws3gjfbs1bZWdp35af48vapZipMFxqbmovJiRn4Jgg41FdZJ9lIa+1MuFuMy21OGcxNJ5tdR5tuj521QAOI28uHaKwevD3fVcgY5uRHOdAAAgAElEQVR4nM19C3vaxra2xoxGd5CxiEJCEIRbjGwuBuQkBpx7nbipu9M2SZuefU73Pk3O//8F31ozEkhCXJw4+/nmeVo7IMO8s+5r1qyRyH9wOJWK53mVivOf/FLpu3+D57fr8+5s4lJFMcRQFBZMRt15ve173/37vydCr10fTlzDVDVDYYxKFIYkiR+UMcXQVdNwJ91643vi/E4InUZvFKiypjCJgwJYDCmo4eBURJTiHUWT1WDUa3wn3v0eCBudliFrDAEArQxVVpkUtEbd8bzX69Xrvd680+23AokBNEMRdAWYxmxe/Q6zuWmEh/WRKvNZc2zyYNhr+rVs8jggor3uREWcYjFko9+8aY69UYS13sDSkXZUAQnrz9s1fLXiN+qcaK5hiWFIqGg69XaVw/EavaFkqQbDP9StSe9GQd4cQq8+ANYEWsAkg24TwcHUuwNgRa5qQsGTFmKpaEBjNRj22of4bHs8sVQFl0eTJ9PKjc3rphC2+4bOaSCz/tTjqmYmaaomxGz9oFQxVJVO5m3AVGkOXZmDVI1+44ZmdiMIvV7AJ6aYbhcn1uhMmIxMt/OghqoNxm2Q12pnYCpoTeSgdyOEvAGEftfQAB5TKcLzpn0mJymHFgFsX/wlUKOynlwCoKaqtXrA3X7HVdF86kq39v8BwsbMQvIZ8qwNbFZvmbqSpI2sG26r25tWBwuIVJ7Vq9XpSE5zMGWaNZgDrMZQ1QGjYfa/2YB8I8LGxGRIPm0OstdsWdpyzgzEi856S8dsFNGMuVVSmU5rpOriSzQQejR617AG9Qpx6q4MLyrW7BsxfhNCwIfSZ02aID9DU11Ok5ps2PaZ0UOV45HGuaV5PSOEEDikban6eZc4Lkqc74R6NFoeoOQIOKIxQvZg34jxGxD6M47PHMEEmgM5wZwT4LQ2lZQxMeTzNqmaktFtauJNuUYOVfzFahLfhIetHl+uTktdfgZT3Z5Dal3ZAIxy/xvk8asRVro4H0Xu+6Qyl0I1Qim4JfjTbU3IXJeUoS9L+pQ4Ftc3/BmlS0iHk5PNCBkC3TVA6HJF2o0pH6oZoGi8sYYY1fFXe61fi7DOAB+TRz7MQdGiSSmtnj+XuctmVqtAqGDGJGNOCMpnyIMqKNxA+KwusCs8JFeJbymqPCX9hHqF5YL183ApqSZN/6MIqwMVNWKrit9vRNpeUn3+pouvKB2C00U9NCQkpkcVj1QUgVABPgQ2lRxS13AFSARQiTQWM0fA030UB7nl/+cQdi20Vm6bOGPTCPnTHABh2PkErfQQpSvgHIhvtQjpx6QUYOniDeYQz+LMCu9D1NhUQ4DjqRSpLcXqe6Q6kQGt1fkPIWwwAxcXhKenhvgUq9UgbSSHzJmpDcGC5YUTBqxkbCx5zyEgnBGXwq+gcMnAMluerIdPqA7qLjPEyCwQwiZ+qeZ+hVa9PsIusAw1+xXSdvWQ2SwQF79NWqha+2QIBrAyktVmJaJvhfS0BUKttqAhEBfkUEZHz2k4zRAgQPa6oEjbLSukvKHVYZH4946/O0IuZAYwaI3bCvx6fVgDyyhbc24OXNIBKwCqyOyTiaCC7HGFEg4d3hWvGx3UpSiN01bdi5ga1qAZaLoFBqLal4XESuoAtNEANLY+uK40XhPhHPwMKneRQSPJ6njECxCty2cjV6umPAQ2qw3IXPAmEKkqLxCyAfABNymWT2qqsBm66oYKlkOk/NUmvN8NVTAzuw6Zq2g46t8RoTODr1BoWywn8qektdu+UJVylet6sA0aVVzOeSEutQkKZWkH9DnxAARDQz8RxgRcm8DXpdhA1tUsroWVkOIufq8GC9z/bgirEmg8eeSQjmBQqo5hgjIokiZAsaZVU5AI2E0IjOPyx87r4JROlrMHaJXxBAJAZwYfaDW4yaBaHCCbAJ/rktX2TaXbFx46NYcojSDr7nVcnGsgrIONYGadHA7EamtBrY3LK4ML6eoWQJrgTDShQ7XAF0aCgpolTq3hLp1yuYUOjFdn8OczwNJUpdQw4TMlNLBdhc6cuilEwqAN0gA1zfDtm0fYtcTqIVD+dWPicFry9e6A7qs1VKAy6FCTL7k1Fwpm0B1guiIRHqomvMQVEyqORuJNSRgY5AvaB5iwqN4stC9gEp2Wyn/eNEJnBoRDCehHQZ0Mc+uokcw4PUk2fC3oKODCDERwq86EqtmYyVCVybzhuakX60QoYgyEwWoSZxoqVX3ikTGssbqzMO6I0AtgrvKc+MHCdKPWF94Y6r25hS+xoSczDcKEMYfIDGn7QG89TUIA1TDDf4CckqEyZlR4cgprA1eD/E929MV3Q+hTBkEbfHQswjVQl/h8cmqVONy6Gx0HZIx4zVl6zpjGD1PemPRW2DLzJklS6mkMNmah8jXANDVNientOs/kga6bg1VWQGJ2SzruhLAKn81AYjpWbBpAOfDQ6iggrC/8MmbVHDaeDyw9PnvMGmosmA3HmPGuY9K7M5wNqKGqmpKRrjIU8NqqZoQdGIg/ZNRqE6GR5CGpDEDf0J2M/y4I20AoJaiACPLvjNS6QrrgJrZQzZkY1BrWCKJ5SYlnJDTZCrq9Ri0rawb6td4dWLKuJEhozIdNsnBwTODRGWd2q4qOkqAxcCjoBabt4qbugBA9aq1FnAn/Ii2ohxJheVP46woCxqh23AXnbGAusr5Ms9xhnS9zrTqdd2cDyQxz3iYLWsNOvcHNWq3ZDaxY+opizsALuUWDDyZTZE8dtGej0RDLy6RDMpSBYXdIqm5H2IRJ6yPiiawRt+QdnrJQG/55FymMaJFITXeRqWGqNqojAB/IpGG+TWGJBCNlig7MGwx7VYengqXIBYW4etImPW4+qUvI4cxxRrAmsBYm2AmFrwUzqmQsCzX+rQjbAFAdcl2DExN7YLU++KdGz+Gmd6gzbQDmwo1SGUxmQzTJ1XmL4gbbelsBQDVZmfAMRmPMk2tifYJpgFYGAcxU1iRT5NEW+EpKvcuFkaptcJJFxuDbELYtDrCqhdFsV+0SBNkYqAoGDxAYkEm/43VoqF2opmKezGn23Sg63jJwz0mZQXBBGkMWpolR2JWeOxeqTO47FXT28Y2BMxbCKDdJDxl1myxuQYi+M2CqCvKAw6RIZpOMUU/XNYzilRH86s2iVAZT3bkH8EaaqmTCWYtSN1s8SzpYcLpSx4/m5gh4hNS49FPVA7eY/4klIBpbnNTNCH1NUFAWH+53UebUin+O+T9n6NQ16dwHKxmiYfKgjZlTVd3AmetR6la/LZLo4gV1AgaK62/0nyZCDyBX9pYQwVLSzXZxI0IPhE/rhxSkmGeag+/GWqR37nLftyErHdIPTZdI3dYDS/kKeCHZZIpZ0mGIETOpmClX5yGPQrCBiWIQS6HNm7gCmGH+SoROAOpkxgmJkuGTcb+GMaDaAxNlzoA7KqbScaPZAD5nrulfDU8MTe7WlhjVVl9RVXDtfb6M1hQFR58JBQ4UbRJQPMrkaxFC9AbR3iHnOArquaUqQneYfoXBeo8diMtDfPIEwr2xuosjumWAmzoEjCNBJqYEXscLHWDMfvnAIcaENASjgLLta8hnX4Wwq6ML7AjDBO5DY+Gz0QF3FTW3HogXDGlKnI6xm+7cPhQdvIdGINSbMvNCHlUxZOIso3ejzI/uo1eFbHx9hOAhUaVGBryIgOvkxiLZoo9J93wCyy0Aq+AG1CVtZaZfPaihoegZwrprdR6mgU4nnueDajHA659ExrfiBJTL53URVi3OAyP+JQAQI/UlFeGdRiUkoD6oiiT4TQ6qu01wZ4QSl1uVvszTMwE99AKzrnj9SB7A2TlU+HbPNRE6IrgecyvLquDoon9RjSCqyCYiewKhPMT/19nS3hGjNauAMIhA02w30V2cKGj+nIbhLq0t6EJYecwKXA8haBnweuscEQV9agk3PzT9rO8MhSYwIKhq7xTpRhPf/VEFlrgSRkzcDs4UnjOpnic+BGQEzKIxvB7CuYpqtBoG30af6zJ0QqsirggCvogUQjW+S7HzYMF1VkNteWTOwxU0DPVzCdPFvpx6DDetlHA/YVeESCrVcxbpMb3DMy6cihpFkglSqtNwp2nXcfuHu+/uXON5pjRJg1skCgSFgAm91WQVhPBFIPJZ475lInTgeSDYTAm/BQLgMD/PqTjpiTcU4NC6eR0Lcfulnb/7af8afyFZXeJNNA6xR8YmY1bM4VXcAfflXEynsGzDn4mwa2B6ZM7Tooo07C7JpGLBBRnyL9FaDl/VnQe9/Wd5b6+Q/+P2dSDqrUr4NfKYTAet+ngBUe1XhGcOYU5dFfZyJ4RtC3Ww0Js6BtlkvMi4I6OO+L9ABL1BnEPZ/p2N9GT7TwAgjPLvt7eo3kS1EaPVMEOEUk8arcUOzpTUyJRrAXOKHGdmRVJZCBVuAHmSUws1VCuauzEKAZod4scnQm9/evMLXY+R3v7twt4Tw37z2yZOBVq/ux3PZcnN0NdW+9WWufhS2tLOwfEXuzweOJIsy2RkIOxyL4hzIvi0TQlML9+F5uvpVvoIEIWiHRfBO+4TO2/v/eDuZ5KH3mG/2/m9aOTzP+yvU1D0jvt32X4SxBYLYwzhaytq/OMpd2bcMPHeNnHTZweEVRP9Tr6hCy5R45zi3km4s2AMKGdMKtcX2X0OfP/lXU4g++4v726vuKdsn/55Yu/Fh33x6+pzHN8d/lGwWHdia2COSUPLeFyRGqFNg4AHTcaqPl1FCNpJ9oWhANWJ3GF0SFfWsNC1G/rhaJyWVpDuv3u0mL+df/Tyt/07BuPV3BRMy77x7pcTu7CXHHn70a/GnRTBYSleRrxsX/wR4weAWF1ZESqPMAM2546XWnMUnn7fhhB0kjYWW5hcN1VdRQXXwsMBSo2vK8h1bwnwjvtLjAFx7vmHv7x8F0gM5DR49/LJhb2kX6EQe+7i99/u7PO1yFqKgv33u/0FKLlLGinfl/LN0mld5GwhMJ/KmL3ZgtDDogixZUtHFawNdEbqIobmGW70V5cA2e2XKQbkk7fL9snFxcUJ/IyTr3BxEv+XbV88efkpwBMKwac/n1yUk6TO20/chX8ArnAjnnMX+3dkaJk1j687SM6E8X2cjQiBSLAMAbejk4lu4Sr5/rA7Ho87nbkwS/Mli9Lb7x6V0/iW9Eqz5l7+1ZvkawASFiGfL8NK5FceR3G8HYkjmMN2CBEpa3WJKCtQhmGwqDngPutpo5hCCD4fpmHCMhHAaWLMUlUgujcUkYwFC9mM1vIO+6WcX5nWhmE/fXut5+EvTv6IrKfcweQa5y5XNzAi7KG2A8UvigLB+e4qmIzbhHAG7prvxDcsDeQFZyTTML8EwUo1NBOgQVcZdMt8b3285l8AlR99Cq1jFM4Zc79bwSQmN1wz0sedWXy/6nCSbkAIUTwsxDBhqoQ894xmh8vzgHjagkFXNOS2UX7++LoIuTgK64h2axSFAKQtnGXqggEb8IIdOkFFKfsbEA4oNTw/Ic9hiAQMLHYIa2HEcYf+kr8mwyHC0w9rxXbDAHE0xL5QjRelUKkS5oUlbvep7gSheQsoG61H2DDR9o1WstVGcMhTizxE5IvI9v+4LoPiKJzkLr8G4cI6QijvowwpIxKPSlXX4T4JvA0/LX8twgmVmFO10gDhAwei9g4sJOpTuv/b3+VrMmgBNWX+TfF0D/8wQ21u+/vyI3RWIRhv8vq5em+5387z/5yIIFEDpvTXIQQSanPCXffoGAgTRQZWW+z1Tri+vmP8bl+HQQtoHi9eXeT38m9LuYsCuKX382gdrocxXwbrSOVe6DJHnKYpvMRYOK4QKcJPq7YGIVa7OrxCQKv7jXZv3O1PXM0yZasr/txEB166DoNycCdvX/zXWYX89dC2PxZL9/P2yT8fHPz1+NVDtITXIaad/8GgoEjCZA8SUTN6fCtsMiQ8GBZEHGYjBA0DUsgrBOLuneM3qoKwMg/C6JPdTKAAd//jf/33GSj2L58f3CveL98qFl+V3x4QzzkrlYqnH57eP8k29WtG+RHD0FXszPRUTekgvupMZmGxJxARfsqHmQiHCpUrYYUABr7e0v/hhAXYdSwNZu8eboMI6Mp3Hz776X/+G/ildnRwVSzmirlc8e2HYvHpx3+RB6UcH8ViKXd569nDvV2JWfjEMP0wRtug1uZzdLwr1XMFt/lFOYg6hXDK6GQh9DSqdBeKFJy8mRZMwMTW2xW+s0U1zxOm3pAu0hCX00Nw+YtXP/3z6As4F2cPjgFGLj5Oi1f3Eq8AzNPnT9+egGhuW7nyr+imglVEiyUYzR8FZGwxfRDubYA6retYpruKcK6BhNYW7jt8zEDRnJ6pnde5FOKOU1TR+ikxFQgmFpDtu2+ffvjr3plDKl8+HxdT6NYOQFm8fP0RJHPxyba94k/YP9wWNl4wlVkl3tACX47UZ2MnrBNEm2hRdZqB0KXgkcaqlWWvYmIlpaR0cI9A7MaE4/aTmK7Jv/qfg9KJmFn51b8eCMbMlXYEl4CZe/8w/OTy69fPHiYh2n+HKSzwrlGfAhEpShZxlsqUR1FjI5Z3WyCE99U2icXRQO6qww9GcI/UqpJYTP9bPo7w7Kh4CYFdIV9+dYWMuTPpMlCe8gi4UH4K0pry8O4uMqUQMKHdN6tdhiIXYFDYiMJl2a+ZsaTUAiHqUORgDo7X2oHf4CxSMWBFx7HNpf2/lxALJ/fOisXTVyd7D18XnS+l4voR0WrD+8Xcq3K5nH98RRwwLAkSvlzEijA1zHXSQUBlB3hLDYaThXyBJmoxpZtGCHrGmIeFyHrQn2HtBXgwXZVy0FT2avHdXeNlbHntx1d8aqfFz+QMVMktMR6L8RMfT/m4PMgt388Yp3wBLh/furxHaleXCRIWHsZyU6ZQNhRdFJx1WEgsSmJkNBjMSSEE6qk1sZXMY4naBBjdbJKW20b1YowTRyaAhWPfDt6mGIQ8AKvwE1i47FH+QBDhv9e+/5OgcvH4wdFxsfQqgdD+IxbyQIhT5+bPcGL1tzTg5+PUJgiU2kwhhKgCJFSJAOL2Gv7uE4cnEq1Kaj/kTlwL2G+FfTtGo5c7WWvZyv9EhMW9dQ8UTiL5RfuZjEIKJ4n6DrnJPRsuhcvX3QqH3YJIeBFhhAhh/qBgNaEzvfkcyy4Mrm0cfFEZLyxFJIhP4jJSflaKplZ6u96lK//FEa53GOxX0efkiu+TxsL+JZFEhplNVUlskC2k05RETYrlwYtmJYFwbgC9ebZDbTqmZpzXBfHNQ65NZaea2kK782cCSPltDr2WYunyzQafNUS4IZHBPwdH6UPKGtqfkplH4EJOy3a4967IdNwgQlcaPSBsZBKliEmBqtxnp2SOp5qYOObCmmHpYTpoZJ9SGd6915evc69fbXRLygcc4bMNi2CfPIZ1Kp0+W4nOEptq3OwjGhoAk1FFdseiwO1QF1LaUSLfWiCsWbgm6NeBW17rBKYhhUW63EKotVp6F5QGqUi2fOuk/NPF5qAjRPh001OF8t7zk7c/pePkwkV6FwB8F86RfssSJ8ix+n8kKhgsVJqWE0NY16gqmJRnQEij36thGktUy8BqdNNxPzXSi/9hr/zi/mbHsvwvBxG+3hjmF948Lpc/pBch/ya9sQr6BCXI6FRC4z5tqbpV44pRsGk7hnDEAAUyKRC9KcLHRksFHcOzT3LDWd3IvnORkpOnHz7mtmQo8gLh8y2PPd+7fyuNEKxhegaWj4dtsQQVqTchXTDYRs/jkewE7EJo9DlCR6ZanZtQpVM/t1p1UUTaC8ZVdcHxaYSPEvQqFE7BrdwkYfDM3X8R1CNbUjXly2Lp/QrCi5U9LUCAkgTuZH1m6WYblSH4o3wjUPZAAblLhPAvsya0JSYHwiJBHGjmwdcZrG6Zxf02nNbT3GnucW6LHD53vCvg0o1P2Wh5VtaqcLFyaINq3Nk2Og7WuoBb6RpMOhf2G7SKSk1/gXBsAJ3mcVFWVGMM7F1B/1b2spJTSYSFk9Kzy+Ld0uZ8b+Hk9EuutMElwGfypx9yl69P0xHxyWqdCga73DIiKalEGuOh2ScVZFPAO8JaqgjhBGNfroQMWY+AGvKgMtVDDyED4c8Jk//6Mn9azD/NrW5VxEd+79nTjycb1ZH98ceL3OlJKa1w77orCJmYmemD6aa0h5WtXdIUm+AgWZrIuSFCoBTYed77oV4VqW1kVWrW8GCILiR0BWEiRHzz431AeHdvCxH5RszGNSjs5T78u3hqPy2lKJ0PVifBpQ09N40q42rXlZXADUuATN8PBVESYmjxZ3H7vj01sS0J67eZwVOSZqWRVXCRoGH5PTiRgBCkca3TudsAaA/LxdO9vdytpD4qZyDExRd5C1k1kmXXwKGhICJCBCLEUCZjy2pXeyOKBRBdfrI+m0kTcmi/+vEijwgLe8UXX5EKX47C3dzrMiK0n/2YdF/Lv61qu3BuQBennTzKL4GLNmP6NEQ4wwRjS6AJwAXC18eKdcgbAHDjmYHwzpsYwtPH4GQhQvsbiVh+WroolEun4NpcJmOL8rsMhFoF3RQ268x7aTKg6uQWUcJiZ7SG4mBWBY/gDsjwXMGQEKFxhs5CuLT49osS7l4jQhCjjT7ZlgEq+XF5jyPM3/8x4SGlPW8+wCigmleGspHmM/WwofJsDR6ckoHOPMmmckdd6fLMo9LhB35o/KR5bBh3l9Mqgn5BhPA/+8X68I8/vFHTlB8XQcFwhGA8EzF+JkI25JZC9uZW+niA2gSzwSocIR6JF1s3ple3ZE2ecqoBXJU7DpMsJqV0wUPlW6f23p6g4d4WItonzz/srbUWBWEkBML8wx/jZt/+NatQx+VKBEhZaQ4DU42dEuBdK3ArERACjVzuxIKTQCqNXqvWOzcYtXhDGX3qZJ6dYL9FCPMPebohpCHYs9L6GL78Fny7y7U7/+VbXIoFQly52CclkhiLIdcwAAavCxtpec1uoEZtbsBYjhimMiQ8CAeKBxUNi3alvGZnoqj8NdmvZorhMj4sP3+PM44QFvJriZi3f+IhfPFj9tZc4eRHbk5DhIWE2bdfZiEEbWnhxP1zM2hUPJz6OOAHXKiBqmbOEQ4YrAFKntFrjJvR7iI8znjeao0Y/l/45fm3P3IfPEK4noj2xfswR1H6sJe1COXXp/zlECHYxuLS7Nt/ZiFUxJaTO2SSWvf/N+hio7eKsHyVporJGgmT4Vwq8bBrS1dNdTYXvShRGiGoGmXx/zKdWD4V4R4iFAJm537KmH+h/GyZJy6e3l/lVBC8VwmEwA5Ls2//kFV5S4V8hU1iTENUx/BkjVz1Zaz+lsihRuXQInBBxX6HqjucEnRKwSPKwgfG4geBAigm1rlwd4HwWdrjwukXXi+STJyMT1f26MofwrCqXAqNKngSC7Nv/55ZW6wvGoaAaXD7QEFnLMrqdd55xAGEVZNqXvrMP2XnDcwtAnVXQ0OO8HdbUC7KSSwR7pVzj9MUKj86TSX6S+9T+6zg24YpqgXCPftyES2vQahWfXGcALvdoIS13VCqkDhUPQSEYCzoInSiiiqrvFec1sbNKtWvZh+kCB1v+3Euyv+C5x0ldp8Vk0TMl1+sbmQUc28TCqf84b34d4Ej5MNemn37l2waTtF409ZI51V43qJdAHLthJlVQFjXgFvDymJmjBued9jEDh86z9M4GeE9jtvcLS08LH34+IKPjy9Oc69ePROjmCAiGMHSCkAk4+N4yen90n1b4AKEJ9GfRpy7Zz/JLLoFzwsiH2VYG/k83xQ7TzyB+B1zjiLvJhJryiSqmGpEEXXYlmuVhm8EQrHNUsJRzJWikSvGsjiLHCgfn2O/l94vk3Pl58XLUzEui7nTxYhYN/9zJkLuYYfJGn+S6D5BYe7gjkp4DrQrnOv4uZPwSN4kuV0RWzsBQeTzi2eVs9hwHpQ+LIiTLz+OE7DoXMW23nBXXyxF4SRXPPgcjgMx+H5P5LqtQQjYeBTsEN5MIj4sICnYQcyLhuaQnxqeu5bJWyBy7sQeF5mV25SGkgbBAMzjIL6ndkVyzxfOp31xGSPa1dUx+XLw4CpGxlshpwKX3iPOUWwQ/li0u5z/O7vC3+IGW/Y9N223TVCzQDwJIAApLUHCSsClj2HrG437AGSle2O4dAvuugUQiwcxKh19fh4lWRJGEMYDzh/3EgrnMtz1BXY4iy1U6d4Z/OVyFyT/JhuhWUE7oDbmK/rCrDXQ5EsQJetNh8cg47B7gcTPMiJ7htgzEC5T3kkuBDp9Xmw52HtJI5grXoHBStYpgIyGGXz7bXyhcjy1utxgKzzMLu8XbiUbTTRx/FNRowZk3ORPACGjarsmyoS8JRwQUzSHbS8bIXu3VJblj3E6FXMLr7N8/zJtJIpYSZN+sfRahBv2m5jRPMKtutg+VuEi+zSR3DhEhN3xuNNrYVeXZjs8HaI2Dk3gS0QoN8JwKdaRSz7EyCJ8JwPhr/HA5uHzqCyhWPrwsBxx6NM48CP+4/gslzvj8hVn1SjcyO99WNY3FOOaFhFmqzwgAgigMQVnpj3BmjC0BHy7Gt8BRSSBwTRF/CD7bStqJA4I0QlYF1lIxh9xhyRfvv+am4rcrUeRM2afvI9zaMn5jJMX2+H4v9pBnPIlQXgIr96X8HWssXmW8OsyUsJ86NMKhHdYxm6plOcP501RM8zdNkok+L95yLNp5mFt2G8NeE9q0+JlGPJhuj4+HKntQ8BYvriPFVz5iICv4kbw4N49Uvlydhz9G3Vq7fPRcQziB3FgI19++PTD+/fPH78tp9z3k6ycJsqWQ/H/2LqJotGYyedNTw/foQqRPI4QceiLij7H86vczKjeOoS/r4QPhfwyTZ3P30qomKsz/NjjBeYD/jVHCQmNwo08lvdnlEedZCbEMPp1kdnQuunAo1MZ0zBIb63nSBwhhBYcBzWSJeC8s6jXXoPwl035pkJtYIgAABnKSURBVPLDtIopAcSjOOj0v3N8X3FTNvzuRoS4q4bderCCWe/x4wlg6twkQloZDVqzfrfTqzfbPo8LjXUIkzn9FDGTyjUUw7MvJI6m5tSclYeebyrrzP+WiVDpIEK1WrUUPNDd0yWmiqyTQOgsEUpuzWLYKl3RdF09P8Qcxloa3n60FqENCjE27Qccx9WXYvEgZu2ualfFI/7v4oOYE5cKN5Kfm5ESXiAEB7w5ahLsjMpmNeFqLmhoRAhpXB1rzcEmhPsX62ZSvp+MBEkuLHVKjIVOzV2ReI1YItxIfXBGSnjBpVGB/shocUXicoRCDisLhMnBPe91mobSNQjzwk+NxvHxPfLlwdFVbt04Pj4iRw9iKidpBBM0zEqYCkrxn1OH+DM0jdiriSMIEYI9lA8z914kNCDZ71D3JHsWFwkjmLvHF/Y4jWs5jviKxx9Yhhu7IRTWAvfKTJn3KKKxdxjaQ/RpqmvsumSusfh0kMVLKSPIGREM1MGGQkUIRAi5Sj5QupV5kMP+NTNSBYu/2i0mStQo6NOgX7rONwPXrpadLX2XkdTNF26thvLkLOmHFlN25Ip8IUepJViEG0mEmSlhSW57onEUuNy6IQ4XuLwXGnhtKvdLXfC8vZVyGbEsanPlHYHw0+oU7DeJSFAozgMwejExLIJ3loj4c/celK4Slp8/VlwtGFqTEoYI4pAXoRvjZnPaG05cxbT6PLkEnreILQZUnzqpCGIwUHhnynXRU9ItFRyaNILHNU5PZMCYNbh8U05lbZYPxCOnRbgRR/hnZnAh17gxX7Y09fyGqFZA4ePx4YzFcAjS0RnWmhhhQ9kshC9TCFNGsAgq5OBzItLNLeJ5WIyMCumil9C4xdM3KUHITglLFk+YYkmwv7w8ihdzYwTMY/yuYnRIpI4MCVvFyYrV5TUNyqLbcXKk3dIU613VMnQoFv9GgeOKV1csXZGj44M4yFJqd2NNwtTEQAKYsSGbpmkF/U69URGJNcuZ6jxPIzqO8rrLpk9awag79WfYDTncLM1EmHBLox2X2IQ/A8AUAeMuWd5OKSVuNciX5F98SDhx2QhBlUCIAEZRBPZUAfpYwkJiBofn2uoabfH9bCxddw3fIc4Qu3HyfUOanU1MVJfaD9+vMB0ERyQhWCm3Om1YiscVsqpTT9/GODU7JQxchpF9O24NVJ9vCLrArDxf2lapyxmXGmSsUVWtTLF+Xa2MFXip0szKCN9elikUys/icxWcWTw6Kh18iamY05U9w1SauITHT1YWKr4u2SlhQzjejbjdDm8Dww1EnvP2zWgnW+XaRez9YsTFs3R+ltt2e1EDndpxKXriZ9KIZ2hG7uDFrUvl6kqkN67itI/xdnbCVHR+15NWjTMsKJkB03DfAmKp0MFWG/jD6NVk4ObzNi4LGJIsZbof7UuU3yT8bHBRPl8dp9zQTOvG/zi2XXPM/5r/Vktq5YhT1yDkXhfwal9eKAzGQwhQMlTsPQGVZbGBo/VqlmJYM0L7nWYV+6WH2wLpQaWTkENfJBTGkbOqLzb40nv5/Ou0F1Qsgp05+Bz/+zDcyEwJU02krq0G6Q0sfksfNca88gS8FY3x/UOwB0ApldPVGQzn7cUZU+z1O8lSpjS4myFKmBjGfG/ytdJPGw7zgcJJBstZdqZ4yZco/ygLYbipRHkPpVqjPu4PqM8R4qao2AMmw8ggxpv0eNUmNyFWVm0pPxS06mdjKJ/SiJmbvfGRSsnlivdW7ExoSQsXGQiVcXTfiU5HvaYv6vP5ToQszCEirGvR5pPMs1DtercV4AU4eOsLJo5XEYJbmrfjue5Q9I6dq2MvjvjD1uOmeftpYp1W7Az/HAg3MhGqIl0fYOs4vKtPcwf9pjgEjYYurMUA9cLEFqnp1SeuzC9LA2s/Goq8/urnsl9tO+mWhIr+OIYWZWpN0UVyJLICMTsTF0YIN8onGfZQ5WlCtd2NqRmF12zzbbewngZiDFkoU9mfxO4jGvlCS81WBNF4mdhxwe2mqwxP8/LhloLuiFPvxpzaRcqxePY58R3P9lYLe0AMgTRUqYzMRZBI3U6YadMoFTVRWNbe4DcwseFiL40qoFPxvik1QxCNPxM68OjMIw6e6Upx1s6HtcFryPDFndrBvRi/lj6sphOxYothwpu0u1rUaln0x4OQEGMngXCEd2uJN1n4jBl0qsJFh/hrRRDZP5LzwXxvyuXamDbLIONFyhf/vOqoFt30PCD8rVi8zBRHtRNY/O4P/hza+Kg2EZxzsVcMo8UQ3mAuLAY3pp3V6kv2jxQ/ruQqNqc+M0ZScXEmBTcu+dIKQqrwzKjq1cO7PWu9lqnxMjUstFH4+TVRIwwuKd/MkL3AmvT88OkhNpsAE9JZOU6SQnhMjo9qCSPx4rrtBETNWxJhLWU2VhDiSSYGNrt6rmp4Uw2Oiqh2Zlgxa9ZChOCYmbwCDjc4xEl2rzeRNbM+ouEJm80IP18VizFfrXi5xQhmD/skEUVjzvhz4mtWEIYnmVDzK5ZV63X46Rlu77HgjS7qvAEteDXc5osD4J2mz9tLGosTNmsQpuMdwaGvC9dveiLI+DHui6+kkVeYVBMnmaiiKsO2Q2aqFXRrws2UD6vyslYf2FAZhja/4swDS50Jt0AZu1ImmwaCVlckfdh+g5+9yyi/Wdk1RhYJNWpaHSgjnr5XZIRHRM92q8k5jpuR2HkL4Fwmms7pTd6GTXZEeV97zM8z1NIda1xc48+fv5CzL7v72buMleAfExxfzrgtKabtstzGeigmmmBU69hTiWkiZAct2qKiAYg42aVSs1oTngA/cKhPfZMaplTl5xnGK0af4jdyhV5LAfzp2iomOVa83eMHD8DWeiCR/0gjFOexeG/cjmSBUexNZtWwi0vbMWns3BPps+ggt2gHBfLoBvzMIk9/rFzmwwWxmFuJArb52dsIWMaWX6mIhadwsJLqHykuhXgB02QGaeD1ktH2p+j/gRIaP7sGa4Hn2Xi/wEmLUUMOnLA7yFARKitLEI/JkRfPPEQ71V+JL//28YcPrz+e2Ingn2e1Kog5XbtkebwCdlwLO39zvVIVv8/AjCTOH3pWeMIGnqtZgdC6xKvP5vx43iR57AsHfvc9cBwfxFTMTn72WoAP/7oSNXGv7KQv/sX7zKONlLHAO+zwoN0kqrQ3Br1mV6Tc+Ekmi8QQYhQsgghqOKF7wC++VaYie5w+YrnwapbFIbv62dmjcHJZu7p89vZxkffoiZUaFb+A0kbDmFpjs1rBopLYVUtUi4r1TSBX1EspRNjTotM/3NOp9SZW2E2fL1d4CjrNpnEVs7ufnTnKH86uLm07X75fLJ6WE+ViUalO6oLkCdeaStaRJY4lajkQIqzJVPWqYVw1Dcz4rUe4JrXDtK5J4Lumn51Bwot/HZV4xXP5p2LpVX41+E8rGlChQEKlnwzQBVzOpLKTQAhsqonNVHBRE1WaASYaQYq7SUlMOG7X9rNXhv3xy5U451Q4yR3w2vh0Jj0phkBCUZPYPl8QkSqSiIQtZ8mksb4YeIid95aqt6i0DDblCqpkq+alsooxIq4tE9mdrPbrs+hwhX15FtaUJn3xFRKq4pbE6kgWF9FLg9EhVxuYW4w0aay3iUHV0HeB0FgeRq6oGjh42BaIOF5DxHV+dgFg7yibhb3yX1+io7/2+7NSeBI17osnmRSgzTV+Lo/wo6P1ZpW3teIkBF8H9A9JIQQPb3HhgDKpemEfFwldO3zV8p20XxNyaFY+ew+T4Y8vT98nmmQU1gwbTOBfD6Ljp4Dwx5NFfepiVzLJpLKPmWo28sJz5xEncm2hAEca4xWEDRPPRquCxQm/3Ek36uFb/BhRPals6CAX87MLdqxnSz6ft/OXn4/5nm9+Me5mjr27r45f3f18ryhOjxTuHhyVltU6UcYr6bIZXa4X2Ghm6Ao2bHOqjfo4bJqM7hlbtodc9onivTI45axqxQA7oYlKxta5h8eBsW9rUhRYcXloorB3+SAx7v14zCtlS1f3No/PYOPB1D84CPsN2s8eHMebC4W+eJKEvBerJAl1oUPU8L+yqpk94VzKXlVkaNIIe3gqQbT7AJ9H1ua811tLZpTfYwF+bPrQuptb+Nn2reJxckRJxauDzSParDrI8SMMhRPQLqV495MCbr8mpVCuk1aMpiheeCyoL+4q5HqmmYEQixSrFa4xzerhGLPH2MtuuW7j9IFg5dPCCJZPc980eAkYks7GiqNSsr8LmMakmmnx3jTLEepIYQDkasWKdxOO9dzrKuC7cBBRr7fEjfB4y2HKO91fbHaXP3x1dy+B8MEBtl9COM+LuVK6g0iyaM+qVVLHmiFs0MNWkbwhiBHrXB7vm2hiSzrRDLlB/L6Z8oewj3kysUgXzTHArRSlv8muXhi/bh7i4WIJvPiw7+ej43vrm3zh0Hsrh0BUcGLGIhNhtiHii/cSjve+HGE7EH7qGxZiuLozqnfSng0L7oZ8mt97ePH0XvENjEf4HwDmM392f8t49OjRi9KtNwcPSmFTF7D4yYPq9s+JDQulFWuNFy01NuQWF5cOSE9ftjJLIaxiDCWsvtxwLGWlB7pVTetT41Nk7cGsvfhSKj+8f9++//ZR+fLo1rPnl6/f2Pnto/ysXP7rKPJpys/Pfox7Q/lUgbfmOVZ6YhgN8z752JfHpWv7l4KCAkMzDJeiMaynY04qiR63sbH/cnkG8sWX4r8f/1i0T0vP/315dgsD9t18mjyGFqWwVwH8mku0eE9WXQIXZhTAwHy5t8K7nCW7Qaf6CAMHH1rhWpBpsLJU/RUOub0oPEGEz4E77cvc6fPc2UoTnU3DfnoWWnz0aeLdacp/JIQQ+/xm1E6woShVMFdImOoF3cLuClyd0kGPZnyS3BMdteMQf45a/QPC3MERIswVj2vXQpi//+BA+NuFk+MvsX6J5d+TQjgLuTE9XHFB9gSlMNnQO4mwCkT0K+Jynsw6ObxVspVUZPROCBERXh3dy9loGz/fuxbCvfLlmeixV358dXU/VmKSAAh27nDTvYpW1YGwobYBIRkxWKXOhvvFKPXStQsRRE5DUKAcIQb910Fof3xwL/ewbOPG/rLLkv3zfuK71FpWu6PFgOh9bCQU6SpCX8Y7FDfdAsMC4qW0DRUXyNgvPnMLZ/PjMz9u7pW0CvH52efirY/gOSz97hRAbMk+20hCz5Mlo7IRIRg87DW86QYgZULShcP09g/oUl484iP/5tEjMHQPr5fWKOQ/3CsV0QNYRFzlJ7eTvgy/7XD9AHs9U9Qe2YzQoeggbFwpbbhyl4Z0+49CHk/N4NgTP66btynY92+9f//86SIhUv4hCdCsk/mmpefNd1fvX1u9o0SmaqWWvs49MfBaufRX3XmXVbl8vYHngRZ3eOQLfyRroMxe/OaXjMEthblyTeDqPTMTPAE233jZn9whK+cwmPHLN25ZJIb95rdk6QXYqelGgGCr53rq1oBshBBbwkJkH/9dLFeHrBxToPufHl77Nog1I5//3UiqO6tOptkHdhff70DUIK/eK5tx39MYzyWmr4BIDXkMXuzK9j5eOXMDGPPikoD47K3pthvezCZ4cytqJhsh9jQfbuFTvCCsRlf00Z39l+nbcL4C38NfU7eWoQXrbWRR5NGeCvHdbggbFrqlm0wrDH1GnMGq32Pc/vTk5Pr3HoSjkLfzf/96O/WxTPL5NeMbBmUQEyTvRNiEEPtas/BWug2rNnFIP+N72b7x6Ycnj/LXvtwBLxr4+2Wwcq2ZPqngTTIbB3aQp1k8uu6Gx4CC87bR7iMU1ye9rGWg7M7+fvDnG3tn+1Gw7buPfv/1N2k/416uLqlMttwiCRHHWFNamVjW3mEJC9Ldcv8t05qkYaxhZnpnH2/g2oWQtn3y5Nfg9h2W0ZGKmnhN5pbLBFkLIw7lMBPLmntI6zIG9FtEkd+GVpmtZSC2z16+2YYxb9998unOKu3EwHu56lvEBU+/VgxUptdBSPoGpY639YpRfeKR3vqrcikonp/Th7IT5Cv//YeRfaEg/jney9Xfeg8oaNoJ07prkKy9D9hlQPvGZqso4YXqU1KbbFhldvu3J+sE0s4/+S3zjkAxdLcBUrDJRRYA66SLO2fXREh8k+rj8ELgTYOa/QrmRtY/wfaDJ1m8ahd+WVWcsT8Dx4mMt1/kqo7RX9VWnZltCDEhI9dXchYZQ2FTUhlumgrb/+3vtB+AF3Htr/8barZqpLHSkSXj22e8O2ljLY71CAEc5ixGO1z3K89qpLqJVQHj/yVrpfAytfX0o2rQ3rJqEcABqbGwHca1ESI4wyeTrYKAHDV2SDvYFHMZ9Bc71nPhhw38KalSHXeKdvhiKlUcl+rrtMw2hGAtKKuQYIdvkgy8N6vpbqAjvf3r3Win6uLd+rtkqarxj9oYokbP4vX2zFi9mnNXhBWXMpff8LzDUBlMrD0xMxtJ8mG44lqB8s/p+0eXg8kufkywzQYKgJpPZoayVo1uR4gsDmq4shtEwVzVIW/3lj19nlst/357zfSpYWGLquZu+ABglfQh1KtsxLAZIbb8MibE2xEiVVnHI059YK4eIBcP7P9s279nN3zCCw7m+Nc78Sf/tioZqoyutRM7IcS0Gni0u0LEsuJ+A6uMA9PI6phDjYsnWQCpIbvdKnxdl+m74eMAuypdc6P67gj5tZYtUgl2hQikCLDU3+9NDHUVJXu3chaOKqrOiwW9+iS9Z7l+MFDzQxUl8VsRYloNGDUr2l0L0rD4eYZKezzQZV1JLE5CEVGmqarbxbMEXr1larsuI35MDYJGamTdNX5dhHhYQQkc0spuoLhmAoYlddu8DKQ+HliWjCcDlehuY6YohqbKphV0ew3UEw1xGGT3oQQemelsOwV3QkiqGhiNw/CS+mvMQrWAPFxMKn673un2Z5NBEASDyazfHffaVa4iau1xYKnr3e/MoUOwOzEo2yaDuyIkPiy+UhW3715rUDzbHwx7Td9LX7VMPL/dG0+WDeSuMeQh8QJFcbdo0WsgRF1K1SaI5O6CskSJTW1NTXIHrVF/2O12h8NRaxDgRaCast492DCsHqmCHAw228HrISTOBILoOfHdnXVdBlLKFGzSxG83pavXVew4mNEmTZXqG1216yMkqLjUPnHW5yyyYWnqegdtjVuweRiDQ7wKWN7kbH8dQvhYaoAGm19HGI1Wz2/jLSCyjNoUs1aKrnKjwMzBMLim7sKwcUgIrLK1IVz6aoQghZSaTRCBnTlVmx7iMWPsrVJttOvzcZ+Z/WajPtAkFqAebGR3Clw7sF6tShWmrQ94vwUh8QOFml28kn7XGRmWh4UPizszq+cgQz2fdDVW8QyzHba63XFQFfNeJtUGOynRr0BIMMeN+b0m29HBwYM5AcW7pOe9OpjGfpd0LO28Qtgcd5s1b03H98yB+y7eTOWL/N0Q4sl2zBU721N8YlKg8FRJmfcsw9DPa87/NrAkTW6QgY+/6HVS2Zkf1FaNNA2mGGvyojeEkPgDHZiltmwMvnEoHdwwETdM476r1YZghVkVYnhYN477mVuzzuEnGXW+ruokO7N9cwhBp1qUyXNsvbx9bqAYFofCgHIuHhGoanUyPj/EPDw2ccjs8JMeDFOWTUWh19ChX4+QVF1dUoMGqbXMrVl/f3E6kw1wq8esg/cAtlUHVnM1vKa4ux0hlfm3yVQf7OBp3wBCNI2MWqMKHovbLI60srhaQa3z+zLOsba1a2LTEa+LhdatrQKtu1POMWxTzvCGERIfFpSp820pMeTCiEQMK3R5XRq4kz1VmYE9PARKbkvJaAzbrlKDmqPrSuC3IERomljcTWkVNiRRL2mDV4lT16lZ2FptBjpxMgHruKa35hIfLGN7AG6ou1JG8p0REmesKlTF25SnazPBwJlRyYZVw/aGoGR6GlU81D/ghwck+5qecFBV6jmkAfxiGF/FoN+GEGLXvqyAEmhillTO8uQCyY+KfMAwom1XG1hHrQwF6cB29NaTkMnBFI97WExRu9dxYm4OIYjjzAI6Ygq3OlzNQhh4YKfWDY8i8YpGIEXTotoI765lVmf9RjpmTsH3bE5AwVj9XUL574MQD45ZjOpymCVN+XKGpc46TU5dN6wTAwbtuLNKTaFuHytIsnk0zJz2JJkq34jvmxECHYemQg1zhFnSsSsnYz4I77nrw4a+sApUalacylShSqdWDzJzW0w1hg2eO9eYIQ+/Ed8NIARGHFOVKqo7h8k0uq5pZKQm2MIoqIpk6JxOGWEF9gAYtjG1OEA9JnW+Qf5uECHoVUzlwoJPsL+IP59o6obwfd07mLXiPQCc5kwD8pmT5kr26mvGjSAkPB2vMqqZrTpQstLsBlpGwnstaIoXMPUxXq5MZ5oK2pN1t+d6dxs3hZAvvakDSCsYo3H2Gp2WpmJXrY3YwPKrqj4ZN9Fhacwn8BFMl0c3Qz4+bg4hDG86w1v6FNUadNooQl6j120xy+Qpb4Y5b4aJNp5z40lvbdLtNVCZVBrzliVD+Kdao+nNwSM3jJAgJYeSqTEQSpn1e23hStaq7XpnPOyPWhMcrVl/2O3U2w2hJ2EZhq6pGgDadLvtG4VHbh4hjmpvJJm6wvB6MxaMAEttNeVNHO+wga2NKbIyU3TT7de/IjjaOr4HQhiOPx1OmKxj+lfRVVmlbsBph6M/a00Cl2qyquN2jaHKbNJtfg90OL4TQj4q1WlnFlA1ksIw5c3/DxrG0FRTp0DjqN3h9xnfE6EYlcNqs9cZziYuFQABnhRMZsNOvVk9vGmpWx3fH2FyOM73x5Qc/w9iIoNF9e9FgQAAAABJRU5ErkJggg==;" vertex="1" parent="1">
          <mxGeometry x="70" y="400" width="80" height="80" as="geometry" />
        </mxCell>
        <mxCell id="qfDsyvSXAk09wTS77NSX-3" value="" style="points=[[0,0],[0.25,0],[0.5,0],[0.75,0],[1,0],[1,0.25],[1,0.5],[1,0.75],[1,1],[0.75,1],[0.5,1],[0.25,1],[0,1],[0,0.75],[0,0.5],[0,0.25]];outlineConnect=0;gradientColor=none;html=1;whiteSpace=wrap;fontSize=12;fontStyle=0;container=1;pointerEvents=0;collapsible=0;recursiveResize=0;shape=mxgraph.aws4.group;grIcon=mxgraph.aws4.group_aws_step_functions_workflow;strokeColor=#CD2264;fillColor=none;verticalAlign=top;align=left;spacingLeft=30;fontColor=#CD2264;dashed=0;" vertex="1" parent="1">
          <mxGeometry x="230" y="360" width="320" height="160" as="geometry" />
        </mxCell>
        <mxCell id="qfDsyvSXAk09wTS77NSX-4" style="edgeStyle=orthogonalEdgeStyle;rounded=0;orthogonalLoop=1;jettySize=auto;html=1;" edge="1" parent="qfDsyvSXAk09wTS77NSX-3" source="qfDsyvSXAk09wTS77NSX-5" target="qfDsyvSXAk09wTS77NSX-6">
          <mxGeometry relative="1" as="geometry" />
        </mxCell>
        <mxCell id="qfDsyvSXAk09wTS77NSX-5" value="Download" style="outlineConnect=0;dashed=0;verticalLabelPosition=bottom;verticalAlign=top;align=center;html=1;shape=mxgraph.aws3.lambda_function;fillColor=#F58534;gradientColor=none;" vertex="1" parent="qfDsyvSXAk09wTS77NSX-3">
          <mxGeometry x="30" y="55" width="50" height="50" as="geometry" />
        </mxCell>
        <mxCell id="qfDsyvSXAk09wTS77NSX-6" value="&lt;div&gt;Parse &amp;amp;&lt;/div&gt;&lt;div&gt;Enrich&lt;br&gt;&lt;/div&gt;" style="outlineConnect=0;dashed=0;verticalLabelPosition=bottom;verticalAlign=top;align=center;html=1;shape=mxgraph.aws3.lambda_function;fillColor=#F58534;gradientColor=none;" vertex="1" parent="qfDsyvSXAk09wTS77NSX-3">
          <mxGeometry x="135" y="55" width="50" height="50" as="geometry" />
        </mxCell>
        <mxCell id="qfDsyvSXAk09wTS77NSX-7" value="&lt;div&gt;Load&lt;/div&gt;&lt;div&gt;Into&lt;/div&gt;&lt;div&gt;Opensearch&lt;br&gt;&lt;/div&gt;" style="outlineConnect=0;dashed=0;verticalLabelPosition=bottom;verticalAlign=top;align=center;html=1;shape=mxgraph.aws3.lambda_function;fillColor=#F58534;gradientColor=none;" vertex="1" parent="qfDsyvSXAk09wTS77NSX-3">
          <mxGeometry x="240" y="55" width="50" height="50" as="geometry" />
        </mxCell>
        <mxCell id="qfDsyvSXAk09wTS77NSX-8" style="edgeStyle=orthogonalEdgeStyle;rounded=0;orthogonalLoop=1;jettySize=auto;html=1;exitX=1;exitY=0.5;exitDx=0;exitDy=0;exitPerimeter=0;" edge="1" parent="qfDsyvSXAk09wTS77NSX-3" source="qfDsyvSXAk09wTS77NSX-6" target="qfDsyvSXAk09wTS77NSX-7">
          <mxGeometry relative="1" as="geometry">
            <mxPoint x="90" y="90" as="sourcePoint" />
            <mxPoint x="140" y="90" as="targetPoint" />
          </mxGeometry>
        </mxCell>
        <mxCell id="qfDsyvSXAk09wTS77NSX-9" value="&lt;div&gt;Amazon Location&lt;/div&gt;&lt;div&gt;Service&lt;br&gt;&lt;/div&gt;" style="sketch=0;points=[[0,0,0],[0.25,0,0],[0.5,0,0],[0.75,0,0],[1,0,0],[0,1,0],[0.25,1,0],[0.5,1,0],[0.75,1,0],[1,1,0],[0,0.25,0],[0,0.5,0],[0,0.75,0],[1,0.25,0],[1,0.5,0],[1,0.75,0]];outlineConnect=0;fontColor=#232F3E;fillColor=#DD344C;strokeColor=#ffffff;dashed=0;verticalLabelPosition=bottom;verticalAlign=top;align=center;html=1;fontSize=12;fontStyle=0;aspect=fixed;shape=mxgraph.aws4.resourceIcon;resIcon=mxgraph.aws4.location_service;" vertex="1" parent="1">
          <mxGeometry x="360" y="594" width="60" height="60" as="geometry" />
        </mxCell>
        <mxCell id="qfDsyvSXAk09wTS77NSX-10" value="" style="endArrow=classic;startArrow=none;html=1;rounded=0;exitX=1;exitY=0.5;exitDx=0;exitDy=0;startFill=0;entryX=0;entryY=0.5;entryDx=0;entryDy=0;entryPerimeter=0;" edge="1" parent="1" source="qfDsyvSXAk09wTS77NSX-2" target="qfDsyvSXAk09wTS77NSX-5">
          <mxGeometry width="50" height="50" relative="1" as="geometry">
            <mxPoint x="590" y="690" as="sourcePoint" />
            <mxPoint x="640" y="640" as="targetPoint" />
            <Array as="points">
              <mxPoint x="200" y="440" />
            </Array>
          </mxGeometry>
        </mxCell>
        <mxCell id="qfDsyvSXAk09wTS77NSX-11" value="" style="endArrow=classic;startArrow=classic;html=1;rounded=0;exitX=0.5;exitY=0;exitDx=0;exitDy=0;exitPerimeter=0;entryX=0.5;entryY=1;entryDx=0;entryDy=0;" edge="1" parent="1" source="qfDsyvSXAk09wTS77NSX-9" target="qfDsyvSXAk09wTS77NSX-3">
          <mxGeometry width="50" height="50" relative="1" as="geometry">
            <mxPoint x="590" y="690" as="sourcePoint" />
            <mxPoint x="640" y="640" as="targetPoint" />
          </mxGeometry>
        </mxCell>
        <mxCell id="qfDsyvSXAk09wTS77NSX-12" value="Amazon Opensearch&#xa;Service&#xa;" style="shape=image;verticalLabelPosition=bottom;labelBackgroundColor=default;verticalAlign=top;aspect=fixed;imageAspect=0;image=data:image/png,iVBORw0KGgoAAAANSUhEUgAAAHgAAAB6CAYAAAB0rJfZAAAAAXNSR0IArs4c6QAAAJBlWElmTU0AKgAAAAgABgEGAAMAAAABAAIAAAESAAMAAAABAAEAAAEaAAUAAAABAAAAVgEbAAUAAAABAAAAXgEoAAMAAAABAAIAAIdpAAQAAAABAAAAZgAAAAAAAACQAAAAAQAAAJAAAAABAAOgAQADAAAAAQABAACgAgAEAAAAAQAAAHigAwAEAAAAAQAAAHoAAAAAKHpaPwAAAAlwSFlzAAAWJQAAFiUBSVIk8AAAAm9pVFh0WE1MOmNvbS5hZG9iZS54bXAAAAAAADx4OnhtcG1ldGEgeG1sbnM6eD0iYWRvYmU6bnM6bWV0YS8iIHg6eG1wdGs9IlhNUCBDb3JlIDYuMC4wIj4KICAgPHJkZjpSREYgeG1sbnM6cmRmPSJodHRwOi8vd3d3LnczLm9yZy8xOTk5LzAyLzIyLXJkZi1zeW50YXgtbnMjIj4KICAgICAgPHJkZjpEZXNjcmlwdGlvbiByZGY6YWJvdXQ9IiIKICAgICAgICAgICAgeG1sbnM6dGlmZj0iaHR0cDovL25zLmFkb2JlLmNvbS90aWZmLzEuMC8iPgogICAgICAgICA8dGlmZjpSZXNvbHV0aW9uVW5pdD4yPC90aWZmOlJlc29sdXRpb25Vbml0PgogICAgICAgICA8dGlmZjpYUmVzb2x1dGlvbj4xNDQ8L3RpZmY6WFJlc29sdXRpb24+CiAgICAgICAgIDx0aWZmOllSZXNvbHV0aW9uPjE0NDwvdGlmZjpZUmVzb2x1dGlvbj4KICAgICAgICAgPHRpZmY6T3JpZW50YXRpb24+MTwvdGlmZjpPcmllbnRhdGlvbj4KICAgICAgICAgPHRpZmY6Q29tcHJlc3Npb24+MTwvdGlmZjpDb21wcmVzc2lvbj4KICAgICAgICAgPHRpZmY6UGhvdG9tZXRyaWNJbnRlcnByZXRhdGlvbj4yPC90aWZmOlBob3RvbWV0cmljSW50ZXJwcmV0YXRpb24+CiAgICAgIDwvcmRmOkRlc2NyaXB0aW9uPgogICA8L3JkZjpSREY+CjwveDp4bXBtZXRhPgpgtfwkAAAO/ElEQVR4Ae2dd/RVxRHHB0URFMGKggWxIBGxoMaCgjEqYkFRjjU56c0UjYkaNQZLjCam/GHOSfHoSVGxoIRYolFDDKKIBcSKqGADwQI2LCiZz28Zd9/z957v8rvv3fLbOee+u7ft3jvfndnZ2dl9IpFKzYEuF49evrzUX9jJP26VTv79pf/8CHDJIY4AR4BLzoGSf16U4AhwyTlQ8s+LEhwBLjkHSv55UYIjwCXnQMk/L0pwBLjkHCj550UJjgCXnAMl/7wowRHgknOg5J8XJTgCXHIOlPzzupb8+2p+3qB9RHr3rXn5Uy8sfknk8bs+9bbMb+iUAAPuqB+mw/u8g9wp2+COSG5YLdLKJ8wz7XSnlOCQic8/IsLWKG06WIStKBQBVnDvGZ8ArmOKBXCnVNEJ4Cz8rRHgwkNY/wMiwPX5U/irEeDCQ1j/Azq9kVWfPcmu5tF5EgFOhmHNu/PqPIkquiZkyS6k5fRIKx97+yjBxokU93lynkSAUwTWsgLgvDhPcg9wr41EjvyZyDobG/uS71+fLzLhHJElC5I/W/Qnct8GD9yrY+ACEJWDfDoj5R7gVVdLB5a08knnbVqXS+5VdMiKqTookKRt20MHBvbUrTNT7iW4M4OTxrdHgNPgYo7zKJSKTouPqPkkqj6tcrPIp9QA0x+l3YaSRG24J8rxW2qAX1CA2TozlRrgZgBbNPWeOsB5HDJrD2j6xb3VAbL2BiLdeohw/MF7Iu+97TxeSxaKLP+ovSeLdS5VgPM6ZGaQ9N1WZOvdNWhuiMiG/UW61OlDLPtAZP4TIs/NEnlyisjrGuheREoV4LSGutLKB0C6ri6y/f4iOx/iJLZRkLqqRG+6vdv2Ok7kpSdF7p8o8tQ9jeaQj/tSBTj8pDwMmW33OZG9vyiyZu/wzVz6ow9VFasaXqwDEe++JfKhSuxq3US6r62+634iPderfKbvQJHDThN5ZZ7IHX9S4+3Ryut5PWoqwIn6mupSTCugfK113dSU6vwAEnU75z6RFx/TNvfd2rD06OWkd5s9RQbsqppAJRpaf3ORo38u8vBtIv+5VGTZ++58Xn+bBnBWHwyoh5wq0kMl0eiNRSL3TRB55HaV1GV2tv7+nSWuMlAhuvdUFX+YU/Ord3fPDTlABKm+QcF+QzVBXq3rOmZGfQbk8erWe7ixYwMXNXzvtSKXnygy81/1wV1l1dpftPRNkbuvELnsOw50uxNpPvZCJ9V2Lm/70kgwavSQH4kYUG++KnLjr9Q4Uku4mvpsKbLlbiL9Bomsu4lKu6pjnkO639LnaGexIWbfI/KmSr/R269rnheLPPugyH7fdG02zcHYc0XG/ySflnYpAAawENxXnxe5bpwDy8BhP3CYyG5Hahdpi/CsT6+q3OjVx21UgOFfFpn7kGqBayoryqN3OuPs8DNF1ljLVRCiTv5+ijPYfI7ZpwqvolfvoeD+2EkT7CQ85+qzKsHFoXH0Ba4S1AK3vba5SxeRLXZ2anjkD0Qoy+jFx10YkBlqVAzuyRsVXoJHqJT13sixFSuZ2KulaiAZoboP1sneZhxx/v2lrj/7zP0iC+aoGn7Fea3aJFjzModI/528yt9uX6fSbzhf5LUXXO4LnlKV/WuRw89Qp4lWhi21rMGfd8aclZ/1PvcA17NON97GMdSYeNvvKwPrUMmjTvYg0de9f5LI9OudS9Kesz1SDHhsWNwE/A07XmTbvd0dVKRjfiFyzVmunebsM9OdA2TXI9w9+2i/e869+VHVhVbReynzkRzoKWVq6GXaZDuRg07y4GJ0XXW6yJS/tQ+uy6XylyjMm1RCb/qN7+/SZaK9XXMdf+/dV2qbrPdCOEqGjnbpPPwWFuCNthbZfAfHQrpDky/z7FxDQThYDR5ULoTRdYVa2C8/7Y6T/j5xl7brZ2rFeMc9ieVM/kZohrv+YkciO41Sm2ANf5xlqrAA4182evy/ztlgx3t/QQQQIPqwOCPo4nSEaG+RZhthwqFCe2uE9qAiQd3WzE+YbiEBXkUlM4xzxolhhMU8eD87Ernld5Xtsr+SPPXsAyLTJvjniNjkXYxwXxoNGmGpbPeFBBjjCimBGCyYP9ul+WXUyJwdOCQAJU2adq12wV5zOfZcXwRftRGq3P4oECdK1252Jbt9IQHebHvPsHkzfVrU4Bq4wuLlLNZy2sTgwkM3+VwZAzfCf71orjui/QfkrKmQAOMDNsLhYNRngB9kQMqaFWgXLn7GmLFpDN4jfJ8N+tubZbcvJMDr9vMMM6cDZ/ps5c8/P8un007hn7ZuEWPI+LONwvdZp6+dzW5fSIC79/IMwwtlZB4tjs2itWtp78P8w3IZrDBiECNrKiTA1W5HYyLBc0ZL37BUc/Zh/mbwUZL1lUmH78lxFlRIgLNgVKNlmmeN+82ibvTZZtxXSIAZLDAKR3jefdvOOpehP0o/FapfQm2NQqkNz9v1Vu8LCfA7iz2b6Isa0Sc2Ci1tO5fmfr1NfW5mcHEmfJ9Qjfu7W5sqJMBhjPJ6gQX78hzPvLaAuxUDEf5sOikLCiA3tElocIUWdXg+nZKT51JIgM2ZwOf2+4z/6IXPqs95hXQz2rP5EH8tzdSg4T43umPmn+Zs6NxYNM/fl1WqkACHfVwbUTIG4i402nWMpdLb435ktMjoMR3oMKJSWdPANJgFgQvV7mn1vpAA43smegNCXRKBYfTgjSIMH0KAv9XuLp3WLwMMPXq73AiXDcegkWyzop972I8hp1X2yuRTSIABkHhlox0OspQbNnz4Vn888nvqaQo8X/5K8hSVZZfD/XNTdKD/Y/Ws7T2x0kZP/M9S2e4LCTAsC4fmth3m47K4NkVjmAl2h3BCEP0YWrfuSrJf2vpRJ3kJnTtD/3Vlss+DdzDXJHbA7Kn+WpapwgK88BkXnwzzcPbv+zXPRvqfxC/btBIYf4Ieh6rc3/3pKQb2x57jozSoPDf/1j/HBDfmQBnRjeNcHqiwAMM8ZhuYihywiwbHBUN38590ERgWDku7yZyiEV91ccyNMJ++7ugzRA78rps/zDNIZ3XkJuAyz9hog/4anHdBZdyWXWv1vmurC0xa3iaD/aQ0hv/CJRmIsZqp7e2OK9rg/b8tslDPvfaiK2XONA3XOc/FTROgjqQPPVRkh5EiT9/nIiLJA4lE2vFCMXCApNPe0pc2o4kcX31B8zu/MkKE6TIEGVQTIB93kasM9j7V97TiOPcAw2RbzIwFVUKAYRDBbptpfxdDCoCIeLzyNB+DRUDAX08WOeBEkf47OpYyU5CQnzDspx6z0RK0+ZMv14rwnr+TPi+Rm0YYVsRaH6iGHQP+a2/owmypFGHUid3fin2hVTQMYmbBP3/pPEocw1RmMbA3Yvx2wjgXfNfeXCW7r3qPtU43iCkpt/+hElwq1Ziz/YwKvFa3XqKGl/aLAdT85YTRjlUtssXQ6txbc5x7CW6EDUwWm6Tq8IiznOSw+OjxCjrxzPRHjQhSZ8OdaJPPcHXSPmMUUVmIn7bJZ6j40O9t+dAkjPiKb5fpD08411eAeTNccPyYn7q8CQpg9gOB+cxraiWVAmAYBlMnXejnKQHaUeNEcHwQmG5ziLjXZi8o1omopxpS+33DTVGxB2m/x2s3LJyFyDXadgLtjxzn2nXa/5Hfd+G8066zp5u/Lw3AsIr27zptgw891TGSRVaGHuamnkyfqO2oGmQh0I2ylxhrHBxDDvQq2Z6ln91bvWnVAHOdUaar1B4Yo+9EvBg07ARnXd95qR4sbzvV1MnjyoJyEW0sRhUhs0b4iJmk9i01kpgBiOXL7Id6RBtOfDVq9ut/dhUFVQthdFlFIYoEAMPwWXeX+yXS8mpVz2H0504Hu5mONvMivD/tdKkk2JjD7MLrtU3cRi3l4V/yfVSsbGYJskFEXtoiLHSTmG7StghLX7dsg7ur8pdllZgmgwGGxc5iLVjlzE9GKmfcXHk/R1SG69XQOkgrl01kw4JnJYKJahCaQfbJJzt+ppQAG1tm360z/dRQAlD6qjbSY9dRvTbFxc61tyf0BmPtgUmVgfSoX0DGIUJzQPuMtsABU00fLXOOF6bQ0GxAhNxi8VMZOzq1xuX4yd9SA8znwthZ/3Ybk79xYNDFIcTWVs75JFvcDET6rvic8Su318YS0cnSDVjv5gbdfayrNFjM5mUL80f6ARPvF04U3ol1PvCOhYEM4TMdSZce4JA5BASwTb3KSRzuRTbiuugmMUuQyWp0e8Jw3DCP6jTDltee7VQ0XS+IthtVzxoh5g93V9zv9BscyDhEsK4Z8kSS0QhLXg7v7Hi6dEZWoyxBumAm7k/clm3rZ6k6Z/2sRsG1sgDxHyqFs263M64rxeIsuEjbo8cmO4eIGWss1kY3Km0qNcD4sfnfBjbSzSQqzG2XuGWbrBzU9jEKfK2hShZ4wUFiAQpMWq+1hojlmXRfaoDNj40vuy0ILyl3VuJ+DKw7/ujbXzxlx16khthm7WeGxgijQqwtb//u5GdLDXAtdiDRp0x0G+m0acYt6h+n/dU2HaIrxfBhGCDorrjft9ToMkp7ZYBOCbAxc2X2jap9pBLL2Kay0BYfNU6t+M9WlsoE8gFD/bkwxtqfXflUBDgh75KofYY28WLZhHEsddyodJHokyPReMos1IfKgE89TepU3aQ0GddoXovmrhh0UIcIY9Z0i3Yb47bqPKZemb5XK0pwNZebcEy/evzptSek4ylj0VRGvtKmKMFpc7RGfjhQcIgQfUnsGIuOEx3CSnsz1Shb2SWeahT38ekI8MesaH6CvjLLP4RLQDS71KYB3NbvTNAFaaSfWpQ8mw1akvybCnAjoCV5WfIrQp5JvqnZ96ZqZC1+KZ3XDfMJ0x3JPcwnTKeVZ0fyaeazqUqwtS0d+VscmG/58OGWznuezQSpI3l3uXh0HlaS6MgnxGfrcSBVFV2voHgtGw5EgLPhe8tKjQC3jNXZFBQBzobvLSs1AtwyVmdTUAQ4G763rNQIcMtYnU1BEeBs+N6yUiPALWN1NgVFgLPhe8tKjQC3jNXZFBQBzobvLSs1AtwyVmdTUAQ4G763rNQIcMtYnU1BEeBs+N6yUiPALWN1NgVFgLPheyw1ciAdDvwff0EUCETyRoMAAAAASUVORK5CYII=;" vertex="1" parent="1">
          <mxGeometry x="615" y="409.5" width="60" height="61" as="geometry" />
        </mxCell>
        <mxCell id="qfDsyvSXAk09wTS77NSX-13" style="edgeStyle=orthogonalEdgeStyle;rounded=0;orthogonalLoop=1;jettySize=auto;html=1;exitX=1;exitY=0.5;exitDx=0;exitDy=0;exitPerimeter=0;entryX=0;entryY=0.5;entryDx=0;entryDy=0;" edge="1" parent="1" source="qfDsyvSXAk09wTS77NSX-7" target="qfDsyvSXAk09wTS77NSX-12">
          <mxGeometry relative="1" as="geometry">
            <mxPoint x="425" y="450" as="sourcePoint" />
            <mxPoint x="480" y="450" as="targetPoint" />
          </mxGeometry>
        </mxCell>
        <mxCell id="qfDsyvSXAk09wTS77NSX-14" value="&lt;div&gt;Query&lt;/div&gt;&lt;div&gt;SDN&lt;br&gt;&lt;/div&gt;" style="outlineConnect=0;dashed=0;verticalLabelPosition=bottom;verticalAlign=top;align=center;html=1;shape=mxgraph.aws3.lambda_function;fillColor=#F58534;gradientColor=none;" vertex="1" parent="1">
          <mxGeometry x="740" y="415" width="50" height="50" as="geometry" />
        </mxCell>
        <mxCell id="qfDsyvSXAk09wTS77NSX-15" style="edgeStyle=orthogonalEdgeStyle;rounded=0;orthogonalLoop=1;jettySize=auto;html=1;entryX=1;entryY=0.5;entryDx=0;entryDy=0;" edge="1" parent="1" source="qfDsyvSXAk09wTS77NSX-14" target="qfDsyvSXAk09wTS77NSX-12">
          <mxGeometry relative="1" as="geometry">
            <mxPoint x="530" y="450" as="sourcePoint" />
            <mxPoint x="625" y="450" as="targetPoint" />
          </mxGeometry>
        </mxCell>
        <mxCell id="qfDsyvSXAk09wTS77NSX-16" value="Amazon API&#xa;Gateway&#xa;" style="shape=image;verticalLabelPosition=bottom;labelBackgroundColor=default;verticalAlign=top;aspect=fixed;imageAspect=0;image=data:image/png,iVBORw0KGgoAAAANSUhEUgAAAHoAAAB6CAYAAABwWUfkAAAAAXNSR0IArs4c6QAAAJBlWElmTU0AKgAAAAgABgEGAAMAAAABAAIAAAESAAMAAAABAAEAAAEaAAUAAAABAAAAVgEbAAUAAAABAAAAXgEoAAMAAAABAAIAAIdpAAQAAAABAAAAZgAAAAAAAACQAAAAAQAAAJAAAAABAAOgAQADAAAAAQABAACgAgAEAAAAAQAAAHqgAwAEAAAAAQAAAHoAAAAA/EbK+AAAAAlwSFlzAAAWJQAAFiUBSVIk8AAAAm9pVFh0WE1MOmNvbS5hZG9iZS54bXAAAAAAADx4OnhtcG1ldGEgeG1sbnM6eD0iYWRvYmU6bnM6bWV0YS8iIHg6eG1wdGs9IlhNUCBDb3JlIDYuMC4wIj4KICAgPHJkZjpSREYgeG1sbnM6cmRmPSJodHRwOi8vd3d3LnczLm9yZy8xOTk5LzAyLzIyLXJkZi1zeW50YXgtbnMjIj4KICAgICAgPHJkZjpEZXNjcmlwdGlvbiByZGY6YWJvdXQ9IiIKICAgICAgICAgICAgeG1sbnM6dGlmZj0iaHR0cDovL25zLmFkb2JlLmNvbS90aWZmLzEuMC8iPgogICAgICAgICA8dGlmZjpSZXNvbHV0aW9uVW5pdD4yPC90aWZmOlJlc29sdXRpb25Vbml0PgogICAgICAgICA8dGlmZjpYUmVzb2x1dGlvbj4xNDQ8L3RpZmY6WFJlc29sdXRpb24+CiAgICAgICAgIDx0aWZmOllSZXNvbHV0aW9uPjE0NDwvdGlmZjpZUmVzb2x1dGlvbj4KICAgICAgICAgPHRpZmY6T3JpZW50YXRpb24+MTwvdGlmZjpPcmllbnRhdGlvbj4KICAgICAgICAgPHRpZmY6Q29tcHJlc3Npb24+MTwvdGlmZjpDb21wcmVzc2lvbj4KICAgICAgICAgPHRpZmY6UGhvdG9tZXRyaWNJbnRlcnByZXRhdGlvbj4yPC90aWZmOlBob3RvbWV0cmljSW50ZXJwcmV0YXRpb24+CiAgICAgIDwvcmRmOkRlc2NyaXB0aW9uPgogICA8L3JkZjpSREY+CjwveDp4bXBtZXRhPgpgtfwkAAALPElEQVR4Ae2de7BVVRnAv3u5vMTLU16SykteAon4IEFBJM2KKB9Mk07Pqalmqn+c/mvM6r+caWrGpqbG0Wl6TGFlmRoKYYaBiCiIQAFCGs7lIYEgj8uj73fXWe51Nvfsezn3nL33Ont9M/vsvc96ft9vr73XXq8tEqQQFmhCyweWnD1bCG0LquS9jzU1NRdU98KpHUAXBHkAHUAXxAIFUTOU6AC6IBYoiJqhRAfQBbFAQdQMJTqALogFCqJmKNEBdEEsUBA1Q4kOoAtigYKoGUp0AF0QCxREzVCiCwK6Je969uotMuODIrMXi5w5I/Lo/SKH92ab64EjRO64T6RZi8n6P4tselrkdHu2eeoq9dyCBvDMW0SuvUPkwqGRGlNvFFm7LDrP4og8DB1jUr75SyLX3SnywqMiG5fnF3juQLf0UcC3ilzziXLAFmhzDnIczwMX4sIvmoty3R8U+F9FTp20Oc7HPgdmM4YA8Ps/pIBvFxkwOB/GOd9cAPymL5SA/17klafyAzxz0C19Ra68TQF/XOSCGOCjB/WWqAYbMESNpxdAHoX8kU/yRz4RLtQFnzf/rfujyMtPKvATxi2r38xAA3jWh0WuBvCgcvWPvF3+zPvAJ8vd83TGLfolrZBReuN1Ci7c+Z81j6EXFfiGJ7IDnjro3v0M4NkAHliO7J0DIuu0hOS5UlOe4+iMWveGv5i8A5xHUOsw486FfONn9KLWesf6EvD241HYNI5SAw3gqz6qr0kfE+kfB7zflOCO15RTaahdvzTeA64VMl4LeWtovcikx4V9w6fNXWz9n/RO8LhIWsDrDrpPfy3BFnBruYEP7ysBfkbfkT0HXK6ZvmapPjybN+o79oxFBvjA4cYXF/q8e/SiX6IlXIFvUOAnj8VjqO153UD3uSAqwf0uLM80DR5r9b3z1RWNB7hcU6Mfz+9NejFPv1nfubWE0+CC9NcLf97dWsJLwCnhJ981brX+rTnovgMU8GIDOQ74UJtp7Ni8Ug1wutaq5Ds+7li8X7+qwK9YaBpZBo00ecZOcz9lHmvApnJ34mht9akpaK5YXiuA7QqA1/xO5LW/FQ+waweOucCpi3CxT7tJZM5dIi7w6/UNg+beVQ+ZO148fLXnNQW9UJsDe+trk5X/vVUCvErk7Bn7b9hjAYBTujuALzDAB482tqGgYEsebbWSmoJ2IT/5Q5EtzwbAXYGiAAD7tVUiU+eL3PYNE8K1ZVdxdMdd+1/qI9ymQynuvm2xFTarl9QNdL0yHOKtzgIBdHV28y5UAO0dsuoyHEBXZzfvQgXQ3iGrLsM1fb2qLgvnF4p+XzpHXHnwnujscw+Wd3vSX0yPGEKLFA06rlQTlkESvol3oDFykqH7ahu72/Tq+mUcmusWh9WTsPG48nYebt15I1Kn/HhXohl8x2iNSvLI10Xc1dNOOh38NEhsX1MppEh3wzIqhsGLPol3oNt17NW7hyqb+Ng7ld0Y9pM0OrO7YcmDbxJu3b4RqzK/AXSVhvMtWADtG7Eq8xtAV2k434IF0L4RqzK/AXSVhvMtWGFBM2wnPrbNN3jnk1/v3qPPR7kkv4u+LHLxFJF//1Nk9a+yn3OdlNdauBWyRLfqQPpLZ5qBjMx1LsLQ44YCzRynW7+mAHX6T5JMX6jNpB1fExHZ9bLIkQORb8ISR3ziX+TDz6OGAd1fIS/9npkNcfu3tIfLGXYcR0N3pRV3SC1hCMv4dOIizkaRhgDdAfm7IsMuMVh49o7RrTO5ZEY0YJ627R1rI1+EISxCXEs1zkaB7T1oJqwt/Y7IRZcaQDxvn/iByO5XzHn8d/qi6B/GnTMZzgphCGuf2cRJ3PHZn9a/T3uvQTNJ7S4gX2ZMDiAmDmz7R+cImPh3+ZzIbfOK6NgeEZY43oOtcZMGafks3oLup4a/UwEMH2vMzwD4p34ksvXvlXFMuSGaMrR3p8je1zv3SxzEZScgkAZpkaav0uxrxhd/U2TEOJN7C5lbcZJQybLiVsLsf+6euFzYpEWavoq3oC1kDH9I51vvWJeMgMrV6EnGD6sSbNFS25UQJ3FbcdO0//my9xb0yp/rrfWsMfPgUfocvT+5SdMtzdtfEDmeMBKFWGke5dlM3Ahpkaav4i3oLatEluvQXgt75ER9jlaAzRiyaQsiRF3dtoFMXCMnmDCkQVqk6at4CxqDM7/46R9HsEcB+9si1K5dGX+1tnQNNv+w8tFubQ2rJIQlDuJCgEwapOWzeA0aw7N6wDM/cWBfXoKti+RYcd+dmYtsa9PW3e5ZWKcDssaBAJm4ScN38R40AFgbZMVPIxQjxuttt1QiabMePztyA3QlIQxhrRAncTeCNARoQLDyD2Bo6Xr8+yJvbDJ4WCekuZc5fnOzCMttVBLCEJY4iIs4G0VaGkUR9GBdr53ry/uW3dp2V5Uw4tiubd8PfbU8Dv73XRqmRFsQ7qLto/RZazs6WLBt22rrK3nvxpHs0x/XhgPtmp4V+6wAOesVdm1estg3NOg2bc8+8IYxa2cdGFkYPKs0G+oZHTciNWY2Gj7adsRdi3Xe0CXaoiw6ZOxQCNAWeJH3AXRB6AfQAXRBLFAQNUOJDqALYoGCqBlKdABdEAsURE3vWsbGXXXuGOuVP4tozb1bx3s5I0zozdr1knEfq2Hdvmn+dcPyfUlX3LDM4GC4MEJniW/iHWhGctrRnNbYLiw6MuynA3Fn2o0FTbhZH7GhzN4NG3dzwzJJIO5eHlO+z8IzOt98apY770r0rg1aQnWrJM//JpqNgZ892yKfhEv6rhRfpnHFDbtnq/lyDe5jZ5nN9Zv3Y+9AY3y+/lZJksZ4vaVh2SpJUrz7d4uwIYwUBbZPEm7dPtHqQV4D6B4Yz6egAbRPtHqQ1wC6B8bzKWgA7ROtHuQ1gO6B8XwKWjfQRVqVr1bA62mzur1Hf+Vhs4YX46lZ+afeXzyvlbHTjoeJfROuE5k8V9/Nr6xf6jUFzZogdlUAvkgz4RqznWo37c0sBMMqAu3H66eQDzGzaB22mTxP4WpHS4vaKi6V1leJ++vueU1BL7tPZOYtRgG7iAwZQZGJetWy8T2K17VHCeg7X0z+xkV3lfDBH59lYp42cMfp7M5Knw3et8vYZuPy2mpVU9DHDousXWa2IRcbpVDMrgFG1lFw0vVmo2RTwrm9A/+0lvxGEu5qQOW2TAmutHTl/v8YuFz8B/fUxwI1Be1mkQyv+a3Zhr7P9OVOUoWH6bEVFKePl41nOGuL/EuVpfOBqas+Si+1KO3gk/QCn3ittovrM7gzOfCm6qoX+NbnRN7W43qLZqv+giLP/9ps9OtSytmGjI7SxiDT5pvtxFEDnSs8aRmKKHS2R8y/vkwrUugE3Eq154M6Nxud2GwHSVo5b0krIZuO7QVa/UuzugC3NQw0aKT1YQx1hU5gZzt+JPk7V1GobI64G/GtzEqfQjzUVoKrpZdF7LKS1EG7inas3qfKP/cLsxTFFAXO7X3g8MgXBqxkxMhXdkdDx5yb9uF9pduylty27ee6Z/FPpqBdhTEI27MP61ChyVrKFTjQW4e5vvJRS+/sa3isdsQzl4plUp93uTbpneUGtKuyHSDAiI8xU0vPvjmmVs7zLWshD7xGUqvmW5ec/3dL1rlKTr8J5weW2GXZkj0HVz8tcO9jTe53Wf1UIuS6exaoW6dG95IPvtKyQACdlqUzTieAzhhAWskH0GlZOuN0AuiMAaSVfACdlqUzTieAzhhAWskH0GlZOuN0AuiMAaSVfACdlqUzTieAzhhAWskH0GlZOuN0AuiMAaSVfACdlqUzTieAzhhAWskH0GlZOqQTLJCGBf4PSEjiZup1RlUAAAAASUVORK5CYII=;" vertex="1" parent="1">
          <mxGeometry x="850" y="408.5" width="62" height="62" as="geometry" />
        </mxCell>
        <mxCell id="qfDsyvSXAk09wTS77NSX-17" style="edgeStyle=orthogonalEdgeStyle;rounded=0;orthogonalLoop=1;jettySize=auto;html=1;entryX=1;entryY=0.5;entryDx=0;entryDy=0;exitX=0;exitY=0.5;exitDx=0;exitDy=0;entryPerimeter=0;" edge="1" parent="1" source="qfDsyvSXAk09wTS77NSX-16" target="qfDsyvSXAk09wTS77NSX-14">
          <mxGeometry relative="1" as="geometry">
            <mxPoint x="770" y="450" as="sourcePoint" />
            <mxPoint x="685" y="450" as="targetPoint" />
          </mxGeometry>
        </mxCell>
        <mxCell id="qfDsyvSXAk09wTS77NSX-18" value="&lt;div&gt;Amazon Location&lt;/div&gt;&lt;div&gt;Service&lt;br&gt;&lt;/div&gt;" style="sketch=0;points=[[0,0,0],[0.25,0,0],[0.5,0,0],[0.75,0,0],[1,0,0],[0,1,0],[0.25,1,0],[0.5,1,0],[0.75,1,0],[1,1,0],[0,0.25,0],[0,0.5,0],[0,0.75,0],[1,0.25,0],[1,0.5,0],[1,0.75,0]];outlineConnect=0;fontColor=#232F3E;fillColor=#DD344C;strokeColor=#ffffff;dashed=0;verticalLabelPosition=bottom;verticalAlign=top;align=center;html=1;fontSize=12;fontStyle=0;aspect=fixed;shape=mxgraph.aws4.resourceIcon;resIcon=mxgraph.aws4.location_service;" vertex="1" parent="1">
          <mxGeometry x="735" y="594" width="60" height="60" as="geometry" />
        </mxCell>
        <mxCell id="qfDsyvSXAk09wTS77NSX-19" value="" style="endArrow=classic;startArrow=classic;html=1;rounded=0;exitX=0.5;exitY=0;exitDx=0;exitDy=0;exitPerimeter=0;entryX=0.5;entryY=1;entryDx=0;entryDy=0;" edge="1" parent="1" source="qfDsyvSXAk09wTS77NSX-18">
          <mxGeometry width="50" height="50" relative="1" as="geometry">
            <mxPoint x="965" y="670" as="sourcePoint" />
            <mxPoint x="765" y="500" as="targetPoint" />
          </mxGeometry>
        </mxCell>
        <mxCell id="qfDsyvSXAk09wTS77NSX-20" value="&lt;div&gt;Calling&lt;/div&gt;&lt;div&gt;Application&lt;br&gt;&lt;/div&gt;" style="ellipse;shape=cloud;whiteSpace=wrap;html=1;" vertex="1" parent="1">
          <mxGeometry x="980" y="400" width="120" height="80" as="geometry" />
        </mxCell>
        <mxCell id="qfDsyvSXAk09wTS77NSX-21" style="edgeStyle=orthogonalEdgeStyle;rounded=0;orthogonalLoop=1;jettySize=auto;html=1;" edge="1" parent="1" source="qfDsyvSXAk09wTS77NSX-20">
          <mxGeometry relative="1" as="geometry">
            <mxPoint x="860" y="450" as="sourcePoint" />
            <mxPoint x="910" y="440" as="targetPoint" />
          </mxGeometry>
        </mxCell>
      </root>
    </mxGraphModel>
  </diagram>
</mxfile>
